<?xml version="1.0" standalone="no"?>
<!DOCTYPE svg PUBLIC "-//W3C//DTD SVG 1.1//EN" "http://www.w3.org/Graphics/SVG/1.1/DTD/svg11.dtd" >
<svg>
<metadata>
Created by FontForge 20120731 at Fri Sep 13 08:51:01 2019
 By www
</metadata>
<defs>
<font id="CenturySchoolbookW02-Reg" horiz-adv-x="500" >
  <font-face 
    font-family="CenturySchoolbookW02-Reg"
    font-weight="400"
    font-stretch="normal"
    units-per-em="1000"
    panose-1="4 0 5 0 0 0 0 0 0 0"
    ascent="748"
    descent="-252"
    x-height="425"
    cap-height="667"
    bbox="-120 -262 943 897"
    underline-thickness="43"
    underline-position="-53"
    unicode-range="U+0020-FB02"
  />
<missing-glyph horiz-adv-x="0" 
 />
    <glyph glyph-name=".notdef" horiz-adv-x="0" 
 />
    <glyph glyph-name="glyph1" horiz-adv-x="0" 
 />
    <glyph glyph-name="glyph2" horiz-adv-x="0" 
 />
    <glyph glyph-name="space" unicode=" " horiz-adv-x="335" 
 />
    <glyph glyph-name="exclam" unicode="!" horiz-adv-x="281" 
d="M140 110q26 0 43 -17t17 -43q0 -25 -17.5 -42.5t-42.5 -17.5t-42.5 17.5t-17.5 43.5q0 24 17.5 41.5t42.5 17.5zM123 187q0 55 -1.5 93t-4.5 71.5t-8 67.5t-14 82q-4 22 -6.5 37.5t-4 27t-2 20.5t-0.5 17q0 35 16 54.5t43 19.5t43.5 -20t16.5 -53q0 -8 -0.5 -16.5
t-2 -20.5t-4 -28t-6.5 -40q-6 -41 -10.5 -70.5t-7.5 -53t-5 -43.5t-3.5 -41t-2 -46t-1.5 -58h-35z" />
    <glyph glyph-name="quotedbl" unicode="&#x22;" horiz-adv-x="299" 
d="M174 568q-4 23 -4 37q0 20 11.5 31t32.5 11q20 0 31.5 -11t11.5 -31q0 -7 -1 -17t-3 -20l-25 -141h-29zM45 568q-2 10 -3 20t-1 17q0 20 11.5 31t32.5 11q20 0 31.5 -11t11.5 -31q0 -14 -4 -37l-25 -141h-29z" />
    <glyph glyph-name="numbersign" unicode="#" 
d="M249 49l30 169h-99l-29 -169h-60l29 169h-98l7 38h99l23 123h-100l9 39h96l30 166h58l-28 -166h100l28 166h58l-28 -166h104l-5 -39h-107l-21 -123h104l-7 -38h-104l-28 -169h-61zM309 379h-100l-22 -123h100z" />
    <glyph glyph-name="dollar" unicode="$" 
d="M260 388q30 -9 51.5 -17t37.5 -15.5t27.5 -15t22.5 -16.5q58 -50 58 -135q0 -88 -51.5 -140t-145.5 -60v-64h-31v64q-43 2 -79.5 13.5t-62.5 30t-41 43t-15 52.5q0 29 18.5 48.5t44.5 19.5q23 0 38 -14.5t15 -35.5q0 -24 -20 -44q-8 -8 -10.5 -12.5t-2.5 -9.5
q0 -22 32 -36.5t83 -16.5v256q-18 6 -30 10.5t-21 8t-16 6.5l-14 6q-101 50 -101 153q0 36 14 68.5t38.5 57t58 40.5t71.5 19v60h31v-60q40 -2 74 -12t59 -27.5t39 -40t14 -49.5t-16 -45t-41 -18q-24 0 -41 15t-17 37q0 19 20 36q8 6 10.5 10t2.5 9q0 18 -29.5 31t-74.5 15
v-225zM260 29q20 3 31 6t23 8q33 14 51.5 41.5t18.5 62.5q0 26 -11.5 49t-31.5 39q-16 11 -32 18.5t-49 18.5v-243zM229 612q-50 -4 -79.5 -32t-29.5 -72q0 -63 64 -93l14 -6q7 -3 31 -10v213z" />
    <glyph glyph-name="percent" unicode="%" horiz-adv-x="641" 
d="M187 0h-50l307 667h49zM159 637q-74 0 -74 -138q0 -120 71 -120q36 0 55.5 34t19.5 97q0 127 -72 127zM160 672q30 0 55 -12.5t44 -35t29.5 -52.5t10.5 -64q0 -62 -39 -112q-22 -27 -46 -39.5t-56 -12.5q-30 0 -56 12.5t-45 34.5t-30 51.5t-11 64.5q0 34 11.5 64t31 52.5
t45.5 35.5t56 13zM472 287q-75 0 -75 -139q0 -118 70 -118q38 0 57.5 33t19.5 96q0 128 -72 128zM473 322q29 0 54.5 -12.5t44 -35t29.5 -52.5t11 -65q0 -33 -11.5 -63t-31 -52t-45.5 -35t-55 -13q-30 0 -55.5 12.5t-44.5 34.5t-30 52t-11 64t11.5 64t31 52.5t46 35.5
t56.5 13z" />
    <glyph glyph-name="ampersand" unicode="&#x26;" horiz-adv-x="676" 
d="M645 339q-26 -2 -42.5 -6.5t-30.5 -18t-29.5 -40.5t-39.5 -74q-10 -19 -21 -37t-26 -40q51 -61 94 -61q39 0 61 40q5 9 8 21t10 38l33 -6q-6 -32 -11.5 -50t-15.5 -38q-17 -35 -49 -55t-70 -20q-34 0 -63.5 14.5t-63.5 47.5q-44 -37 -82 -52.5t-86 -15.5q-40 0 -74.5 14
t-59.5 38.5t-39.5 58.5t-14.5 74q0 45 21 87t56 71q16 12 31.5 22.5t44.5 25.5q-11 29 -18.5 49.5t-11.5 37t-5.5 30t-1.5 29.5q0 34 11.5 63.5t32.5 51t49.5 33.5t62.5 12q59 0 95.5 -34.5t36.5 -89.5q0 -33 -15.5 -64t-43.5 -54q-9 -7 -16.5 -12.5t-17.5 -11.5l-23 -14
q-12 -7 -31 -17q22 -44 39.5 -77t34 -60t32.5 -49.5t34 -44.5q5 8 13 23t20 36q13 23 18.5 39.5t5.5 31.5t-8.5 27.5t-23.5 17.5q-11 3 -20 4.5t-33 4.5v38h243v-38zM362 86q-30 40 -51.5 71t-39.5 60t-34 59t-34 66q-74 -38 -74 -115q0 -35 11.5 -67t31 -57t45 -39.5
t53.5 -14.5q23 0 45 8.5t47 28.5zM273 421q6 4 8 4q46 23 67 53t21 73t-19 68t-51 25q-31 0 -49.5 -20.5t-18.5 -55.5q0 -30 10 -65t32 -82z" />
    <glyph glyph-name="quotesingle" unicode="'" horiz-adv-x="169" 
d="M45 568q-2 10 -3 20t-1 17q0 20 11.5 31t32.5 11q20 0 31.5 -11t11.5 -31q0 -14 -4 -37l-25 -141h-29z" />
    <glyph glyph-name="parenleft" unicode="(" horiz-adv-x="312" 
d="M298 649q-51 -11 -81 -34t-51 -65q-10 -20 -16.5 -44.5t-11 -56t-6.5 -72.5t-2 -95q0 -69 3 -118.5t10 -86t18.5 -62.5t28.5 -47q23 -29 47 -43.5t61 -20.5v-34q-63 8 -103.5 28t-74.5 58q-45 52 -66 128.5t-21 189.5q0 119 23.5 200t71.5 130q17 17 34 30t37.5 22.5
t44.5 16t54 11.5v-35z" />
    <glyph glyph-name="parenright" unicode=")" horiz-adv-x="312" 
d="M13 -95q51 11 81 34t51 65q10 20 16.5 44.5t11 56t6.5 72.5t2 95q0 69 -3 118.5t-10 86t-18.5 62.5t-28.5 47q-23 29 -47 43.5t-61 20.5v34q31 -4 56.5 -11t46.5 -17t39.5 -24.5t35.5 -33.5q45 -52 66 -128.5t21 -189.5q0 -119 -23.5 -200t-71.5 -130q-17 -17 -34 -30
t-37.5 -22.5t-44.5 -16t-54 -11.5v35z" />
    <glyph glyph-name="asterisk" unicode="*" horiz-adv-x="411" 
d="M300 509q26 -7 35.5 -14.5t9.5 -21.5t-9.5 -25t-22.5 -11q-7 0 -14 4t-21 17l-65 57l22 -79l3 -18q2 -7 2 -15q0 -12 -9.5 -19.5t-24.5 -7.5t-24.5 7.5t-9.5 19.5q0 8 1 15l4 18l22 79l-65 -57q-14 -13 -21 -17t-14 -4q-13 0 -22.5 11t-9.5 25t9.5 21.5t35.5 14.5l73 19
l-73 19q-26 7 -35.5 14.5t-9.5 21.5t9.5 25t22.5 11q7 0 14 -4t21 -17l65 -57l-22 80q-2 9 -3.5 16.5t-1.5 15.5q0 12 9.5 19.5t24.5 7.5t24.5 -7.5t9.5 -19.5q0 -8 -1.5 -15.5t-3.5 -16.5l-22 -80l65 57q14 13 21 17t14 4q13 0 22.5 -11t9.5 -25t-9.5 -21.5t-35.5 -14.5
l-73 -19z" />
    <glyph glyph-name="plus" unicode="+" 
d="M226 339v178h47v-178h177v-44h-177v-179h-47v179h-176v44h176z" />
    <glyph glyph-name="comma" unicode="," horiz-adv-x="254" 
d="M29 -132q49 26 77 56.5t28 57.5q0 10 -13 10q-56 3 -56 51q0 25 17 41.5t42 16.5q28 0 46.5 -22t18.5 -57q0 -54 -34.5 -97t-110.5 -86z" />
    <glyph glyph-name="hyphen" unicode="-" horiz-adv-x="200" 
d="M200 187h-200v67h200v-67z" />
    <glyph glyph-name="period" unicode="." horiz-adv-x="254" 
d="M127 110q26 0 43 -17t17 -43q0 -25 -17.5 -42.5t-42.5 -17.5t-42.5 17.5t-17.5 43.5q0 24 17.5 41.5t42.5 17.5z" />
    <glyph glyph-name="slash" unicode="/" horiz-adv-x="456" 
d="M71 0h-51l365 667h51z" />
    <glyph glyph-name="zero" unicode="0" 
d="M256 646q88 0 140 -77q32 -49 49.5 -114t17.5 -140q0 -69 -16.5 -129t-45.5 -104t-68.5 -69.5t-84.5 -25.5t-83 24.5t-66.5 68t-44.5 102.5t-16 128q0 72 20 141t55 117q28 38 64.5 58t78.5 20zM255 608q-60 0 -90 -78.5t-30 -231.5q0 -140 27.5 -206t86.5 -66
q117 0 117 312q0 139 -27 204.5t-84 65.5z" />
    <glyph glyph-name="one" unicode="1" 
d="M325 638q-3 -50 -4.5 -102t-1.5 -113v-329q0 -17 0.5 -26t2 -14t4.5 -7t8 -3q6 -2 24 -3.5t35 -1.5l55 -2v-37h-335v37l52 2q23 0 40.5 2t23.5 5q7 3 8.5 10.5t1.5 37.5v398q0 16 -1 25t-5.5 13t-14 5t-27.5 1h-89v34q65 5 111 21t88 47h24z" />
    <glyph glyph-name="two" unicode="2" 
d="M450 193q-2 -36 -3.5 -62.5t-2.5 -48.5t-1.5 -42.5t-0.5 -42.5q-17 1 -31 1.5t-29.5 1t-34.5 0.5h-124q-35 0 -65.5 -0.5t-60 -1t-62.5 -1.5v25q25 34 41.5 56t32.5 41.5t34 40t46 51.5q46 51 76.5 89.5t48.5 70t25.5 58.5t7.5 56q0 53 -31 85.5t-82 32.5
q-25 0 -48.5 -7.5t-41.5 -20.5t-28.5 -29t-10.5 -34q0 -20 22 -24q27 -7 39 -20t12 -36q0 -25 -16.5 -42t-39.5 -17q-32 0 -53 27.5t-21 70.5q0 37 15 68.5t41.5 54t63 35.5t79.5 13t79 -12.5t62 -35.5t40.5 -54.5t14.5 -69.5q0 -40 -15 -75.5t-47 -71.5q-12 -14 -35 -35
t-67 -58q-21 -19 -41 -37l-40 -36l-55 -55q-6 -5 -12 -11l-12 -12h196q27 0 43.5 2.5t26 12.5t15 28.5t11.5 51.5l4 23z" />
    <glyph glyph-name="three" unicode="3" 
d="M299 341q35 -4 56 -11t41 -22q30 -23 46.5 -57t16.5 -76t-16 -76.5t-44.5 -59t-69.5 -38t-90 -13.5q-41 0 -75 11.5t-58.5 32t-38 49t-13.5 63.5q0 36 17 58t46 22q23 0 40 -17t17 -40q0 -34 -35 -51q-11 -6 -15 -11t-4 -13q0 -14 9 -26t25 -21t36.5 -14t43.5 -5
q67 0 99 35t32 110q0 69 -30 108t-82 39q-10 0 -20.5 -1.5t-22.5 -3.5q-5 -1 -10 -1.5t-8 -0.5q-11 0 -18 7.5t-7 19.5q0 23 24 23q4 0 12 -1t17 -3q15 -3 30 -3q47 0 72 35.5t25 100.5q0 58 -27.5 90t-78.5 32q-18 0 -36 -5t-32 -13t-22.5 -18.5t-8.5 -21.5q0 -5 3 -9
t12 -11q24 -20 24 -45q0 -22 -15.5 -37.5t-35.5 -15.5q-24 0 -40 19.5t-16 48.5q0 31 14.5 58t39.5 46.5t59.5 31t73.5 11.5q38 0 70 -11.5t55 -32t35.5 -49t12.5 -62.5q0 -121 -129 -154z" />
    <glyph glyph-name="four" unicode="4" 
d="M461 210v-44h-105v-71q0 -17 0.5 -26.5t2 -14.5t4.5 -7t8 -3q3 -1 5.5 -1.5t8 -1t16 -1.5t29.5 -2l9 -1v-37h-257v37l20 2q19 1 30 1.5t17 1t9.5 1.5t6.5 3q7 3 8.5 10.5t1.5 38.5v71h-251v39l302 431h37q-2 -16 -3 -40t-2 -53t-1.5 -61t-0.5 -64v-208h105zM275 498
l-201 -288h201v288z" />
    <glyph glyph-name="five" unicode="5" 
d="M128 370q30 24 57.5 34t65.5 10q44 0 81 -15t63.5 -41.5t41.5 -63.5t15 -81q0 -49 -17.5 -90.5t-48 -71.5t-73 -47t-92.5 -17q-36 0 -67.5 11.5t-55 32t-36.5 48.5t-13 60q0 35 18 58t45 23q24 0 40 -16t16 -40q0 -22 -8 -33t-34 -23q-13 -5 -13 -16q0 -13 9.5 -25.5
t24.5 -22t34.5 -15t39.5 -5.5q66 0 101.5 46.5t35.5 131.5q0 81 -32 125.5t-91 44.5q-27 0 -51 -8.5t-56 -28.5q-4 -30 -11 -42.5t-21 -12.5q-11 0 -18 8t-7 22q0 19 19 41l23 294q33 -8 58 -13t45.5 -8t38.5 -4t37 -1q18 0 32.5 1t29.5 4t31 8t36 13q-28 -109 -149 -109
q-33 0 -67.5 3.5t-61.5 9.5z" />
    <glyph glyph-name="six" unicode="6" 
d="M129 281q13 29 22.5 44t22.5 28q22 21 52 33t62 12q38 0 70.5 -14.5t56 -39.5t37 -60t13.5 -75q0 -47 -16 -87t-43.5 -69.5t-65.5 -46.5t-81 -17q-50 0 -91 22.5t-70 63.5t-44.5 99t-15.5 130q0 75 19 138.5t53 109.5t81 72t103 26q65 0 104.5 -29.5t39.5 -78.5
q0 -30 -16 -49t-42 -19q-23 0 -39 16t-16 39v10q0 4 1.5 8t4.5 9.5t9 14.5q5 8 5 15q0 11 -16 19t-39 8q-115 0 -148 -184q-2 -13 -4.5 -33t-4.5 -41t-3 -41t-1 -33zM261 347q-54 0 -85.5 -40.5t-31.5 -109.5q0 -76 32.5 -123.5t85.5 -47.5q51 0 79.5 43.5t28.5 120.5
t-27.5 117t-81.5 40z" />
    <glyph glyph-name="seven" unicode="7" 
d="M458 608q-44 -94 -72 -165.5t-44.5 -130.5t-22 -111.5t-3.5 -107.5q0 -101 -51 -101q-20 0 -33 17t-13 42q0 21 8.5 62.5t22.5 86.5q6 19 13.5 40t19 49t27.5 64.5t39 86.5q12 27 19.5 44t13 29.5t10 23.5t11.5 26h-194q-36 0 -50.5 -5.5t-24.5 -24.5l-6 -11
q-2 -5 -4.5 -14t-5.5 -24t-8 -39l-4 -17l-30 3l26 219q20 -3 38 -5t37 -3.5t40.5 -2t48.5 -0.5q26 0 57.5 0.5t84.5 2.5l50 1v-35z" />
    <glyph glyph-name="eight" unicode="8" 
d="M319 360q72 -24 104 -65.5t32 -109.5q0 -45 -15 -81.5t-43 -63t-67 -40.5t-87 -14t-87 11.5t-66 33.5t-42 52.5t-15 68.5q0 120 141 162q-59 27 -85 64.5t-26 95.5q0 39 13.5 70.5t37.5 54t58 34.5t76 12q40 0 72 -10t55 -28.5t35.5 -44.5t12.5 -57q0 -51 -26.5 -88
t-77.5 -57zM204 299l-3 -2h-3q-92 -41 -92 -138q0 -66 36.5 -101t104.5 -35q64 0 104 34.5t40 89.5q0 41 -22.5 69t-73.5 50q-14 6 -34.5 13.5t-56.5 19.5zM289 373q72 38 72 117q0 57 -30.5 89t-86.5 32q-26 0 -48 -8t-38.5 -21.5t-25.5 -33t-9 -41.5q0 -36 22 -61.5
t72 -46.5q17 -7 34.5 -13.5t37.5 -12.5z" />
    <glyph glyph-name="nine" unicode="9" 
d="M367 344q-11 -20 -17 -30.5t-14 -19.5q-22 -26 -54 -40.5t-69 -14.5q-38 0 -70.5 14t-56 39.5t-37 60t-13.5 75.5q0 46 16 86t43.5 69t65.5 46t82 17q49 0 89.5 -21.5t68.5 -61t43.5 -95.5t15.5 -126q0 -78 -19 -143.5t-53 -113t-81.5 -73.5t-104.5 -26q-65 0 -105 30.5
t-40 78.5q0 30 15.5 48.5t41.5 18.5q24 0 40.5 -15.5t16.5 -37.5q0 -13 -3.5 -21.5t-15.5 -26.5q-3 -5 -3 -10q0 -13 16.5 -21t41.5 -8q48 0 83 34t54 98q23 80 23 174v16zM239 611q-51 0 -80.5 -47t-29.5 -126q0 -72 29.5 -111t82.5 -39q26 0 47.5 11t37 31t24 47.5
t8.5 60.5q0 78 -32.5 125.5t-86.5 47.5z" />
    <glyph glyph-name="colon" unicode=":" horiz-adv-x="254" 
d="M127 437q26 0 43 -17t17 -43q0 -25 -17.5 -42.5t-42.5 -17.5t-42.5 17.5t-17.5 43.5q0 24 17.5 41.5t42.5 17.5zM127 110q26 0 43 -17t17 -43q0 -25 -17.5 -42.5t-42.5 -17.5t-42.5 17.5t-17.5 43.5q0 24 17.5 41.5t42.5 17.5z" />
    <glyph glyph-name="semicolon" unicode=";" horiz-adv-x="254" 
d="M123 437q26 0 43 -17t17 -43q0 -25 -17.5 -42.5t-42.5 -17.5t-42.5 17.5t-17.5 43.5q0 24 17.5 41.5t42.5 17.5zM29 -132q49 26 77 56.5t28 57.5q0 10 -13 10q-56 3 -56 51q0 25 17 41.5t42 16.5q28 0 46.5 -22t18.5 -57q0 -54 -34.5 -97t-110.5 -86z" />
    <glyph glyph-name="less" unicode="&#x3c;" 
d="M457 575l-303 -197l303 -203v-110l-415 279v6l415 266v-41z" />
    <glyph glyph-name="equal" unicode="=" 
d="M450 276v-44h-400v44h400zM450 401v-44h-400v44h400z" />
    <glyph glyph-name="greater" unicode="&#x3e;" 
d="M42 107l303 196l-303 203v110l415 -278v-7l-415 -266v42z" />
    <glyph glyph-name="question" unicode="?" horiz-adv-x="403" 
d="M175 110q26 0 43 -17t17 -43q0 -25 -17.5 -42.5t-42.5 -17.5t-42.5 17.5t-17.5 43.5q0 24 17.5 41.5t42.5 17.5zM160 188q0 33 2.5 56.5t9.5 45t19.5 43.5t33.5 52q27 41 38 69t11 60q0 57 -27.5 91t-72.5 34q-15 0 -29 -5t-25.5 -13t-18 -18t-6.5 -21q0 -7 3.5 -11.5
t15.5 -12.5q26 -19 26 -46q0 -21 -15.5 -36t-37.5 -15q-26 0 -43 21.5t-17 55.5q0 30 12.5 55t35 44t52.5 29.5t66 10.5q38 0 69.5 -12t54 -34t35 -52.5t12.5 -67.5q0 -22 -4 -40.5t-14.5 -36.5t-28 -38t-44.5 -45q-23 -20 -37 -37t-23 -35.5t-13 -40t-5 -50.5h-35z" />
    <glyph glyph-name="at" unicode="@" horiz-adv-x="747" 
d="M560 491q-13 -36 -27 -80.5t-25.5 -86.5t-19 -75.5t-7.5 -45.5q0 -22 21 -22t49.5 17.5t49.5 43.5q54 66 54 160q0 54 -19 100t-53 79t-81 51.5t-103 18.5q-123 0 -202 -91q-43 -49 -65.5 -112t-22.5 -133q0 -67 21.5 -122.5t60.5 -95t93.5 -61.5t120.5 -22q45 0 88 9.5
t88 28.5l12 -28q-28 -12 -52 -20t-47 -13t-46 -7t-50 -2q-134 0 -228 70q-66 48 -99.5 116t-33.5 153q0 79 27 146t75 115t115 75t147 27q133 0 220 -80q44 -41 68 -93.5t24 -107.5q0 -60 -27 -115t-75 -92q-29 -23 -61.5 -36t-61.5 -13q-27 0 -42.5 15t-15.5 41
q0 2 0.5 7.5t1.5 10.5q-26 -39 -52.5 -57t-59.5 -18q-41 0 -67.5 33t-26.5 84q0 46 14 89t38 76.5t54.5 53.5t63.5 20q72 0 85 -77l17 66h62zM409 465q-43 0 -77 -63q-17 -31 -28 -75t-11 -79q0 -32 12.5 -50t35.5 -18q21 0 41 17t36.5 46.5t28 68t14.5 80.5q2 31 -13 52
t-39 21z" />
    <glyph glyph-name="A" unicode="A" horiz-adv-x="653" 
d="M181 213l-13 -33q-11 -29 -16 -48t-5 -32q0 -17 9.5 -32t24.5 -20q10 -5 20 -6.5t33 -3.5v-38h-237v38q22 2 38 8.5t29 21.5t25.5 41t27.5 67l191 503h41l216 -580q6 -17 10.5 -27t8.5 -15.5t8.5 -8.5t12.5 -5t18 -2.5t33 -2.5v-38h-269v38q52 1 69 5.5t17 17.5
q0 5 -1.5 9.5t-6.5 18.5l-46 124h-238zM300 536l-103 -281h206z" />
    <glyph glyph-name="B" unicode="B" horiz-adv-x="630" 
d="M295 667q33 0 59 -1.5t46.5 -4.5t37.5 -8.5t33 -12.5q40 -19 64.5 -56t24.5 -79q0 -32 -12.5 -59t-34 -48t-52 -33.5t-65.5 -15.5q17 -3 30.5 -5.5t24.5 -5t20.5 -5.5t19.5 -7q46 -18 74 -59.5t28 -90.5q0 -46 -24 -83.5t-66 -60.5q-33 -17 -72.5 -24.5t-97.5 -7.5h-304
v38l24 1q33 2 45.5 3t18.5 4q7 3 8.5 10.5t1.5 38.5v478q0 16 -0.5 25.5t-2 14.5t-4.5 6.5t-8 3.5q-6 2 -18 3t-41 2l-24 2v37h266zM222 323v-245q0 -9 0.5 -14t1 -7t1.5 -4q2 -4 5.5 -6.5t11 -4t21 -2t34.5 -0.5q61 0 92.5 5t50.5 19q45 33 45 116q0 42 -14 72.5t-40 46.5
q-12 7 -25 11.5t-29.5 7.5t-39 4t-54.5 1h-61zM291 365q43 0 67.5 4t44.5 13q53 27 53 113q0 71 -31 101t-105 30h-50q-35 0 -42 -6q-2 -2 -3 -4t-1.5 -7.5t-1 -15.5t-0.5 -28v-200h69z" />
    <glyph glyph-name="C" unicode="C" horiz-adv-x="618" 
d="M560 410l-35 -4q-13 53 -23.5 83t-25.5 56q-55 97 -147 97q-85 0 -129.5 -82t-44.5 -239q0 -291 188 -291q98 0 152 89q13 22 22.5 48t20.5 70l37 -8q-7 -33 -14.5 -59t-16.5 -46t-19.5 -36.5t-24.5 -31.5q-66 -71 -169 -71q-62 0 -115 25.5t-91.5 71t-60.5 107.5
t-22 134q0 69 22.5 136t63.5 121q38 49 89 75.5t108 26.5q50 0 88 -17t73 -54l33 64h29z" />
    <glyph glyph-name="D" unicode="D" horiz-adv-x="669" 
d="M283 667q42 0 73.5 -2t56 -7.5t45 -14.5t41.5 -23q61 -40 94.5 -115.5t33.5 -172.5q0 -155 -86 -247q-23 -24 -47 -40.5t-54 -26t-68 -14t-88 -4.5h-255v37l24 2q33 2 45.5 3t18.5 4q7 3 8.5 10.5t1.5 38.5v477q0 17 -0.5 26.5t-2 14.5t-4.5 6.5t-8 3.5q-6 2 -17 2.5
t-42 2.5l-24 1v38h254zM310 42q66 0 103.5 19t63.5 65q10 18 17 39t11.5 47t6.5 58.5t2 73.5q0 93 -13.5 146t-45.5 86q-26 26 -61.5 37.5t-90.5 11.5h-42q-27 0 -33 -5.5t-6 -30.5v-505q0 -14 1 -22.5t5.5 -13t13 -5.5t22.5 -1h46z" />
    <glyph glyph-name="E" unicode="E" horiz-adv-x="626" 
d="M555 432l-31 -3q-10 57 -24 94.5t-36.5 60t-54.5 31.5t-78 9h-64q-16 0 -25 -1t-13.5 -4.5t-5.5 -11.5t-1 -22v-221q40 -1 67 4.5t44.5 20t26.5 40.5t13 65h35v-306h-35q-2 40 -9.5 66.5t-25 42.5t-46 22.5t-70.5 6.5v-245q0 -14 1 -21.5t5 -11.5t12 -5t22 -1h82
q33 0 57 3.5t42 12t31.5 22t25.5 34.5q12 23 22 53t22 85l31 -3l-9 -249h-537v38l24 1q18 1 28.5 1.5t17.5 1t11 1.5t7 3q7 3 8.5 10.5t1.5 38.5v477q0 17 -0.5 26.5t-2 14.5t-4.5 6.5t-8 3.5q-6 2 -18 3t-41 2l-24 1v38h515z" />
    <glyph glyph-name="F" unicode="F" horiz-adv-x="578" 
d="M554 432l-31 -3q-11 55 -25.5 92.5t-36 60t-51 32t-71.5 9.5h-71q-16 0 -25.5 -1t-14 -5.5t-5.5 -14t-1 -25.5v-213q40 -1 67 4.5t44 20t25.5 40t12.5 64.5h34v-305h-34q-2 40 -10 66.5t-25 42t-45 22t-69 6.5v-230q0 -17 0.5 -26.5t2 -14.5t4.5 -7t8 -3q5 -2 22 -3.5
t36 -1.5l38 -2v-37h-304v37l24 2q34 2 46 3t18 4q7 3 8.5 10.5t1.5 38.5v477q0 17 -0.5 26.5t-2 14.5t-4.5 6.5t-8 3.5q-6 2 -18 2.5t-41 2.5l-24 1v38h515z" />
    <glyph glyph-name="G" unicode="G" horiz-adv-x="687" 
d="M576 421l-32 -2q-60 223 -207 223q-89 0 -135.5 -87t-46.5 -252q0 -139 46 -209t137 -70q74 0 114.5 45t40.5 126v24q0 16 -2 25.5t-8 14.5t-18.5 7t-33.5 2l-40 1v38h276v-38l-29 -1q-22 0 -34 -1.5t-17.5 -6t-6.5 -14.5t-1 -28v-93q0 -29 2 -64.5t4 -63.5h-36l-32 96
q-51 -108 -186 -108q-64 0 -117 24.5t-91.5 68t-59.5 104.5t-21 135q0 76 23.5 142.5t64 116t95 78t116.5 28.5q52 0 89.5 -16.5t68.5 -52.5l37 63h31z" />
    <glyph glyph-name="H" unicode="H" horiz-adv-x="723" 
d="M222 323v-229q0 -16 0.5 -25.5t2 -14.5t4.5 -7t8 -3q6 -2 19 -3t39 -2l25 -2v-37h-291v37l24 2q33 2 45.5 3t18.5 4q7 3 8.5 10.5t1.5 37.5v479q0 16 -0.5 25.5t-2 14.5t-4.5 6.5t-8 3.5q-6 2 -18 3t-41 2l-24 2v37h290v-37l-24 -2q-33 -2 -45 -3t-18 -4
q-7 -3 -8.5 -10.5t-1.5 -37.5v-202h279v202q0 16 -0.5 25.5t-2 14.5t-4.5 6.5t-8 3.5q-6 2 -18 3t-40 2l-24 2v37h290v-37l-24 -2q-33 -2 -45.5 -3t-18.5 -4q-7 -3 -8.5 -10.5t-1.5 -37.5v-479q0 -17 0.5 -26t2 -14t4.5 -7t8 -3q6 -2 18 -3t41 -2l24 -2v-37h-291v37l25 2
q37 1 49.5 3t17.5 7q4 4 5 11.5t1 33.5v229h-279z" />
    <glyph glyph-name="I" unicode="I" horiz-adv-x="349" 
d="M29 37l24 2q33 2 45.5 3t18.5 4q7 3 8.5 10.5t1.5 38.5v477q0 17 -0.5 26.5t-2 14.5t-4.5 6.5t-8 3.5q-6 2 -18 3t-41 2l-24 2v37h291v-37l-24 -2q-33 -2 -45.5 -3t-18.5 -4q-7 -3 -8.5 -10.5t-1.5 -38.5v-477q0 -17 0.5 -26.5t2 -14.5t4.5 -7t8 -3q6 -2 18 -3t41 -2
l24 -2v-37h-291v37z" />
    <glyph glyph-name="J" unicode="J" horiz-adv-x="483" 
d="M179 667h285v-37l-15 -1l-28 -2q-16 -1 -25 -2.5t-13.5 -6.5t-5.5 -16t-1 -30v-335q0 -36 -1.5 -61t-4.5 -43.5t-8.5 -33t-14.5 -29.5q-25 -41 -70.5 -63t-104.5 -22q-39 0 -70.5 11t-54 31.5t-35 49t-12.5 63.5q0 50 25.5 83.5t63.5 33.5q29 0 47.5 -19t18.5 -48
q0 -26 -15.5 -44.5t-38.5 -18.5q-5 0 -9.5 1t-15.5 4q-3 1 -9 1q-16 0 -16 -22q0 -37 31 -62t77 -25q42 0 70.5 22t40.5 66q6 21 8.5 48.5t2.5 76.5v337q0 16 -0.5 23.5t-1 10t-1.5 5.5q-2 8 -15.5 10.5t-55.5 4.5l-28 2v37z" />
    <glyph glyph-name="K" unicode="K" horiz-adv-x="699" 
d="M578 104q13 -20 20.5 -30.5t13 -16.5t10.5 -8t14 -5q10 -2 21 -3.5t36 -3.5v-37h-293v37l36 1q35 2 43.5 5t8.5 15q0 8 -12 27l-163 252l-91 -104v-138q0 -17 0.5 -26.5t2 -14.5t4.5 -7t8 -3q6 -2 16 -2.5t42 -2.5l22 -2v-37h-288v37l24 2q33 2 45.5 3t18.5 4
q7 3 8.5 10.5t1.5 38.5v477q0 17 -0.5 26.5t-2 14.5t-4.5 6.5t-8 3.5q-6 2 -18 3t-41 2l-24 2v37h288v-37l-22 -2q-18 -1 -29 -1.5t-17.5 -1.5t-10 -2t-6.5 -2q-7 -3 -8.5 -10.5t-1.5 -38.5v-279l230 263q13 14 18 23t5 17q0 17 -17.5 24.5t-57.5 9.5v37h252v-37
q-27 -2 -47.5 -7.5t-40.5 -19t-43 -36.5t-55 -60l-86 -96z" />
    <glyph glyph-name="L" unicode="L" horiz-adv-x="591" 
d="M556 0h-527v37l24 1q33 2 45.5 3.5t18.5 4.5q7 3 8.5 10.5t1.5 37.5v478q0 17 -0.5 26.5t-2 14.5t-4.5 6.5t-8 3.5q-6 2 -18 3t-41 2l-24 2v37h301v-37l-35 -2q-32 -1 -44 -2.5t-19 -4.5t-8.5 -11t-1.5 -38v-480q0 -19 1 -29.5t5.5 -15.5t14.5 -6t28 -1h64q31 0 53.5 3
t39 10t29.5 19t25 30q8 12 15 26t13 31.5t11.5 40t11.5 51.5l31 -3z" />
    <glyph glyph-name="M" unicode="M" horiz-adv-x="826" 
d="M797 667v-37l-24 -2q-33 -2 -45 -3t-18 -4q-7 -3 -8.5 -10.5t-1.5 -38.5v-477q0 -17 0.5 -26.5t2 -14.5t4.5 -7t8 -3q6 -2 18 -3t40 -2l24 -2v-37h-286v37l20 2q19 1 30 1.5t17.5 1t10 1.5t6.5 3q7 3 8.5 10.5t1.5 38.5v527l-198 -622h-34l-205 624v-446q0 -30 1 -49.5
t4.5 -32.5t10 -21.5t16.5 -16.5q12 -9 27.5 -13.5t44.5 -7.5v-37h-254v37q34 4 54.5 11.5t31.5 24t15 44.5t4 74v381q0 33 -2.5 40.5t-12.5 10.5q-5 2 -21 3t-37 2l-32 2v37h228l169 -516l161 516h221z" />
    <glyph glyph-name="N" unicode="N" horiz-adv-x="695" 
d="M672 630q-17 -2 -28.5 -3.5t-19 -3.5t-12.5 -5.5t-9 -8.5q-12 -13 -17 -35t-5 -64v-518h-35l-379 556v-371q0 -40 5 -66.5t17.5 -42t34.5 -22.5t56 -9v-37h-264v37q36 4 57 11t32 22.5t14.5 43t3.5 73.5v392q0 19 -20 34q-12 8 -25 10.5t-44 4.5l-18 2v37h186l335 -493
v335q0 36 -4 58.5t-14.5 36t-29.5 19t-50 7.5v37h233v-37z" />
    <glyph glyph-name="O" unicode="O" horiz-adv-x="673" 
d="M337 682q57 0 103.5 -21t89.5 -66q101 -106 101 -266q0 -71 -24.5 -136t-70.5 -116q-83 -92 -199 -92q-103 0 -184 77q-111 106 -111 268q0 74 23 138t62.5 111.5t93.5 75t116 27.5zM336 642q-181 0 -181 -300q0 -318 182 -318q88 0 134.5 76t46.5 222q0 163 -44.5 241.5
t-137.5 78.5z" />
    <glyph glyph-name="P" unicode="P" horiz-adv-x="594" 
d="M222 94q0 -17 0.5 -26t2 -14t4.5 -7t8 -3q5 -2 22 -3.5t36 -2.5l39 -1v-37h-305v37l24 1q34 2 46 3.5t18 4.5q7 3 8.5 10.5t1.5 37.5v478q0 17 -0.5 26.5t-2 14.5t-4.5 6.5t-8 3.5q-6 2 -18 2.5t-41 2.5l-24 1v38h267q36 0 64.5 -2t52 -7t43 -13t37.5 -20q77 -49 77 -141
q0 -47 -21 -86t-58 -62q-17 -11 -36 -18.5t-41.5 -12t-50.5 -6.5t-64 -2h-77v-203zM289 337q51 0 84.5 7t53 24t27.5 45.5t8 72.5q0 75 -33 107.5t-110 32.5h-61q-23 0 -29.5 -8.5t-6.5 -38.5v-242h67z" />
    <glyph glyph-name="Q" unicode="Q" horiz-adv-x="676" 
d="M644 -32q-3 -32 -7.5 -51t-15.5 -38q-13 -25 -37.5 -40t-52.5 -15q-38 0 -63 24.5t-35 70.5q-3 14 -4.5 30.5t-2.5 52.5q-27 -10 -45 -13.5t-43 -3.5q-54 0 -98.5 19t-86.5 59q-54 52 -82.5 121t-28.5 147q0 72 24.5 138.5t69.5 118.5q82 94 203 94q106 0 188 -83
q52 -52 79.5 -120.5t27.5 -143.5q0 -88 -33.5 -162.5t-99.5 -131.5l6 -16l18 -50q16 -44 27 -61.5t22 -17.5q12 0 20 13t13 43l3 20zM477 81q12 35 20.5 65t14 58.5t7.5 58t2 62.5q0 317 -185 317q-181 0 -181 -304q0 -47 3.5 -85t11.5 -70.5t20.5 -62t31.5 -59.5
q-8 20 -10.5 33t-2.5 27q0 54 33.5 87.5t87.5 33.5q59 0 96 -40.5t51 -120.5zM423 43q0 161 -92 161q-38 0 -62.5 -25.5t-24.5 -66.5q0 -88 95 -88q24 0 42.5 4t41.5 15z" />
    <glyph glyph-name="R" unicode="R" horiz-adv-x="650" 
d="M302 667q64 0 104.5 -7.5t73.5 -24.5q38 -20 58.5 -55t20.5 -79q0 -94 -89 -140q-13 -6 -25 -10.5t-25.5 -7.5t-29.5 -4.5t-37 -2.5q38 -8 61.5 -17.5t40.5 -31.5t30.5 -59.5t30.5 -100.5q12 -42 21.5 -57.5t20.5 -15.5q15 0 22.5 20t14.5 74l32 -3q-1 -18 -2.5 -30.5
t-3 -22.5t-3.5 -18.5t-5 -17.5q-21 -66 -91 -66q-26 0 -47 11.5t-34 31.5q-12 20 -18.5 46.5t-11.5 76.5q-3 31 -6.5 53t-8 37t-10.5 25.5t-15 19.5q-18 20 -43.5 27t-74.5 7h-34v-231q0 -16 0.5 -25t2 -14t4.5 -7.5t8 -3.5q3 -1 6 -1.5t9 -1t16 -1t28 -1.5l28 -2v-37h-295
v37l24 2q20 1 31.5 1.5t17.5 1t9 1.5t6 3q7 4 8.5 11.5t1.5 36.5v478q0 17 -0.5 26.5t-2 14.5t-4.5 6.5t-8 3.5q-6 2 -18 3t-41 3l-24 1v37h276zM287 367q52 0 79 4.5t44 15.5q44 29 44 119q0 33 -7 56t-23.5 37.5t-43 20.5t-65.5 6h-54q-15 0 -23.5 -1t-12.5 -4.5t-5 -11
t-1 -20.5v-222h68z" />
    <glyph glyph-name="S" unicode="S" horiz-adv-x="575" 
d="M486 431l-30 -3q-8 29 -15.5 51t-16 40t-17.5 32.5t-21 27.5q-56 63 -130 63q-27 0 -50 -8.5t-39.5 -23.5t-26 -36t-9.5 -45q0 -68 71 -98q9 -4 15.5 -6.5t17 -5.5t28.5 -7t49 -11q109 -25 158.5 -73.5t49.5 -131.5q0 -47 -15.5 -86t-44 -66.5t-68 -43t-87.5 -15.5
q-55 0 -97 18t-83 58l-42 -62h-32v255l30 3q8 -31 16 -54t16.5 -41.5t18.5 -33.5t22 -29q34 -38 71 -56.5t83 -18.5q31 0 57 9t44.5 25.5t29 39t10.5 49.5q0 29 -13 53t-36 39q-19 11 -42.5 20t-67.5 21q-43 12 -69 19.5t-43 14t-27.5 12.5t-22.5 15q-66 51 -66 140
q0 44 14.5 81t40.5 63.5t62 41.5t78 15q45 0 81.5 -15t79.5 -51l38 54h30v-239z" />
    <glyph glyph-name="T" unicode="T" horiz-adv-x="574" 
d="M560 417l-34 -3q-6 38 -12 65t-13 47t-15.5 34.5t-20.5 27.5q-39 44 -102 44q-19 0 -24 -8.5t-5 -38.5v-490q0 -17 0.5 -26t2 -14.5t4.5 -7.5t8 -3q14 -3 58 -5l32 -2v-37h-305v37l32 2q53 1 63 7q7 3 8.5 10.5t1.5 38.5v490q0 30 -5 38.5t-24 8.5q-73 0 -113 -58
q-9 -13 -15.5 -27t-12.5 -32t-11 -42.5t-11 -58.5l-34 3l11 250h525z" />
    <glyph glyph-name="U" unicode="U" horiz-adv-x="689" 
d="M679 630q-30 -3 -49 -9t-29 -18.5t-13.5 -33t-3.5 -53.5v-229q0 -49 -2.5 -84.5t-8.5 -62t-16 -47t-25 -38.5q-60 -73 -188 -73q-73 0 -125 24t-81 70q-9 14 -14.5 30.5t-9.5 37.5t-5.5 48.5t-1.5 64.5v315q0 17 -0.5 26.5t-2 14.5t-4.5 6.5t-8 3.5q-6 2 -17.5 3t-41.5 2
l-23 2v37h289v-37l-23 -2q-17 -1 -28 -1.5t-18 -1.5t-11 -2t-7 -2q-7 -3 -8.5 -10.5t-1.5 -38.5v-318q0 -35 1.5 -60t5.5 -44t11 -33.5t17 -28.5q20 -28 53 -42.5t75 -14.5q51 0 88.5 21t57.5 59q8 15 13 31t8 35.5t4.5 46t1.5 62.5v232q0 32 -4.5 52.5t-16 33t-32 18
t-52.5 8.5v37h246v-37z" />
    <glyph glyph-name="V" unicode="V" horiz-adv-x="636" 
d="M305 -15l-210 565q-9 25 -16 40t-14 23t-16.5 11t-24.5 4l-27 2v37h269v-37l-33 -2l-21 -2q-7 0 -11 -0.5t-6 -1t-5 -1.5q-10 -5 -10 -17q0 -5 2 -12.5t7 -21.5l162 -431l135 377q14 41 14 58q0 37 -42 49q-8 2 -17.5 2.5t-29.5 2.5v37h229v-37q-21 -2 -35.5 -8
t-26.5 -19.5t-23 -36t-24 -58.5l-187 -523h-39z" />
    <glyph glyph-name="W" unicode="W" horiz-adv-x="952" 
d="M328 -16h-40l-190 582q-7 22 -11.5 33.5t-11 17.5t-16.5 7.5t-28 3.5l-22 2v37h268v-37l-26 -1q-37 0 -49 -5.5t-12 -21.5q0 -5 2 -12.5t7 -24.5l136 -412l120 386l-11 32q-7 19 -12 30t-12.5 16.5t-19 7.5t-31.5 3l-21 2v37h270v-37q-27 -1 -43 -2t-24.5 -3.5t-11 -7.5
t-2.5 -12q0 -8 2 -16t8 -27l133 -404l106 351q8 26 10.5 38t2.5 23q0 39 -34 51q-11 4 -21.5 5.5t-34.5 3.5v37h234v-37q-24 -3 -40.5 -10t-28.5 -22t-22 -40.5t-22 -66.5l-155 -507h-38l-158 492z" />
    <glyph glyph-name="X" unicode="X" horiz-adv-x="635" 
d="M535 87q12 -17 19.5 -26t17.5 -14t24.5 -7t38.5 -3v-37h-281v37q21 1 33 1.5t18 1t9 1t6 1.5q14 3 14 19q0 5 -2.5 10.5t-16.5 25.5l-121 186l-89 -134q-15 -23 -21.5 -38t-6.5 -28q0 -23 16.5 -33.5t58.5 -12.5v-37h-252v37q24 1 44.5 9t40 24t40.5 42t45 65l96 150
l-157 242q-13 20 -21.5 31t-16.5 17t-18.5 8t-26.5 3l-19 2v37h272v-37h-35q-42 0 -42 -18q0 -10 14 -32l111 -173l87 135q12 20 16 29.5t4 17.5q0 23 -23 31q-10 4 -19 5.5t-35 4.5v37h243v-37q-26 -2 -43.5 -6.5t-32.5 -15.5t-30 -30t-35 -49l-105 -162z" />
    <glyph glyph-name="Y" unicode="Y" horiz-adv-x="626" 
d="M376 95q0 -17 0.5 -26.5t2 -14.5t4.5 -7t8 -3q6 -2 22 -3t37 -2l32 -2v-37h-305v37l30 2q29 1 43.5 2.5t20.5 4.5q7 4 8.5 11.5t1.5 37.5v170l-186 311q-11 18 -18 28t-16 15.5t-23 7t-38 3.5v37h280v-37h-38q-29 0 -39.5 -4t-10.5 -16q0 -13 13 -33l147 -245l105 204
q8 16 11.5 26.5t3.5 20.5q0 11 -6.5 21.5t-17.5 15.5t-22.5 6.5t-39.5 3.5v37h240v-37q-22 -1 -37.5 -6t-29.5 -16.5t-27.5 -32t-30.5 -53.5l-125 -243v-184z" />
    <glyph glyph-name="Z" unicode="Z" horiz-adv-x="565" 
d="M517 0h-470v34l356 593h-90q-38 0 -65 -4t-47 -13t-34.5 -24t-26.5 -38q-10 -20 -18 -45t-16 -68l-33 2l11 230h433v-34l-355 -591h88q41 0 70.5 2.5t50.5 9t35.5 17t26.5 27.5q19 27 33 62.5t27 94.5l32 -1z" />
    <glyph glyph-name="bracketleft" unicode="[" horiz-adv-x="312" 
d="M276 626h-108v-697h108v-42h-199v780h199v-41z" />
    <glyph glyph-name="backslash" unicode="\" horiz-adv-x="456" 
d="M71 667l365 -667h-51l-365 667h51z" />
    <glyph glyph-name="bracketright" unicode="]" horiz-adv-x="312" 
d="M36 -72h108v697h-108v42h199v-780h-199v41z" />
    <glyph glyph-name="asciicircum" unicode="^" 
d="M484 285l-196 303l-203 -303h-110l278 415h7l266 -415h-42z" />
    <glyph glyph-name="underscore" unicode="_" 
d="M500 -74v-43h-500v43h500z" />
    <glyph glyph-name="grave" unicode="`" 
d="M286 503l-97 51q-33 17 -45.5 29t-12.5 27t10 25.5t24 10.5q6 0 10 -1t10 -5.5t15 -13t24 -23.5l78 -80z" />
    <glyph glyph-name="a" unicode="a" horiz-adv-x="473" 
d="M468 42q-15 -23 -32.5 -33t-42.5 -10q-35 0 -56.5 21.5t-25.5 59.5q-47 -90 -148 -90q-57 0 -91 28.5t-34 76.5q0 66 67 109.5t200 63.5q0 21 -1 36.5t-2.5 26.5t-4 20t-6.5 17q-18 35 -73 35q-29 0 -52 -10.5t-23 -24.5q0 -5 1.5 -9t9.5 -12q11 -14 11 -29
q0 -22 -14.5 -36.5t-36.5 -14.5q-23 0 -38 16t-15 42q0 24 13.5 45t37.5 36.5t56 24.5t69 9q38 0 68 -9.5t48 -26.5q9 -9 15 -18t9.5 -21.5t4.5 -30.5t1 -45v-158q0 -19 0.5 -31t1 -19.5t2.5 -12t5 -8.5q9 -11 21 -11q8 0 14.5 4t17.5 13zM305 232q-47 -8 -80.5 -18.5
t-54.5 -25.5t-30.5 -35t-9.5 -47q0 -33 16.5 -51t46.5 -18q38 0 66 24t38 64q3 14 5.5 45.5t2.5 61.5z" />
    <glyph glyph-name="b" unicode="b" horiz-adv-x="496" 
d="M157 358q40 80 126 80q39 0 71 -16t55 -44.5t36 -68.5t13 -88q0 -52 -13.5 -95t-38.5 -74t-59 -48t-76 -17q-48 0 -80 19.5t-57 64.5l-38 -80h-26q3 24 4.5 44.5t2 44.5t1 54t0.5 73v363q0 21 -2 33.5t-9 19.5t-19.5 9t-33.5 2h-19v34l20 1l56 1q5 0 11 0.5t15 1t23 1
t37 2.5v-317zM264 391q-24 0 -47 -13t-37 -34t-20 -50.5t-6 -74.5q0 -94 28.5 -142.5t83.5 -48.5q51 0 76.5 45.5t25.5 133.5q0 91 -26.5 137.5t-77.5 46.5z" />
    <glyph glyph-name="c" unicode="c" horiz-adv-x="421" 
d="M401 124q-11 -32 -20 -50t-23 -34q-22 -23 -54 -36.5t-69 -13.5q-43 0 -79 16t-62.5 45t-41 69t-14.5 87q0 50 15.5 92.5t43 73t65.5 48t83 17.5q30 0 55.5 -8.5t44.5 -23t29.5 -34.5t10.5 -43q0 -26 -15.5 -44t-38.5 -18q-20 0 -35 15t-15 35q0 6 0.5 9.5t2 7.5t4.5 9
t9 13q5 5 5 13q0 14 -17.5 23.5t-42.5 9.5q-53 0 -82.5 -46t-29.5 -130q0 -91 32 -140t91 -49q26 0 49 11t37 31q8 11 14 22.5t17 35.5z" />
    <glyph glyph-name="d" unicode="d" horiz-adv-x="513" 
d="M423 97q0 -21 2 -33.5t9 -19.5t20 -9t34 -2h12v-33l-20 -1l-48 -1q-26 -1 -41 -2t-39 -3q-2 7 -3 12.5t-2 13t-2 19t-2 31.5v11q-40 -93 -134 -93q-37 0 -68.5 16t-54.5 44.5t-36 67t-13 83.5q0 50 14.5 93.5t40 76t59.5 51.5t73 19q40 0 68.5 -19t51.5 -61v221
q0 16 -1 24.5t-3 11.5t-5 7q-6 7 -18.5 10t-35.5 3h-20v34q38 0 61.5 0.5t40 1.5t29.5 1.5t31 2.5v-578zM238 391q-51 0 -81 -50t-30 -135t26 -128.5t77 -43.5q54 0 84.5 47.5t30.5 132.5q0 84 -28 130.5t-79 46.5z" />
    <glyph glyph-name="e" unicode="e" horiz-adv-x="448" 
d="M129 208q0 -85 30.5 -129.5t90.5 -44.5q45 0 75 23t58 79l32 -17q-34 -71 -74.5 -101.5t-103.5 -30.5q-44 0 -81 16t-63 44.5t-40.5 69t-14.5 88.5q0 49 15.5 92t42 74.5t62.5 50t77 18.5q81 0 128 -61t52 -171h-286zM268 246q18 0 29 1t16.5 5t7 11.5t1.5 20.5
q0 55 -23.5 87t-64.5 32q-46 0 -73 -40t-32 -117h139z" />
    <glyph glyph-name="f" unicode="f" horiz-adv-x="320" 
d="M186 135q0 -32 0.5 -49.5t1 -26.5t2 -11.5t3.5 -4.5q4 -4 19.5 -6t39.5 -2h20v-35h-244v35h13q56 0 62 11q1 3 2 5.5t1.5 11t0.5 24.5v298h-88v40h88v15q0 56 7.5 92t26.5 68q22 37 53 56.5t69 19.5q44 0 72.5 -25t28.5 -63q0 -27 -14 -44t-36 -17q-19 0 -32 13.5
t-13 33.5q0 12 3 18.5t16 20.5q5 5 5 11q0 8 -8.5 13t-20.5 5q-30 0 -48 -26q-9 -12 -15 -25.5t-9 -32.5t-4.5 -45.5t-1.5 -64.5v-23h105v-40h-105v-250z" />
    <glyph glyph-name="g" unicode="g" horiz-adv-x="482" 
d="M367 372q18 -23 25 -41t7 -42q0 -32 -12.5 -59t-35.5 -46t-55 -29.5t-71 -10.5h-15q-9 0 -18 1q-8 1 -16 1h-13q-58 0 -58 -37q0 -22 23 -29q10 -2 23 -3t46 -1l72 1q49 0 76.5 -6.5t47.5 -23.5q34 -28 34 -81q0 -69 -58 -107.5t-161 -38.5q-87 0 -137 25t-50 69
q0 34 27.5 57.5t75.5 30.5q-81 16 -81 79q0 77 95 92q-42 17 -61.5 44t-19.5 70q0 32 13 59.5t35.5 47.5t53.5 31.5t67 11.5q35 0 62.5 -9.5t56.5 -31.5q17 15 29.5 24t22.5 14.5t19.5 7.5t20.5 2q23 0 38.5 -14.5t15.5 -36.5q0 -20 -13.5 -33.5t-32.5 -13.5
q-16 0 -23.5 7.5t-15.5 29.5q-1 7 -10 7q-5 0 -18 -9zM230 404q-40 0 -62.5 -30.5t-22.5 -84.5q0 -52 23 -82.5t61 -30.5t61 31.5t23 85.5t-21.5 82.5t-61.5 28.5zM212 -9q-33 0 -49 -2.5t-30 -10.5t-23 -23.5t-9 -32.5q0 -66 118 -66q66 0 103.5 19.5t37.5 54.5
q0 45 -54 56q-13 3 -33.5 4t-60.5 1z" />
    <glyph glyph-name="h" unicode="h" horiz-adv-x="528" 
d="M169 340q26 49 58.5 71.5t80.5 22.5q34 0 61.5 -14.5t44.5 -40.5q7 -12 12 -23t7.5 -26t3.5 -36t1 -52v-107q0 -32 0.5 -49t1 -25.5t1 -11t2.5 -4.5q8 -10 61 -10h10v-35h-227v35h8q54 0 60 11q1 3 1.5 5.5t1 11t1 25t0.5 47.5v87q0 22 -0.5 37.5t-1.5 27t-3 20t-5 17.5
q-8 24 -28 38t-47 14q-47 0 -77 -41q-16 -22 -22 -49.5t-6 -77.5v-73q0 -32 0.5 -49.5t1 -26.5t2 -11.5t3.5 -4.5q4 -4 19.5 -6t39.5 -2h8v-35h-227v35h9q50 0 58 8q2 2 3.5 4.5t2 11.5t1 26.5t0.5 49.5v397q0 30 -0.5 46.5t-1.5 24.5t-2.5 11.5t-4.5 6.5q-12 13 -55 13h-19
v34h16l68 2q14 1 30.5 2t47.5 3v-335z" />
    <glyph glyph-name="i" unicode="i" horiz-adv-x="275" 
d="M140 670q23 0 39 -16t16 -40q0 -23 -16.5 -39t-39.5 -16t-39 16t-16 39t16.5 39.5t39.5 16.5zM186 135q0 -32 0.5 -49.5t1 -26.5t2 -11.5t3.5 -4.5q4 -4 19.5 -6t39.5 -2h13v-35h-236v35h13q50 0 58 8q2 2 3.5 4.5t2 11.5t1 26.5t0.5 49.5v153q0 30 -0.5 46.5t-1.5 24.5
t-2.5 11.5t-4.5 6.5q-12 13 -55 13h-20v34l19 1l62 2q29 0 82 6v-298z" />
    <glyph glyph-name="j" unicode="j" horiz-adv-x="242" 
d="M129 670q23 0 39 -16t16 -40q0 -23 -16.5 -39t-39.5 -16t-39 16t-16 39t16.5 39.5t39.5 16.5zM173 113q0 -49 -2 -83t-6.5 -59t-12.5 -44.5t-20 -39.5q-20 -32 -47 -49.5t-58 -17.5q-28 0 -45.5 16t-17.5 41q0 21 12.5 34.5t32.5 13.5q28 0 40 -36q4 -17 14 -17
q9 0 15 9.5t9.5 33t5 63.5t1.5 102v209q0 30 -0.5 46t-1.5 24.5t-2.5 11.5t-4.5 7q-12 13 -55 13h-18v34h17l62 2q26 1 42.5 2t39.5 3v-319z" />
    <glyph glyph-name="k" unicode="k" horiz-adv-x="496" 
d="M406 85q12 -17 19.5 -26.5t16 -14.5t19.5 -6.5t29 -2.5v-35h-218v35h26q19 0 26.5 3t7.5 10q0 5 -2 8.5t-15 22.5l-91 139l-55 -53v-77q0 -23 1 -32.5t5 -12.5q5 -4 15.5 -5.5t44.5 -2.5v-35h-221v35h10q24 0 39.5 2t19.5 6q2 2 3.5 4.5t2 11.5t1 26.5t0.5 49.5v397
q0 30 -0.5 46.5t-1.5 25t-2.5 11.5t-4.5 7q-12 13 -56 13h-17v33h18q28 0 68.5 2t74.5 4v-456l118 114q11 11 15.5 18t4.5 15q0 22 -44 25l-18 1v34h215v-34q-17 -2 -30.5 -5t-27 -10t-27.5 -18t-33 -27l-61 -59z" />
    <glyph glyph-name="l" unicode="l" horiz-adv-x="259" 
d="M169 135q0 -32 0.5 -49t1 -25.5t1 -11t2.5 -4.5q8 -10 60 -10h14v-35h-237v35h13q56 0 62 11q1 3 1.5 5.5t1 11t1 25t0.5 47.5v395q0 30 -0.5 46.5t-1.5 24.5t-2.5 11.5t-4.5 6.5q-12 13 -55 13h-20v34l83 2q24 1 40.5 2.5t39.5 3.5v-539z" />
    <glyph glyph-name="m" unicode="m" horiz-adv-x="797" 
d="M23 424q67 3 101.5 4.5t51.5 3.5q1 -9 1.5 -21t1 -24.5t1 -23t0.5 -14.5v-19q47 104 139 104q103 0 118 -108q44 108 143 108q39 0 68.5 -19.5t42.5 -53.5q9 -25 12.5 -54t3.5 -78v-94q0 -32 0.5 -49t1 -25.5t1.5 -11t3 -4.5q7 -10 61 -10h9v-35h-227v35h6q24 0 39.5 2
t19.5 6q2 2 3.5 4.5t2 11.5t1 26.5t0.5 49.5v94q0 39 -2.5 62.5t-9.5 40.5q-16 43 -65 43q-32 0 -58 -20t-37 -52q-3 -8 -5 -15.5t-2.5 -17.5t-1 -24.5t-0.5 -38.5v-72q0 -32 0.5 -49.5t1 -26.5t2 -11.5t3.5 -4.5q4 -4 19.5 -6t39.5 -2h8v-35h-226v35h8q50 0 58 8
q2 2 3.5 4.5t2 11.5t1 26.5t0.5 49.5v78q0 26 -0.5 43.5t-1.5 29.5t-3 21t-5 17q-18 51 -68 51t-77 -44t-27 -125v-71q0 -32 0.5 -49.5t1 -26.5t2 -11.5t3.5 -4.5q4 -4 19.5 -6t39.5 -2h10v-35h-231v35h11q50 0 58 8q2 2 3.5 4.5t2 11.5t1 26.5t0.5 49.5v200q0 16 -1 24.5
t-3 11.5t-5 7q-12 13 -55 13h-20v33z" />
    <glyph glyph-name="n" unicode="n" horiz-adv-x="545" 
d="M23 424q57 2 95 4t58 4q2 -23 2.5 -43t1.5 -49v-10q45 104 141 104q87 0 116 -69q11 -25 15 -54t4 -77v-99q0 -32 0.5 -49.5t1 -26.5t2 -11.5t3.5 -4.5q8 -8 59 -8h9v-35h-226v35h8q23 0 38 2t19 6q2 2 3.5 4.5t2 11.5t1 26.5t0.5 49.5v76q0 56 -3.5 84.5t-13.5 45.5
q-21 34 -66 34q-50 0 -81 -44q-15 -23 -21 -50.5t-6 -74.5v-71q0 -32 0.5 -49.5t1 -26.5t2 -11.5t3.5 -4.5q4 -4 19.5 -6t39.5 -2h8v-35h-229v35h10q51 0 59 8q2 2 3.5 4.5t2 11.5t1 26.5t0.5 49.5v153q0 30 -0.5 46.5t-1.5 25t-2.5 11.5t-4.5 7q-12 12 -55 12h-20v34z" />
    <glyph glyph-name="o" unicode="o" horiz-adv-x="484" 
d="M243 440q42 0 78.5 -18t64 -48.5t43.5 -72t16 -88.5q0 -45 -16.5 -85.5t-44 -71t-64.5 -48.5t-78 -18t-78 18t-65 49t-44.5 71.5t-16.5 85.5q0 46 16.5 87t44.5 72t65 49t79 18zM241 404q-52 0 -81.5 -50.5t-29.5 -140.5q0 -87 30 -136.5t82 -49.5t81.5 50t29.5 139
t-29.5 138.5t-82.5 49.5z" />
    <glyph glyph-name="p" unicode="p" horiz-adv-x="512" 
d="M15 426q18 0 34 0.5t32.5 1.5t36.5 2t46 3q1 -10 1.5 -18.5t0.5 -18.5v-55q18 47 52.5 72t81.5 25q37 0 69 -17t55 -46.5t36.5 -69.5t13.5 -87q0 -49 -14 -91.5t-38 -73.5t-57 -48.5t-71 -17.5q-41 0 -72 20.5t-49 58.5v-104q0 -32 0.5 -49.5t1 -26.5t2 -11.5t3.5 -4.5
q4 -4 19.5 -6t38.5 -2h15v-35h-233v35h8q24 0 39.5 2t19.5 6q2 2 3.5 4.5t2 11.5t1 26.5t0.5 49.5v328q0 30 -0.5 46.5t-1.5 25t-3 11.5t-5 7q-11 12 -55 12h-14v34zM282 391q-53 0 -83 -48t-30 -132q0 -81 30 -129t81 -48t78 47.5t27 135.5q0 85 -26 129.5t-77 44.5z" />
    <glyph glyph-name="q" unicode="q" horiz-adv-x="491" 
d="M430 432q-3 -41 -5 -64t-3 -40t-1 -34v-332q0 -32 0.5 -49t1 -25.5t1 -11t2.5 -4.5q7 -10 61 -10h6v-35h-230v35h13q56 0 62 11q1 3 1.5 5.5t1 11t1 25t0.5 47.5v104q-42 -79 -130 -79q-39 0 -71 15t-55 42.5t-35.5 66t-12.5 85.5q0 52 14 96t39.5 75.5t60.5 49t77 17.5
q94 0 140 -82l35 80h26zM236 397q-53 0 -81 -49.5t-28 -143.5q0 -83 26.5 -126.5t77.5 -43.5q114 0 114 172q0 98 -26.5 144.5t-82.5 46.5z" />
    <glyph glyph-name="r" unicode="r" horiz-adv-x="400" 
d="M171 432q1 -11 1.5 -19.5t1 -18t0.5 -20.5v-27l1 -51l1 -31q42 169 133 169q34 0 56 -21.5t22 -55.5q0 -29 -15.5 -47t-38.5 -18q-21 0 -35.5 14.5t-14.5 34.5q0 10 2.5 16t12.5 20q3 3 3 7q0 5 -7 5q-8 0 -21 -9t-21 -20q-31 -40 -48.5 -100t-17.5 -125v-47
q0 -20 1 -30.5t7.5 -15.5t20 -6t37.5 -1h24v-35h-248v35h13q51 0 59 8q2 2 3.5 4.5t2 11.5t1 26.5t0.5 49.5v154q0 30 -0.5 46.5t-1.5 24.5t-2.5 11.5t-4.5 6.5q-12 13 -55 13h-20v34h30q10 0 28 1l76 5z" />
    <glyph glyph-name="s" unicode="s" horiz-adv-x="413" 
d="M349 273h-28q-27 67 -59.5 98t-77.5 31q-31 0 -52 -17.5t-21 -43.5q0 -29 23 -46.5t74 -27.5q23 -5 39 -8.5t27.5 -7t21 -7.5t18.5 -9q29 -16 45 -45t16 -64q0 -30 -11 -55.5t-30 -44t-45.5 -29t-57.5 -10.5q-33 0 -60 11t-67 40l-27 -41h-30v178h30q20 -72 59.5 -109.5
t93.5 -37.5q37 0 61 20t24 50q0 41 -41 56q-8 3 -13.5 5t-13.5 4t-22 5t-39 8q-69 15 -101 47t-32 86q0 28 10 51.5t27.5 41t41.5 27t53 9.5t55 -9t57 -31l19 32h33v-157z" />
    <glyph glyph-name="t" unicode="t" horiz-adv-x="331" 
d="M170 425h135v-39h-135v-224q0 -23 0.5 -37.5t1.5 -24t3 -16.5t5 -13q5 -13 17.5 -20.5t26.5 -7.5q19 0 35.5 13.5t26.5 36.5q7 17 9.5 33t4.5 46h34q0 -23 -1 -40.5t-3.5 -31.5t-7 -25t-10.5 -22q-40 -67 -117 -67q-105 0 -105 115l1 59v226h-84v39q32 -1 54 8.5t37 31.5
t23 58t12 90h37v-188z" />
    <glyph glyph-name="u" unicode="u" horiz-adv-x="524" 
d="M434 136q0 -30 0.5 -46.5t1.5 -25t2.5 -11.5t4.5 -7q12 -12 55 -12h14v-34q-54 -2 -91.5 -3.5t-58.5 -3.5q-3 21 -4.5 42t-1.5 48q-29 -50 -60 -70.5t-75 -20.5q-38 0 -68 17.5t-44 49.5q-6 12 -9.5 24.5t-5.5 29t-3 38t-1 53.5v85q0 30 -0.5 46t-1.5 24.5t-3 11.5t-5 7
q-6 7 -19 10t-36 3h-10v34l25 1l48 1q14 1 24 1.5t18.5 1t17.5 1t21 1.5v-230q0 -27 0.5 -45t2 -30.5t5 -21.5t8.5 -18q9 -18 25.5 -27.5t37.5 -9.5q53 0 80 44.5t27 131.5v101q0 21 -2 33.5t-9 19.5t-19.5 9t-33.5 2h-15v34l20 1l61 2q12 0 31.5 1t45.5 3v-296z" />
    <glyph glyph-name="v" unicode="v" horiz-adv-x="464" 
d="M227 -14l-147 338q-6 13 -13 31q-9 21 -21 27.5t-43 8.5v34h208v-34q-21 -1 -33.5 -2t-19 -2.5t-8.5 -4.5t-2 -8q0 -13 11 -38l102 -234l75 199q10 29 12.5 36.5t2.5 15.5q0 18 -15 27t-48 11v34h173v-34q-16 -2 -26.5 -6t-19 -13t-16.5 -25.5t-19 -43.5l-125 -317h-28z
" />
    <glyph glyph-name="w" unicode="w" horiz-adv-x="670" 
d="M235 -13h-30l-125 345q-8 19 -13 30t-10.5 17t-13.5 7.5t-21 3.5l-15 2v33h202v-33l-15 -1q-29 -2 -36.5 -5t-7.5 -12q0 -3 1.5 -7.5t10.5 -27.5l79 -216l72 209l-9 23q-4 11 -7.5 17.5t-8.5 10t-12.5 5t-19.5 2.5l-15 2v33h200v-33l-20 -1q-37 -1 -36 -18
q0 -6 1.5 -10.5t9.5 -25.5l80 -221l66 193q6 17 8 26t2 17q0 18 -12.5 26.5t-43.5 13.5v33h168v-33q-17 -3 -28.5 -8t-20.5 -16t-17.5 -30t-19.5 -50l-108 -301h-29l-104 294z" />
    <glyph glyph-name="x" unicode="x" horiz-adv-x="474" 
d="M389 81q13 -16 21 -25t15.5 -13.5t17 -6t24.5 -1.5v-35h-216v35q38 1 47.5 3.5t9.5 10.5q0 5 -3 10.5t-11 16.5l-73 94l-60 -73q-6 -7 -10 -15.5t-4 -15.5q0 -16 12 -22.5t44 -8.5v-35h-196v35q16 1 29 5t25 12t25.5 21.5t30.5 34.5l78 97l-100 130q-13 18 -21 28
t-16.5 15.5t-19 7.5t-28.5 4v35h211v-35l-20 -2q-18 -1 -25 -4t-7 -10q0 -4 2.5 -8t13.5 -18l63 -85l56 70q11 15 13.5 19t2.5 11q0 21 -39 25l-16 2v35h180v-35q-15 -2 -26 -5.5t-21.5 -10t-20.5 -16.5t-23 -25l-81 -100z" />
    <glyph glyph-name="y" unicode="y" horiz-adv-x="472" 
d="M466 392q-18 -4 -29.5 -9t-20.5 -15.5t-17.5 -28.5t-19.5 -49l-80 -222q-14 -39 -25 -66.5t-21 -47.5t-20 -36t-23 -31q-54 -63 -118 -63q-35 0 -58 20t-23 50q0 23 14.5 38t35.5 15q43 0 44 -53q0 -21 16 -21q26 0 54 33.5t55 95.5l-153 336q-8 18 -13 28.5t-12 15.5
t-17 6.5t-28 3.5v33h209v-33l-26 -2q-23 -2 -30.5 -5t-7.5 -11q0 -5 2.5 -12.5t10.5 -24.5l106 -233l70 197q7 20 10 31.5t3 19.5q0 20 -13.5 28.5t-48.5 11.5v33h174v-33z" />
    <glyph glyph-name="z" unicode="z" horiz-adv-x="419" 
d="M383 394l-242 -356h81q43 0 63 7.5t34 27.5q13 17 21 39t13 54l30 -3l-5 -163h-339v29l243 357h-79q-29 0 -47.5 -4t-31 -16t-21 -35t-17.5 -60l-29 3l7 151h319v-31z" />
    <glyph glyph-name="braceleft" unicode="{" horiz-adv-x="312" 
d="M20 292q15 5 25.5 9.5t17.5 9.5t11.5 11t8.5 14q3 6 4.5 11.5t2 13.5t1 20.5t0.5 33.5v113q0 47 7.5 73t25.5 41q12 11 36.5 18t50.5 7h71v-31q-32 -2 -53 -7.5t-33.5 -19t-17.5 -35.5t-5 -55v-127q0 -24 -2.5 -40.5t-9.5 -29.5t-19.5 -23.5t-31.5 -21.5
q19 -11 31.5 -21.5t19.5 -23.5t9.5 -29.5t2.5 -40.5v-127q0 -32 4 -52.5t15 -34t29.5 -20.5t47.5 -10v-31h-58q-26 0 -50 7t-37 18q-18 15 -25.5 41t-7.5 73v113q0 24 -0.5 38.5t-2 24t-4.5 15.5t-8 13q-8 11 -19 17t-37 15v30z" />
    <glyph glyph-name="bar" unicode="|" 
d="M274 667v-834h-47v834h47z" />
    <glyph glyph-name="braceright" unicode="}" horiz-adv-x="312" 
d="M292 262q-15 -5 -25.5 -9.5t-17.5 -9.5t-11.5 -11t-8.5 -14q-3 -6 -4.5 -11.5t-2 -13.5t-1 -20.5t-0.5 -33.5v-113q0 -47 -7.5 -73t-25.5 -41q-12 -11 -36.5 -18t-50.5 -7h-71v31q32 1 53 7t33.5 19.5t17.5 35.5t5 55v127q0 24 2.5 40.5t9.5 29.5t19.5 23.5t31.5 21.5
q-19 11 -31.5 21.5t-19.5 23.5t-9.5 29.5t-2.5 40.5v127q0 31 -4 52t-15 34.5t-29.5 20.5t-47.5 10v31h58q26 0 50 -7t37 -18q18 -15 25.5 -41t7.5 -73v-113q0 -24 0.5 -38.5t2 -24t4.5 -15.5t8 -13q8 -11 19 -17.5t37 -14.5v-30z" />
    <glyph glyph-name="asciitilde" unicode="~" horiz-adv-x="667" 
d="M541 724q-27 -47 -62.5 -72.5t-72.5 -25.5q-13 0 -25.5 2.5t-35.5 10.5l-45 15q-18 6 -30.5 9t-21.5 4t-19 1q-13 0 -23 -2.5t-20 -8.5t-21 -17t-25 -28l-15 10q58 99 137 99q16 0 33.5 -4t55.5 -17q32 -11 48 -15t31 -4q28 0 50.5 12.5t45.5 40.5z" />
    <glyph glyph-name="uni00A0" unicode="&#xa0;" horiz-adv-x="335" 
 />
    <glyph glyph-name="exclamdown" unicode="&#xa1;" horiz-adv-x="281" 
d="M140 504q26 0 43 -17t17 -43q0 -25 -17.5 -42.5t-42.5 -17.5t-42.5 17.5t-17.5 43.5q0 24 17.5 41.5t42.5 17.5zM157 306q1 -55 2 -93t4 -71t8.5 -67.5t13.5 -81.5q7 -44 10 -65t3 -37q0 -35 -16 -54.5t-43 -19.5t-43 20t-16 53q0 15 2.5 36t10.5 69q9 61 14.5 98.5
t8.5 68t4.5 62t2.5 82.5h34z" />
    <glyph glyph-name="cent" unicode="&#xa2;" 
d="M428 246q-16 -61 -56 -96t-97 -38v-69h-33v69q-83 10 -130.5 68t-47.5 149q0 51 16.5 96t47.5 77q12 12 23.5 21t25 16t29.5 11.5t36 8.5v65h33v-65q32 -2 51.5 -7t38.5 -18q22 -15 34.5 -37.5t12.5 -46.5q0 -26 -15.5 -43.5t-39.5 -17.5q-20 0 -34.5 14t-14.5 35
q0 12 3 18.5t14 21.5q4 5 4 12q0 13 -14.5 22.5t-39.5 11.5v-365q45 1 73 23.5t48 76.5zM242 521q-45 -16 -65.5 -58t-20.5 -116q0 -75 20.5 -118.5t65.5 -62.5v355z" />
    <glyph glyph-name="sterling" unicode="&#xa3;" 
d="M413 301h-153q7 -28 9 -44.5t2 -36.5q0 -23 -3 -42t-12 -48q53 -23 92 -35t57 -12q13 0 22.5 3.5t17.5 13t16 26t17 42.5l33 -10q-22 -90 -52.5 -130t-77.5 -40q-32 0 -69 17t-91 59q-35 -41 -68.5 -59t-74.5 -18q-44 0 -72 24.5t-28 62.5q0 42 32 69.5t82 27.5
q57 0 117 -26q1 8 1.5 13.5t0.5 8.5q0 10 -1.5 18.5t-5.5 20.5t-11.5 30t-20.5 47l-8 18h-127v38h111q-11 29 -16 53.5t-5 53.5q0 43 14.5 80.5t40.5 64.5t61 42.5t76 15.5q30 0 55.5 -9.5t44.5 -26t30 -39.5t11 -49q0 -32 -17 -54t-43 -22q-23 0 -38.5 16.5t-15.5 39.5
q0 33 31 49q16 9 16 19q0 16 -21 28t-50 12q-50 0 -81.5 -33.5t-31.5 -86.5q0 -14 1 -24.5t4.5 -24t10 -33.5t17.5 -51q2 -5 3.5 -10.5t3.5 -10.5h164v-38zM186 86q-31 24 -57 35t-52 11q-27 0 -45.5 -16t-18.5 -39t18 -37.5t47 -14.5q32 0 57.5 14.5t50.5 46.5z" />
    <glyph glyph-name="currency" unicode="&#xa4;" horiz-adv-x="667" 
d="M151 193q-29 43 -40.5 74.5t-11.5 70.5q0 37 11.5 72t38.5 81l-92 93l32 32l93 -93q69 53 151 53q19 0 36 -2.5t34.5 -9t36.5 -16.5t42 -25l94 94l33 -33l-95 -94q14 -24 23.5 -42.5t15 -35.5t8 -34t2.5 -36q0 -20 -2.5 -36.5t-8 -33.5t-15 -35t-24.5 -41l95 -95l-32 -33
l-94 94q-43 -29 -76.5 -40.5t-73.5 -11.5q-39 0 -71.5 11t-76.5 40l-93 -93l-32 33zM332 511q-35 0 -65 -13t-53 -36t-36 -53.5t-13 -65.5t13 -65t36 -53t53 -36t65 -13q34 0 64.5 13t53 35.5t36 52.5t13.5 64q0 36 -13 67t-35.5 54t-53 36t-65.5 13z" />
    <glyph glyph-name="yen" unicode="&#xa5;" 
d="M53 554q-6 10 -12 24q-8 13 -16 17t-28 6l-17 2v37h229v-37h-34q-22 0 -31 -4t-9 -13q0 -5 2.5 -12.5t6.5 -15.5l126 -236l87 194q8 16 10.5 25.5t2.5 18.5q0 11 -5.5 20t-14.5 14q-9 4 -19 5.5t-33 3.5v37h195v-37q-17 -1 -29.5 -5.5t-23.5 -15.5t-21.5 -30t-24.5 -50
l-48 -105h119v-37h-135l-40 -88v-20h155v-37h-155v-148q0 -9 1.5 -14t3.5 -7t7 -3q5 -2 18.5 -3t30.5 -2l27 -1v-37h-256v37l25 1q44 3 54 7q5 3 6.5 10.5t1.5 36.5v123h-157v37h157v7l-54 101h-123v37h104z" />
    <glyph glyph-name="brokenbar" unicode="&#xa6;" 
d="M274 223v-390h-47v390h47zM274 667v-390h-47v390h47z" />
    <glyph glyph-name="section" unicode="&#xa7;" horiz-adv-x="580" 
d="M376 422q37 -22 55 -36.5t31 -33.5q23 -37 23 -74q0 -18 -4.5 -33t-15 -30t-28 -31.5t-44.5 -36.5q69 -60 69 -123q0 -30 -14 -56.5t-39 -46t-58 -30.5t-71 -11q-35 0 -66.5 10.5t-55.5 28.5t-38 41.5t-14 49.5q0 23 13.5 36.5t34.5 13.5q20 0 33 -11t13 -28q0 -7 -1 -10
t-8 -16q-3 -6 -3 -14q0 -13 8 -24.5t21 -20.5t30 -14.5t36 -5.5q20 0 38 6.5t31 18.5t20.5 27.5t7.5 33.5q0 37 -34 68q-6 5 -16 12t-35 24l-108 70q-25 16 -41.5 29.5t-26.5 27.5t-14 29.5t-4 34.5q0 38 20.5 67.5t71.5 66.5q-27 17 -42 44t-15 59q0 31 12.5 58t35 46.5
t52.5 30.5t66 11q30 0 56 -9t45.5 -24.5t31 -36t11.5 -44.5q0 -20 -12 -31.5t-32 -11.5t-33.5 12.5t-13.5 32.5q0 7 1 10.5t8 17.5l1 8q0 17 -21 29t-50 12q-18 0 -34.5 -5.5t-28.5 -15.5t-19.5 -22.5t-7.5 -26.5q0 -17 12 -36t33 -37q9 -8 24 -18t39 -24zM220 415
q-15 -15 -24.5 -26t-15 -20t-7.5 -17t-2 -17q0 -38 35 -70q3 -3 6.5 -5.5t9.5 -6.5t15.5 -10t26.5 -16l53 -31l33 -21q5 -2 9.5 -5t9.5 -5q47 38 47 89q0 47 -96 103l-65 38l-26 15z" />
    <glyph glyph-name="dieresis" unicode="&#xa8;" 
d="M344 627q22 0 37.5 -15.5t15.5 -37.5q0 -23 -15.5 -38.5t-38.5 -15.5q-22 0 -37.5 15.5t-15.5 37.5q0 23 15.5 38.5t38.5 15.5zM157 627q22 0 37.5 -15.5t15.5 -37.5q0 -23 -15.5 -38.5t-38.5 -15.5q-22 0 -37.5 15.5t-15.5 37.5q0 23 15.5 38.5t38.5 15.5z" />
    <glyph glyph-name="copyright" unicode="&#xa9;" horiz-adv-x="770" 
d="M540 372l-27 -3q-9 34 -15 51t-16 33q-33 56 -88 56q-51 0 -78 -47.5t-27 -138.5q0 -168 113 -168q47 0 74.5 28t44.5 94l29 -6q-9 -42 -19.5 -65.5t-28.5 -41.5q-42 -43 -107 -43q-39 0 -72.5 15.5t-58 42.5t-38.5 64t-14 81t14 83t38.5 68.5t57 46.5t69.5 17
q59 0 99 -40l19 35h24zM385 680q72 0 135 -27t110 -74t74 -110t27 -135q0 -73 -27.5 -136t-74.5 -110t-111.5 -74t-137.5 -27q-70 0 -132.5 27.5t-109 74.5t-73.5 110.5t-27 134.5q0 72 27 135t74.5 110t110.5 74t135 27zM385 646q-65 0 -122 -24.5t-99.5 -67t-67 -99.5
t-24.5 -121t24.5 -121t66.5 -99.5t98.5 -67.5t119.5 -25q66 0 124 24.5t100.5 66.5t67 99t24.5 123q0 64 -24.5 121t-67 99.5t-99.5 67t-121 24.5z" />
    <glyph glyph-name="ordfeminine" unicode="&#xaa;" horiz-adv-x="333" 
d="M315 296q-11 -17 -22.5 -23.5t-28.5 -6.5q-20 0 -32.5 9.5t-20.5 32.5q-19 -26 -39 -36.5t-51 -10.5q-37 0 -59 18t-22 47q0 79 166 105q0 43 -10.5 58.5t-39.5 15.5q-16 0 -29.5 -5.5t-13.5 -11.5q0 -2 1 -4t5 -7q7 -8 7 -19q0 -14 -10 -23.5t-25 -9.5q-16 0 -26 10.5
t-10 27.5q0 15 8.5 27.5t23.5 22t35.5 15t44.5 5.5q48 0 75 -22q11 -11 15 -24.5t4 -45.5v-94q0 -27 3 -36t12 -9q8 0 20 12zM206 403q-55 -8 -78.5 -24.5t-23.5 -46.5q0 -37 36 -37q22 0 38.5 13.5t22.5 36.5q2 8 3.5 24.5t1.5 33.5z" />
    <glyph glyph-name="guillemotleft" unicode="&#xab;" horiz-adv-x="439" 
d="M125 227l113 -197h-41l-160 197l160 190h41zM279 227l114 -197h-41l-162 197l162 190h41z" />
    <glyph glyph-name="logicalnot" unicode="&#xac;" 
d="M361 222h-326v45h430v-267h-104v222z" />
    <glyph glyph-name="uni00AD" unicode="&#xad;" horiz-adv-x="200" 
d="M200 187h-200v67h200v-67z" />
    <glyph glyph-name="registered" unicode="&#xae;" horiz-adv-x="763" 
d="M371 530q41 0 66 -4t46 -15q24 -13 37.5 -34.5t13.5 -47.5q0 -23 -10.5 -43t-29.5 -34q-22 -14 -67 -23q16 -6 27 -12.5t19.5 -19t16 -33.5t17.5 -55q7 -23 12 -31.5t11 -8.5q8 0 12 11.5t8 43.5l26 -2q-2 -23 -3.5 -34.5t-5.5 -22.5q-14 -41 -60 -41q-33 0 -49.5 23
t-22.5 78q-4 37 -8.5 52t-14.5 26q-11 11 -26.5 14.5t-45.5 3.5h-17v-132q0 -14 0.5 -18t2.5 -6t10.5 -3.5t28.5 -2.5h21v-29h-190v29h19q22 2 29.5 3t9.5 3t2.5 6t0.5 18v282q0 15 -0.5 18.5t-2.5 5.5t-9.5 3t-29.5 3h-19v29h175zM362 353q30 0 49.5 3.5t31 12t15.5 24
t4 39.5q0 38 -18 52.5t-65 14.5h-33q-17 0 -20 -2t-3 -16v-128h39zM382 680q72 0 135 -27t110 -74t74 -110t27 -135q0 -73 -27.5 -136t-74.5 -110t-111.5 -74t-137.5 -27q-70 0 -132.5 27.5t-109 74.5t-73.5 110.5t-27 134.5q0 72 27 135t74.5 110t110.5 74t135 27zM382 646
q-65 0 -122 -24.5t-99.5 -67t-67 -99.5t-24.5 -121t24.5 -121t66.5 -99.5t98.5 -67.5t119.5 -25q66 0 124 24.5t100.5 66.5t67 99t24.5 123q0 64 -24.5 121t-67 99.5t-99.5 67t-121 24.5z" />
    <glyph glyph-name="macron" unicode="&#xaf;" 
d="M377 545h-255v52h255v-52z" />
    <glyph glyph-name="degree" unicode="&#xb0;" horiz-adv-x="373" 
d="M188 654q27 0 50.5 -10.5t41.5 -29t28.5 -42.5t10.5 -51q0 -28 -10.5 -52.5t-28.5 -42.5t-42.5 -28.5t-51.5 -10.5q-28 0 -52 10.5t-42 29t-28.5 43t-10.5 52.5q0 27 10.5 51t29 42t43 28.5t52.5 10.5zM187 607q-36 0 -61.5 -25t-25.5 -61t25 -61.5t61 -25.5q18 0 33.5 7
t27 18.5t18.5 27.5t7 34t-7 33.5t-18.5 27t-27 18.5t-32.5 7z" />
    <glyph glyph-name="plusminus" unicode="&#xb1;" 
d="M450 65v-44h-400v44h400zM226 339v178h47v-178h177v-44h-177v-179h-47v179h-176v44h176z" />
    <glyph glyph-name="uni00B2" unicode="&#xb2;" horiz-adv-x="327" 
d="M290 386q-2 -41 -3.5 -68.5t-1.5 -53.5q-11 1 -19.5 1.5t-17.5 0.5h-45q-54 0 -97.5 -0.5t-79.5 -1.5v19q17 22 28 35.5t20 24.5t20 23t28 30q28 30 47 52.5t30.5 41t16 34t4.5 31.5q0 30 -18.5 48.5t-49.5 18.5q-29 0 -52 -15.5t-24 -34.5q0 -5 3 -8t12 -5q30 -6 30 -35
q0 -16 -11 -27t-27 -11q-22 0 -35.5 17.5t-13.5 44.5q0 22 9.5 41.5t26.5 33t40.5 21.5t50.5 8q55 0 90 -29t35 -76q0 -19 -4 -34.5t-15.5 -31.5t-31.5 -35t-52 -44l-34 -28q-13 -11 -25.5 -22t-24.5 -25l-9 -8h113q16 0 25.5 1.5t15.5 6.5t8.5 15t5.5 27l4 20z" />
    <glyph glyph-name="uni00B3" unicode="&#xb3;" horiz-adv-x="327" 
d="M211 472q41 -7 63.5 -33t22.5 -65q0 -51 -38.5 -82.5t-101.5 -31.5q-53 0 -85.5 26t-32.5 69q0 23 11.5 37t30.5 14q16 0 27.5 -11t11.5 -26q0 -22 -23 -33q-10 -5 -10 -11q0 -14 20 -25t47 -11q78 0 78 82q0 39 -17.5 61.5t-49.5 22.5q-3 0 -10 -0.5t-15 -2.5
q-10 -2 -13 -2q-18 0 -18 19q0 17 20 17h4q3 0 17 -2q4 -1 13 -1q57 0 57 76q0 32 -16 50t-46 18q-20 0 -39 -10t-19 -20q0 -3 8 -10q16 -11 16 -29q0 -14 -10.5 -24t-24.5 -10q-17 0 -27.5 12.5t-10.5 30.5q0 19 9 35.5t25.5 28.5t38 19t47.5 7q49 0 79.5 -26.5t30.5 -68.5
q0 -68 -70 -90z" />
    <glyph glyph-name="acute" unicode="&#xb4;" 
d="M276 603q15 15 24 23.5t15 13t10 5.5t10 1q14 0 24 -10.5t10 -25.5t-12.5 -27t-44.5 -29l-98 -51l-16 20z" />
    <glyph glyph-name="uni00B5" unicode="&#xb5;" horiz-adv-x="450" 
d="M461 36l-88 -46q-1 -1 -4 -1q-37 0 -49 63l-3 19q-27 -27 -46.5 -43.5t-36 -26t-32.5 -13t-35 -3.5q-42 0 -68 20.5t-41 67.5q-1 -9 -1 -17v-37q0 -10 1.5 -23t5 -32.5t9.5 -54.5q3 -15 4.5 -28t1.5 -21q0 -22 -11.5 -36t-29.5 -14q-19 0 -30.5 13.5t-11.5 34.5
q0 10 2 26t5 34q6 35 11.5 78.5t9.5 90.5t6 95t2 91v184h80v-286q0 -47 5 -71t19 -40q10 -12 26 -19t34 -7q34 0 60.5 17.5t55.5 57.5v348h80v-338q0 -46 8 -61.5t31 -15.5q8 0 14.5 2t15.5 8v-16z" />
    <glyph glyph-name="paragraph" unicode="&#xb6;" 
d="M413 -64h64v-30h-312v30h76v378q-25 0 -41.5 0.5t-28.5 2t-22 4.5t-23 8q-48 19 -73.5 61t-25.5 103q0 53 19 92.5t53 58.5q12 7 25 11.5t30 7t40.5 3.5t56.5 1h223v-31h-61v-700zM295 636v-700h66v700h-66zM241 636q-32 -1 -47 -4t-27 -13q-31 -25 -31 -90v-78
q0 -51 23.5 -80t65.5 -29h6q5 0 10 1v293z" />
    <glyph glyph-name="periodcentered" unicode="&#xb7;" horiz-adv-x="254" 
d="M127 280q26 0 43 -17t17 -43q0 -25 -17.5 -42.5t-42.5 -17.5t-42.5 17.5t-17.5 43.5q0 24 17.5 41.5t42.5 17.5z" />
    <glyph glyph-name="cedilla" unicode="&#xb8;" 
d="M275 -57q71 -3 71 -56q0 -28 -24.5 -46t-62.5 -18q-23 0 -42 6t-44 20l15 26q28 -14 57 -14q21 0 33.5 7.5t12.5 21.5q0 12 -11 19t-31 7h-8q-4 0 -13 -1l37 98h31z" />
    <glyph glyph-name="uni00B9" unicode="&#xb9;" horiz-adv-x="327" 
d="M213 650q-2 -34 -3 -63.5t-1 -66.5v-213q0 -4 2 -6q7 -4 40 -5h38v-29h-214v29h36q33 1 40 5q2 2 2 6v253q0 17 -3.5 20t-22.5 3h-59v27q42 3 71 12t55 28h19z" />
    <glyph glyph-name="ordmasculine" unicode="&#xba;" horiz-adv-x="333" 
d="M167 533q27 0 50.5 -10.5t41 -29.5t27.5 -44t10 -53q0 -27 -10.5 -51.5t-28 -43t-41 -29.5t-49.5 -11t-49.5 11t-41.5 29.5t-28.5 43.5t-10.5 52q0 28 10.5 52.5t28 43t41 29.5t50.5 11zM166 505q-31 0 -48 -29t-17 -80q0 -50 17.5 -78t48.5 -28q30 0 47.5 28.5
t17.5 79.5t-17.5 79t-48.5 28z" />
    <glyph glyph-name="guillemotright" unicode="&#xbb;" horiz-adv-x="439" 
d="M315 220l-113 197h41l160 -197l-160 -190h-41zM161 220l-114 197h41l162 -197l-162 -190h-41z" />
    <glyph glyph-name="onequarter" unicode="&#xbc;" horiz-adv-x="761" 
d="M731 130v-32h-65v-56q0 -4 0.5 -5t1.5 -2q3 -3 40 -6h9v-29h-166v29h16q25 2 31.5 3t8.5 3q1 1 1.5 2t0.5 5v56h-156v27l189 257h28q-2 -21 -3 -57t-1 -76v-119h65zM256 0h-50l299 649h49zM213 650q-2 -34 -3 -63.5t-1 -66.5v-211q0 -4 0.5 -5.5t1.5 -2.5q5 -3 40 -5h38
v-29h-214v29h36q35 2 40 5q1 1 1.5 2.5t0.5 5.5v251q0 17 -3.5 20t-22.5 3h-59v27q42 3 71 12t55 28h19zM609 287l-115 -157h115v157z" />
    <glyph glyph-name="onehalf" unicode="&#xbd;" horiz-adv-x="761" 
d="M724 120q-2 -41 -3 -68t-1 -54q-12 0 -19.5 0.5t-16.5 0.5h-140q-46 0 -84 -1v19q16 21 27 34.5t20.5 24.5t21 23.5t28.5 30.5q28 30 46.5 52t30 40.5t16 34t4.5 32.5q0 30 -18.5 48t-49.5 18q-29 0 -52 -14.5t-24 -34.5q0 -6 3 -8.5t12 -4.5q31 -6 31 -35
q0 -17 -11 -27.5t-28 -10.5q-22 0 -35.5 17t-13.5 44q0 22 9.5 41.5t26.5 33t40.5 21.5t50.5 8q55 0 90 -29t35 -76q0 -19 -4 -34t-15.5 -31t-31.5 -35t-52 -44l-33 -28q-8 -7 -14.5 -13t-13.5 -12l-23 -22l-9 -8h113q16 0 25.5 1.5t15.5 6.5t9 15t6 27l3 20zM256 0h-50
l299 649h49zM213 650q-2 -34 -3 -63.5t-1 -66.5v-211q0 -4 0.5 -5.5t1.5 -2.5q5 -3 40 -5h38v-29h-214v29h36q35 2 40 5q1 1 1.5 2.5t0.5 5.5v251q0 17 -3.5 20t-22.5 3h-59v27q42 3 71 12t55 28h19z" />
    <glyph glyph-name="threequarters" unicode="&#xbe;" horiz-adv-x="761" 
d="M732 130v-32h-65v-56q0 -4 0.5 -5t1.5 -2q3 -3 40 -6h9v-29h-166v29h16q25 2 31.5 3t8.5 3q1 1 1.5 2t0.5 5v56h-156v27l189 257h28q-2 -21 -3 -57t-1 -76v-119h65zM211 472q41 -7 63.5 -33t22.5 -65q0 -51 -38.5 -82.5t-101.5 -31.5q-53 0 -85.5 26t-32.5 69
q0 23 11.5 37t30.5 14q16 0 27.5 -11t11.5 -26q0 -22 -23 -33q-10 -5 -10 -11q0 -14 20 -25t47 -11q78 0 78 82q0 39 -17.5 61.5t-49.5 22.5q-3 0 -10 -0.5t-15 -2.5q-10 -2 -13 -2q-18 0 -18 19q0 17 20 17h4q3 0 17 -2q4 -1 13 -1q57 0 57 76q0 32 -16 50t-46 18
q-20 0 -39 -10t-19 -20q0 -3 8 -10q16 -11 16 -29q0 -14 -10.5 -24t-24.5 -10q-17 0 -27.5 12.5t-10.5 30.5q0 19 9 35.5t25.5 28.5t38 19t47.5 7q49 0 79.5 -26.5t30.5 -68.5q0 -68 -70 -90zM256 0h-49l299 649h49zM610 287l-115 -157h115v157z" />
    <glyph glyph-name="questiondown" unicode="&#xbf;" horiz-adv-x="403" 
d="M228 557q26 0 43 -17t17 -43q0 -25 -17.5 -42.5t-42.5 -17.5t-42.5 17.5t-17.5 43.5q0 24 17.5 41.5t42.5 17.5zM244 359v-13q0 -28 -2.5 -48.5t-9.5 -40.5t-20 -42.5t-34 -52.5q-27 -41 -38 -69t-11 -60q0 -57 27.5 -91t73.5 -34q15 0 29 5t25.5 13t18 18t6.5 21
q0 7 -3.5 11.5t-15.5 12.5q-26 19 -26 46q0 21 15.5 36t37.5 15q26 0 43 -21.5t17 -55.5q0 -30 -12.5 -55t-35 -44t-52.5 -29.5t-66 -10.5q-38 0 -69.5 12t-54.5 34t-35.5 52.5t-12.5 67.5q0 22 4 40.5t14.5 36.5t28 38t44.5 45q22 21 37 37.5t23.5 34.5t12.5 39.5t5 51.5
h36z" />
    <glyph glyph-name="Agrave" unicode="&#xc0;" horiz-adv-x="653" 
d="M363 727l-98 50q-32 17 -44.5 29t-12.5 28q0 14 10 24.5t24 10.5q6 0 10 -1t10 -5.5t15 -13t24 -23.5l78 -79zM300 536l-103 -281h206zM181 213l-13 -33q-11 -29 -16 -48t-5 -32q0 -17 9.5 -32t24.5 -20q10 -5 20 -6.5t33 -3.5v-38h-237v38q22 2 38 8.5t29 21.5t25.5 41
t27.5 67l191 503h41l216 -580q6 -17 10.5 -27t8.5 -15.5t8.5 -8.5t12.5 -5t18 -2.5t33 -2.5v-38h-269v38q52 1 69 5.5t17 17.5q0 5 -1.5 9.5t-6.5 18.5l-46 124h-238z" />
    <glyph glyph-name="Aacute" unicode="&#xc1;" horiz-adv-x="653" 
d="M353 826q14 14 23 22.5t15 13t10.5 6t10.5 1.5q14 0 24 -10.5t10 -24.5q0 -16 -12.5 -28t-45.5 -29l-98 -50l-16 20zM300 536l-103 -281h206zM181 213l-13 -33q-11 -29 -16 -48t-5 -32q0 -17 9.5 -32t24.5 -20q10 -5 20 -6.5t33 -3.5v-38h-237v38q22 2 38 8.5t29 21.5
t25.5 41t27.5 67l191 503h41l216 -580q6 -17 10.5 -27t8.5 -15.5t8.5 -8.5t12.5 -5t18 -2.5t33 -2.5v-38h-269v38q52 1 69 5.5t17 17.5q0 5 -1.5 9.5t-6.5 18.5l-46 124h-238z" />
    <glyph glyph-name="Acircumflex" unicode="&#xc2;" horiz-adv-x="653" 
d="M471 727h-38l-105 82l-109 -82h-36l120 135h52zM300 536l-103 -281h206zM181 213l-13 -33q-11 -29 -16 -48t-5 -32q0 -17 9.5 -32t24.5 -20q10 -5 20 -6.5t33 -3.5v-38h-237v38q22 2 38 8.5t29 21.5t25.5 41t27.5 67l191 503h41l216 -580q6 -17 10.5 -27t8.5 -15.5
t8.5 -8.5t12.5 -5t18 -2.5t33 -2.5v-38h-269v38q52 1 69 5.5t17 17.5q0 5 -1.5 9.5t-6.5 18.5l-46 124h-238z" />
    <glyph glyph-name="Atilde" unicode="&#xc3;" horiz-adv-x="653" 
d="M482 840q-8 -48 -32 -74.5t-57 -26.5q-14 0 -34.5 7t-50.5 23q-19 10 -30 15.5t-18 8.5t-11 3.5t-9 0.5q-30 0 -40 -45l-29 5q23 95 91 95q16 0 32 -5.5t46 -21.5q29 -17 45.5 -23t27.5 -6q30 0 41 47zM300 536l-103 -281h206zM181 213l-13 -33q-11 -29 -16 -48t-5 -32
q0 -17 9.5 -32t24.5 -20q10 -5 20 -6.5t33 -3.5v-38h-237v38q22 2 38 8.5t29 21.5t25.5 41t27.5 67l191 503h41l216 -580q6 -17 10.5 -27t8.5 -15.5t8.5 -8.5t12.5 -5t18 -2.5t33 -2.5v-38h-269v38q52 1 69 5.5t17 17.5q0 5 -1.5 9.5t-6.5 18.5l-46 124h-238z" />
    <glyph glyph-name="Adieresis" unicode="&#xc4;" horiz-adv-x="653" 
d="M421 850q22 0 37.5 -15.5t15.5 -37.5q0 -23 -15.5 -38.5t-38.5 -15.5q-22 0 -37.5 15.5t-15.5 37.5q0 23 15.5 38.5t38.5 15.5zM234 850q22 0 37.5 -15.5t15.5 -37.5q0 -23 -15.5 -38.5t-38.5 -15.5q-22 0 -37.5 15.5t-15.5 37.5q0 23 15.5 38.5t38.5 15.5zM300 536
l-103 -281h206zM181 213l-13 -33q-11 -29 -16 -48t-5 -32q0 -17 9.5 -32t24.5 -20q10 -5 20 -6.5t33 -3.5v-38h-237v38q22 2 38 8.5t29 21.5t25.5 41t27.5 67l191 503h41l216 -580q6 -17 10.5 -27t8.5 -15.5t8.5 -8.5t12.5 -5t18 -2.5t33 -2.5v-38h-269v38q52 1 69 5.5
t17 17.5q0 5 -1.5 9.5t-6.5 18.5l-46 124h-238z" />
    <glyph glyph-name="Aring" unicode="&#xc5;" horiz-adv-x="653" 
d="M181 213l-13 -33q-11 -29 -16 -48t-5 -32q0 -17 9.5 -32t24.5 -20q10 -5 20 -6.5t33 -3.5v-38h-237v38q22 2 38 8.5t29 21.5t25.5 41t27.5 67l191 503h41l216 -580q6 -17 10.5 -27t8.5 -15.5t8.5 -8.5t12.5 -5t18 -2.5t33 -2.5v-38h-269v38q52 1 69 5.5t17 17.5
q0 5 -1.5 9.5t-6.5 18.5l-46 124h-238zM300 536l-103 -281h206zM327 897q38 0 64 -26t26 -64q0 -19 -7 -35.5t-19.5 -28.5t-29 -19t-35.5 -7q-18 0 -34 7t-28.5 19.5t-19.5 29t-7 34.5q0 38 26 64t64 26zM327 860q-22 0 -37.5 -15.5t-15.5 -37.5t15.5 -37.5t37.5 -15.5
t37.5 15t15.5 38q0 22 -15.5 37.5t-37.5 15.5z" />
    <glyph glyph-name="AE" unicode="&#xc6;" horiz-adv-x="975" 
d="M904 432l-31 -3q-11 59 -22.5 90.5t-29.5 52.5q-24 28 -55.5 39.5t-84.5 11.5h-72q-25 0 -31.5 -6.5t-6.5 -32.5v-220q40 -1 67.5 4.5t45 20.5t26.5 40t12 64h35v-305h-35q-2 40 -9.5 66.5t-25 42t-46 22.5t-70.5 7v-246q0 -14 1 -22t5 -12t12 -5t23 -1h81q32 0 55.5 3.5
t41 11.5t31 21.5t25.5 33.5q15 26 26 59t21 83l31 -3l-8 -249h-541v37l27 1q30 2 44 3.5t20 4.5q7 3 8.5 10.5t1.5 37.5v201h-201l-110 -195q-12 -22 -14 -26.5t-2 -11.5t2.5 -11t10 -7t22 -4.5t37.5 -2.5v-37h-234v37q28 2 48.5 7.5t37.5 17.5t31.5 32t31.5 50l258 446
q11 20 11 26q0 5 -6 6.5t-21 3.5l-46 3v38h561zM476 576q0 26 -2 33t-13 10l-164 -284h179v241z" />
    <glyph glyph-name="Ccedilla" unicode="&#xc7;" horiz-adv-x="618" 
d="M560 410l-35 -4q-6 27 -12 47t-11.5 36t-12 29.5t-13.5 26.5q-55 97 -147 97q-85 0 -129.5 -82t-44.5 -238q0 -291 188 -291q98 0 152 89q13 21 22.5 47t20.5 70l37 -7q-43 -232 -226 -243l-17 -55q7 1 13.5 1.5t10.5 0.5q27 0 44 -15.5t17 -39.5q0 -35 -32 -57t-83 -22
q-17 0 -29.5 2t-34.5 9l13 32q14 -5 22.5 -6t21.5 -1q30 0 48 10t18 27q0 26 -46 26q-6 0 -13 -0.5t-20 -2.5l30 89q-28 5 -48.5 10t-37 11t-30.5 14t-29 20q-29 22 -52 53t-39 68t-25 78t-9 84q0 69 22.5 136t63.5 121q38 49 89 75.5t108 26.5q50 0 88.5 -17t72.5 -54
l33 64h29z" />
    <glyph glyph-name="Egrave" unicode="&#xc8;" horiz-adv-x="626" 
d="M349 727l-98 50q-32 17 -44.5 29t-12.5 28q0 14 10 24.5t24 10.5q6 0 10 -1t10 -5.5t15 -13t24 -23.5l78 -79zM555 432l-31 -3q-10 57 -24 94.5t-36.5 60t-54.5 31.5t-78 9h-64q-16 0 -25 -1t-13.5 -4.5t-5.5 -11.5t-1 -22v-221q40 -1 67 4.5t44.5 20t26.5 40.5t13 65h35
v-306h-35q-2 40 -9.5 66.5t-25 42.5t-46 22.5t-70.5 6.5v-245q0 -14 1 -21.5t5 -11.5t12 -5t22 -1h82q33 0 57 3.5t42 12t31.5 22t25.5 34.5q12 23 22 53t22 85l31 -3l-9 -249h-537v38l24 1q18 1 28.5 1.5t17.5 1t11 1.5t7 3q7 3 8.5 10.5t1.5 38.5v477q0 17 -0.5 26.5
t-2 14.5t-4.5 6.5t-8 3.5q-6 2 -18 3t-41 2l-24 1v38h515z" />
    <glyph glyph-name="Eacute" unicode="&#xc9;" horiz-adv-x="626" 
d="M339 826q14 14 23 22.5t15 13t10.5 6t10.5 1.5q14 0 24 -10.5t10 -24.5q0 -16 -12.5 -28t-45.5 -29l-98 -50l-16 20zM555 432l-31 -3q-10 57 -24 94.5t-36.5 60t-54.5 31.5t-78 9h-64q-16 0 -25 -1t-13.5 -4.5t-5.5 -11.5t-1 -22v-221q40 -1 67 4.5t44.5 20t26.5 40.5
t13 65h35v-306h-35q-2 40 -9.5 66.5t-25 42.5t-46 22.5t-70.5 6.5v-245q0 -14 1 -21.5t5 -11.5t12 -5t22 -1h82q33 0 57 3.5t42 12t31.5 22t25.5 34.5q12 23 22 53t22 85l31 -3l-9 -249h-537v38l24 1q18 1 28.5 1.5t17.5 1t11 1.5t7 3q7 3 8.5 10.5t1.5 38.5v477
q0 17 -0.5 26.5t-2 14.5t-4.5 6.5t-8 3.5q-6 2 -18 3t-41 2l-24 1v38h515z" />
    <glyph glyph-name="Ecircumflex" unicode="&#xca;" horiz-adv-x="626" 
d="M457 727h-38l-105 82l-108 -82h-37l120 135h52zM555 432l-31 -3q-10 57 -24 94.5t-36.5 60t-54.5 31.5t-78 9h-64q-16 0 -25 -1t-13.5 -4.5t-5.5 -11.5t-1 -22v-221q40 -1 67 4.5t44.5 20t26.5 40.5t13 65h35v-306h-35q-2 40 -9.5 66.5t-25 42.5t-46 22.5t-70.5 6.5v-245
q0 -14 1 -21.5t5 -11.5t12 -5t22 -1h82q33 0 57 3.5t42 12t31.5 22t25.5 34.5q12 23 22 53t22 85l31 -3l-9 -249h-537v38l24 1q18 1 28.5 1.5t17.5 1t11 1.5t7 3q7 3 8.5 10.5t1.5 38.5v477q0 17 -0.5 26.5t-2 14.5t-4.5 6.5t-8 3.5q-6 2 -18 3t-41 2l-24 1v38h515z" />
    <glyph glyph-name="Edieresis" unicode="&#xcb;" horiz-adv-x="626" 
d="M407 850q22 0 37.5 -15.5t15.5 -37.5q0 -23 -15.5 -38.5t-38.5 -15.5q-22 0 -37.5 15.5t-15.5 37.5q0 23 15.5 38.5t38.5 15.5zM220 850q22 0 37.5 -15.5t15.5 -37.5q0 -23 -15.5 -38.5t-38.5 -15.5q-22 0 -37.5 15.5t-15.5 37.5q0 23 15.5 38.5t38.5 15.5zM555 432
l-31 -3q-10 57 -24 94.5t-36.5 60t-54.5 31.5t-78 9h-64q-16 0 -25 -1t-13.5 -4.5t-5.5 -11.5t-1 -22v-221q40 -1 67 4.5t44.5 20t26.5 40.5t13 65h35v-306h-35q-2 40 -9.5 66.5t-25 42.5t-46 22.5t-70.5 6.5v-245q0 -14 1 -21.5t5 -11.5t12 -5t22 -1h82q33 0 57 3.5t42 12
t31.5 22t25.5 34.5q12 23 22 53t22 85l31 -3l-9 -249h-537v38l24 1q18 1 28.5 1.5t17.5 1t11 1.5t7 3q7 3 8.5 10.5t1.5 38.5v477q0 17 -0.5 26.5t-2 14.5t-4.5 6.5t-8 3.5q-6 2 -18 3t-41 2l-24 1v38h515z" />
    <glyph glyph-name="Igrave" unicode="&#xcc;" horiz-adv-x="349" 
d="M211 727l-98 50q-33 17 -45.5 29t-12.5 28q0 14 10 24.5t24 10.5q6 0 10.5 -1.5t10.5 -6t15 -13t23 -22.5l79 -79zM29 37l24 2q33 2 45.5 3t18.5 4q7 3 8.5 10.5t1.5 38.5v477q0 17 -0.5 26.5t-2 14.5t-4.5 6.5t-8 3.5q-6 2 -18 3t-41 2l-24 2v37h291v-37l-24 -2
q-33 -2 -45.5 -3t-18.5 -4q-7 -3 -8.5 -10.5t-1.5 -38.5v-477q0 -17 0.5 -26.5t2 -14.5t4.5 -7t8 -3q6 -2 18 -3t41 -2l24 -2v-37h-291v37z" />
    <glyph glyph-name="Iacute" unicode="&#xcd;" horiz-adv-x="349" 
d="M29 37l24 2q33 2 45.5 3t18.5 4q7 3 8.5 10.5t1.5 38.5v477q0 17 -0.5 26.5t-2 14.5t-4.5 6.5t-8 3.5q-6 2 -18 3t-41 2l-24 2v37h291v-37l-24 -2q-33 -2 -45.5 -3t-18.5 -4q-7 -3 -8.5 -10.5t-1.5 -38.5v-477q0 -17 0.5 -26.5t2 -14.5t4.5 -7t8 -3q6 -2 18 -3t41 -2
l24 -2v-37h-291v37zM200 826l23 23q9 9 15 13.5t10.5 5.5t10.5 1q14 0 24 -10.5t10 -24.5q0 -16 -12.5 -28t-44.5 -29l-98 -50l-16 20z" />
    <glyph glyph-name="Icircumflex" unicode="&#xce;" horiz-adv-x="349" 
d="M318 727h-37l-106 82l-108 -82h-37l120 135h53zM29 37l24 2q33 2 45.5 3t18.5 4q7 3 8.5 10.5t1.5 38.5v477q0 17 -0.5 26.5t-2 14.5t-4.5 6.5t-8 3.5q-6 2 -18 3t-41 2l-24 2v37h291v-37l-24 -2q-33 -2 -45.5 -3t-18.5 -4q-7 -3 -8.5 -10.5t-1.5 -38.5v-477
q0 -17 0.5 -26.5t2 -14.5t4.5 -7t8 -3q6 -2 18 -3t41 -2l24 -2v-37h-291v37z" />
    <glyph glyph-name="Idieresis" unicode="&#xcf;" horiz-adv-x="349" 
d="M255 850q22 0 37.5 -15.5t15.5 -37.5q0 -23 -15.5 -38.5t-38.5 -15.5q-22 0 -37.5 15.5t-15.5 37.5q0 23 15.5 38.5t38.5 15.5zM95 850q22 0 37.5 -15.5t15.5 -37.5q0 -23 -15.5 -38.5t-38.5 -15.5q-22 0 -37.5 15.5t-15.5 37.5q0 23 15.5 38.5t38.5 15.5zM29 37l24 2
q33 2 45.5 3t18.5 4q7 3 8.5 10.5t1.5 38.5v477q0 17 -0.5 26.5t-2 14.5t-4.5 6.5t-8 3.5q-6 2 -18 3t-41 2l-24 2v37h291v-37l-24 -2q-33 -2 -45.5 -3t-18.5 -4q-7 -3 -8.5 -10.5t-1.5 -38.5v-477q0 -17 0.5 -26.5t2 -14.5t4.5 -7t8 -3q6 -2 18 -3t41 -2l24 -2v-37h-291v37
z" />
    <glyph glyph-name="Eth" unicode="&#xd0;" horiz-adv-x="669" 
d="M29 371h98v201q0 17 -0.5 26.5t-2 14.5t-4.5 6.5t-8 3.5q-6 2 -17 2.5t-42 2.5l-24 1v38h254q42 0 73 -2t56 -7.5t45.5 -14.5t41.5 -23q61 -40 94.5 -115t33.5 -173q0 -155 -86 -247q-23 -24 -47 -40.5t-54 -26t-68 -14t-88 -4.5h-255v37l24 2q33 2 45.5 3t18.5 4
q7 3 8.5 10.5t1.5 38.5v238h-98v38zM369 371v-38h-147v-249q0 -14 1 -22.5t5.5 -13t13 -5.5t22.5 -1h46q64 0 102.5 19.5t62.5 64.5q18 32 28.5 92t10.5 130q0 81 -15.5 139t-45.5 89q-25 26 -60.5 37.5t-89.5 11.5h-42q-27 0 -33 -5.5t-6 -30.5v-218h147z" />
    <glyph glyph-name="Ntilde" unicode="&#xd1;" horiz-adv-x="695" 
d="M672 630q-17 -2 -28.5 -3.5t-19 -3.5t-12.5 -5.5t-9 -8.5q-12 -13 -17 -35t-5 -64v-518h-35l-379 556v-371q0 -40 5 -66.5t17.5 -42t34.5 -22.5t56 -9v-37h-264v37q36 4 57 11t32 22.5t14.5 43t3.5 73.5v392q0 19 -20 34q-12 8 -25 10.5t-44 4.5l-18 2v37h186l335 -493
v335q0 36 -4 58.5t-14.5 36t-29.5 19t-50 7.5v37h233v-37zM503 840q-9 -48 -33 -74.5t-56 -26.5q-15 0 -35.5 7t-49.5 23l-31 15q-11 6 -17.5 9t-10.5 3.5t-10 0.5q-29 0 -39 -45l-29 5q21 95 91 95q16 0 31.5 -5.5t45.5 -21.5q30 -17 46 -23t27 -6q31 0 42 47z" />
    <glyph glyph-name="Ograve" unicode="&#xd2;" horiz-adv-x="673" 
d="M373 727l-98 50q-32 17 -44.5 29t-12.5 28q0 14 10 24.5t24 10.5q6 0 10 -1t10 -5.5t15 -13t24 -23.5l78 -79zM337 682q57 0 103.5 -21t89.5 -66q101 -106 101 -266q0 -71 -24.5 -136t-70.5 -116q-83 -92 -199 -92q-103 0 -184 77q-111 106 -111 268q0 74 23 138
t62.5 111.5t93.5 75t116 27.5zM336 642q-181 0 -181 -300q0 -318 182 -318q88 0 134.5 76t46.5 222q0 163 -44.5 241.5t-137.5 78.5z" />
    <glyph glyph-name="Oacute" unicode="&#xd3;" horiz-adv-x="673" 
d="M362 826q15 15 24 23.5t15 13t10.5 5.5t10.5 1q14 0 23.5 -10.5t9.5 -24.5q0 -16 -12.5 -28t-44.5 -29l-98 -50l-16 20zM337 682q57 0 103.5 -21t89.5 -66q101 -106 101 -266q0 -71 -24.5 -136t-70.5 -116q-83 -92 -199 -92q-103 0 -184 77q-111 106 -111 268
q0 74 23 138t62.5 111.5t93.5 75t116 27.5zM336 642q-181 0 -181 -300q0 -318 182 -318q88 0 134.5 76t46.5 222q0 163 -44.5 241.5t-137.5 78.5z" />
    <glyph glyph-name="Ocircumflex" unicode="&#xd4;" horiz-adv-x="673" 
d="M481 727h-38l-105 82l-109 -82h-37l121 135h52zM337 682q57 0 103.5 -21t89.5 -66q101 -106 101 -266q0 -71 -24.5 -136t-70.5 -116q-83 -92 -199 -92q-103 0 -184 77q-111 106 -111 268q0 74 23 138t62.5 111.5t93.5 75t116 27.5zM336 642q-181 0 -181 -300
q0 -318 182 -318q88 0 134.5 76t46.5 222q0 163 -44.5 241.5t-137.5 78.5z" />
    <glyph glyph-name="Otilde" unicode="&#xd5;" horiz-adv-x="673" 
d="M492 840q-9 -48 -32.5 -74.5t-56.5 -26.5q-14 0 -35 7t-50 23q-19 10 -30 15.5t-18 8.5t-11 3.5t-9 0.5q-30 0 -40 -45l-29 5q21 95 91 95q16 0 32 -5.5t46 -21.5q29 -17 45 -23t27 -6q31 0 42 47zM337 682q57 0 103.5 -21t89.5 -66q101 -106 101 -266q0 -71 -24.5 -136
t-70.5 -116q-83 -92 -199 -92q-103 0 -184 77q-111 106 -111 268q0 74 23 138t62.5 111.5t93.5 75t116 27.5zM336 642q-181 0 -181 -300q0 -318 182 -318q88 0 134.5 76t46.5 222q0 163 -44.5 241.5t-137.5 78.5z" />
    <glyph glyph-name="Odieresis" unicode="&#xd6;" horiz-adv-x="673" 
d="M244 850q22 0 37.5 -15.5t15.5 -37.5q0 -23 -15.5 -38.5t-38.5 -15.5q-22 0 -37.5 15.5t-15.5 37.5q0 23 15.5 38.5t38.5 15.5zM431 850q22 0 37.5 -15.5t15.5 -37.5q0 -23 -15.5 -38.5t-38.5 -15.5q-22 0 -37.5 15.5t-15.5 37.5q0 23 15.5 38.5t38.5 15.5zM337 682
q57 0 103.5 -21t89.5 -66q101 -106 101 -266q0 -71 -24.5 -136t-70.5 -116q-83 -92 -199 -92q-103 0 -184 77q-111 106 -111 268q0 74 23 138t62.5 111.5t93.5 75t116 27.5zM336 642q-181 0 -181 -300q0 -318 182 -318q88 0 134.5 76t46.5 222q0 163 -44.5 241.5
t-137.5 78.5z" />
    <glyph glyph-name="multiply" unicode="&#xd7;" 
d="M249 350l141 140l31 -30l-140 -141l142 -140l-33 -33l-141 140l-141 -140l-31 30l140 141l-140 140l33 33z" />
    <glyph glyph-name="Oslash" unicode="&#xd8;" horiz-adv-x="673" 
d="M543 581q88 -103 88 -248q0 -73 -23 -136.5t-62.5 -110.5t-93.5 -74t-115 -27q-54 0 -97.5 18.5t-87.5 59.5l-60 -80h-44l80 106q-86 102 -86 242q0 73 23 137.5t63 111.5t94 74.5t116 27.5q52 0 94.5 -17.5t84.5 -57.5l54 72h46zM193 117q48 -93 145 -93q88 0 134 77
t46 225q0 56 -6.5 105.5t-17.5 84.5zM478 555q-44 87 -142 87q-181 0 -181 -300q0 -112 23 -186z" />
    <glyph glyph-name="Ugrave" unicode="&#xd9;" horiz-adv-x="689" 
d="M381 727l-98 50q-32 17 -44.5 29t-12.5 28q0 14 10 24.5t24 10.5q6 0 10 -1t10 -5.5t15 -13t24 -23.5l78 -79zM679 630q-30 -3 -49 -9t-29 -18.5t-13.5 -33t-3.5 -53.5v-229q0 -49 -2.5 -84.5t-8.5 -62t-16 -47t-25 -38.5q-60 -73 -188 -73q-73 0 -125 24t-81 70
q-9 14 -14.5 30.5t-9.5 37.5t-5.5 48.5t-1.5 64.5v315q0 17 -0.5 26.5t-2 14.5t-4.5 6.5t-8 3.5q-6 2 -17.5 3t-41.5 2l-23 2v37h289v-37l-23 -2q-17 -1 -28 -1.5t-18 -1.5t-11 -2t-7 -2q-7 -3 -8.5 -10.5t-1.5 -38.5v-318q0 -35 1.5 -60t5.5 -44t11 -33.5t17 -28.5
q20 -28 53 -42.5t75 -14.5q51 0 88.5 21t57.5 59q8 15 13 31t8 35.5t4.5 46t1.5 62.5v232q0 32 -4.5 52.5t-16 33t-32 18t-52.5 8.5v37h246v-37z" />
    <glyph glyph-name="Uacute" unicode="&#xda;" horiz-adv-x="689" 
d="M371 826q14 14 23 22.5t15 13t10.5 6t10.5 1.5q14 0 24 -10.5t10 -24.5q0 -16 -12.5 -28t-45.5 -29l-98 -50l-16 20zM679 630q-30 -3 -49 -9t-29 -18.5t-13.5 -33t-3.5 -53.5v-229q0 -49 -2.5 -84.5t-8.5 -62t-16 -47t-25 -38.5q-60 -73 -188 -73q-73 0 -125 24t-81 70
q-9 14 -14.5 30.5t-9.5 37.5t-5.5 48.5t-1.5 64.5v315q0 17 -0.5 26.5t-2 14.5t-4.5 6.5t-8 3.5q-6 2 -17.5 3t-41.5 2l-23 2v37h289v-37l-23 -2q-17 -1 -28 -1.5t-18 -1.5t-11 -2t-7 -2q-7 -3 -8.5 -10.5t-1.5 -38.5v-318q0 -35 1.5 -60t5.5 -44t11 -33.5t17 -28.5
q20 -28 53 -42.5t75 -14.5q51 0 88.5 21t57.5 59q8 15 13 31t8 35.5t4.5 46t1.5 62.5v232q0 32 -4.5 52.5t-16 33t-32 18t-52.5 8.5v37h246v-37z" />
    <glyph glyph-name="Ucircumflex" unicode="&#xdb;" horiz-adv-x="689" 
d="M489 727h-38l-105 82l-109 -82h-36l120 135h52zM679 630q-30 -3 -49 -9t-29 -18.5t-13.5 -33t-3.5 -53.5v-229q0 -49 -2.5 -84.5t-8.5 -62t-16 -47t-25 -38.5q-60 -73 -188 -73q-73 0 -125 24t-81 70q-9 14 -14.5 30.5t-9.5 37.5t-5.5 48.5t-1.5 64.5v315q0 17 -0.5 26.5
t-2 14.5t-4.5 6.5t-8 3.5q-6 2 -17.5 3t-41.5 2l-23 2v37h289v-37l-23 -2q-17 -1 -28 -1.5t-18 -1.5t-11 -2t-7 -2q-7 -3 -8.5 -10.5t-1.5 -38.5v-318q0 -35 1.5 -60t5.5 -44t11 -33.5t17 -28.5q20 -28 53 -42.5t75 -14.5q51 0 88.5 21t57.5 59q8 15 13 31t8 35.5t4.5 46
t1.5 62.5v232q0 32 -4.5 52.5t-16 33t-32 18t-52.5 8.5v37h246v-37z" />
    <glyph glyph-name="Udieresis" unicode="&#xdc;" horiz-adv-x="689" 
d="M439 850q22 0 37.5 -15.5t15.5 -37.5q0 -23 -15.5 -38.5t-38.5 -15.5q-22 0 -37.5 15.5t-15.5 37.5q0 23 15.5 38.5t38.5 15.5zM252 850q22 0 37.5 -15.5t15.5 -37.5q0 -23 -15.5 -38.5t-38.5 -15.5q-22 0 -37.5 15.5t-15.5 37.5q0 23 15.5 38.5t38.5 15.5zM679 630
q-30 -3 -49 -9t-29 -18.5t-13.5 -33t-3.5 -53.5v-229q0 -49 -2.5 -84.5t-8.5 -62t-16 -47t-25 -38.5q-60 -73 -188 -73q-73 0 -125 24t-81 70q-9 14 -14.5 30.5t-9.5 37.5t-5.5 48.5t-1.5 64.5v315q0 17 -0.5 26.5t-2 14.5t-4.5 6.5t-8 3.5q-6 2 -17.5 3t-41.5 2l-23 2v37
h289v-37l-23 -2q-17 -1 -28 -1.5t-18 -1.5t-11 -2t-7 -2q-7 -3 -8.5 -10.5t-1.5 -38.5v-318q0 -35 1.5 -60t5.5 -44t11 -33.5t17 -28.5q20 -28 53 -42.5t75 -14.5q51 0 88.5 21t57.5 59q8 15 13 31t8 35.5t4.5 46t1.5 62.5v232q0 32 -4.5 52.5t-16 33t-32 18t-52.5 8.5v37
h246v-37z" />
    <glyph glyph-name="Yacute" unicode="&#xdd;" horiz-adv-x="626" 
d="M393 826q14 14 23 22.5t15 13t10.5 6t10.5 1.5q14 0 24 -10.5t10 -24.5q0 -16 -12 -28t-46 -29l-98 -50l-16 20zM376 95q0 -17 0.5 -26.5t2 -14.5t4.5 -7t8 -3q6 -2 22 -3t37 -2l32 -2v-37h-305v37l30 2q29 1 43.5 2.5t20.5 4.5q7 4 8.5 11.5t1.5 37.5v170l-186 311
q-11 18 -18 28t-16 15.5t-23 7t-38 3.5v37h280v-37h-38q-29 0 -39.5 -4t-10.5 -16q0 -13 13 -33l147 -245l105 204q8 16 11.5 26.5t3.5 20.5q0 11 -6.5 21.5t-17.5 15.5t-22.5 6.5t-39.5 3.5v37h240v-37q-22 -1 -37.5 -6t-29.5 -16.5t-27.5 -32t-30.5 -53.5l-125 -243v-184z
" />
    <glyph glyph-name="Thorn" unicode="&#xde;" horiz-adv-x="598" 
d="M334 630l-39 -2q-34 -1 -45 -2t-18 -5t-8.5 -11.5t-1.5 -36.5v-16h74q36 0 64.5 -2t52 -7t43 -13t37.5 -20q77 -49 77 -141q0 -46 -21 -85t-58 -62q-17 -11 -36 -18.5t-41.5 -12t-50.5 -6.5t-64 -2h-77v-93q0 -17 0.5 -26.5t2 -14.5t4.5 -7t8 -3q6 -2 22.5 -3.5
t35.5 -1.5l39 -2v-37h-305v37l24 2q33 2 45 3t19 4t8.5 10.5t1.5 38.5v478q0 31 -2.5 39t-12.5 11q-3 1 -6 1.5t-9 1t-16 1t-28 1.5l-24 2v37h305v-37zM285 228q52 0 86.5 6.5t54.5 23.5t28 46t8 73q0 74 -33.5 106.5t-109.5 32.5h-61q-23 0 -29.5 -8.5t-6.5 -37.5v-242h63z
" />
    <glyph glyph-name="germandbls" unicode="&#xdf;" horiz-adv-x="532" 
d="M90 411q0 43 2 73t7.5 52t15 39t23.5 33q26 29 64.5 44.5t86.5 15.5q79 0 126 -40.5t47 -109.5q0 -54 -28.5 -87.5t-81.5 -41.5q26 -5 41 -9.5t29 -12.5q35 -20 53.5 -60.5t18.5 -95.5q0 -46 -12.5 -86t-34.5 -69.5t-51.5 -46.5t-63.5 -17q-39 0 -65 24t-26 59
q0 24 13.5 39.5t34.5 15.5q17 0 28.5 -12t11.5 -30q0 -8 -1.5 -12t-9.5 -20q-3 -5 -3 -11q0 -16 22 -16q67 0 67 167q0 65 -13 102.5t-41 53.5q-7 4 -14 6.5t-16.5 4t-23 2.5t-33.5 1v40q42 1 61 5t32 16q28 26 28 84q0 57 -26 87t-74 30q-32 0 -58.5 -15t-38.5 -40
q-5 -11 -8.5 -23.5t-5.5 -29.5t-3 -41t-1 -58v-331q0 -16 1 -25.5t2 -14t3 -6.5q3 -4 11.5 -5.5t34.5 -3.5v-35h-205v35h9q23 0 38.5 2t19.5 6q2 2 3.5 4.5t2 11.5t1 26.5t0.5 49.5v276z" />
    <glyph glyph-name="agrave" unicode="&#xe0;" horiz-adv-x="473" 
d="M273 503l-98 51q-32 17 -44.5 29t-12.5 27t10 25.5t24 10.5q6 0 10 -1t10 -5.5t15 -13t24 -23.5l78 -80zM305 232q-47 -8 -80.5 -18.5t-54.5 -25.5t-30.5 -35t-9.5 -47q0 -33 16.5 -51t46.5 -18q38 0 66 24t38 64q3 14 5.5 45.5t2.5 61.5zM468 42q-15 -23 -32.5 -33
t-42.5 -10q-35 0 -56.5 21.5t-25.5 59.5q-47 -90 -148 -90q-57 0 -91 28.5t-34 76.5q0 66 67 109.5t200 63.5q0 21 -1 36.5t-2.5 26.5t-4 20t-6.5 17q-18 35 -73 35q-29 0 -52 -10.5t-23 -24.5q0 -5 1.5 -9t9.5 -12q11 -14 11 -29q0 -22 -14.5 -36.5t-36.5 -14.5
q-23 0 -38 16t-15 42q0 24 13.5 45t37.5 36.5t56 24.5t69 9q38 0 68 -9.5t48 -26.5q9 -9 15 -18t9.5 -21.5t4.5 -30.5t1 -45v-158q0 -19 0.5 -31t1 -19.5t2.5 -12t5 -8.5q9 -11 21 -11q8 0 14.5 4t17.5 13z" />
    <glyph glyph-name="aacute" unicode="&#xe1;" horiz-adv-x="473" 
d="M263 603q14 15 23 23.5t15 13t10.5 5.5t10.5 1q14 0 24 -10.5t10 -25.5t-12.5 -27t-45.5 -29l-98 -51l-16 20zM305 232q-47 -8 -80.5 -18.5t-54.5 -25.5t-30.5 -35t-9.5 -47q0 -33 16.5 -51t46.5 -18q38 0 66 24t38 64q3 14 5.5 45.5t2.5 61.5zM468 42q-15 -23 -32.5 -33
t-42.5 -10q-35 0 -56.5 21.5t-25.5 59.5q-47 -90 -148 -90q-57 0 -91 28.5t-34 76.5q0 66 67 109.5t200 63.5q0 21 -1 36.5t-2.5 26.5t-4 20t-6.5 17q-18 35 -73 35q-29 0 -52 -10.5t-23 -24.5q0 -5 1.5 -9t9.5 -12q11 -14 11 -29q0 -22 -14.5 -36.5t-36.5 -14.5
q-23 0 -38 16t-15 42q0 24 13.5 45t37.5 36.5t56 24.5t69 9q38 0 68 -9.5t48 -26.5q9 -9 15 -18t9.5 -21.5t4.5 -30.5t1 -45v-158q0 -19 0.5 -31t1 -19.5t2.5 -12t5 -8.5q9 -11 21 -11q8 0 14.5 4t17.5 13z" />
    <glyph glyph-name="acircumflex" unicode="&#xe2;" horiz-adv-x="473" 
d="M381 503h-38l-105 83l-109 -83h-36l120 136h52zM305 232q-47 -8 -80.5 -18.5t-54.5 -25.5t-30.5 -35t-9.5 -47q0 -33 16.5 -51t46.5 -18q38 0 66 24t38 64q3 14 5.5 45.5t2.5 61.5zM468 42q-15 -23 -32.5 -33t-42.5 -10q-35 0 -56.5 21.5t-25.5 59.5q-47 -90 -148 -90
q-57 0 -91 28.5t-34 76.5q0 66 67 109.5t200 63.5q0 21 -1 36.5t-2.5 26.5t-4 20t-6.5 17q-18 35 -73 35q-29 0 -52 -10.5t-23 -24.5q0 -5 1.5 -9t9.5 -12q11 -14 11 -29q0 -22 -14.5 -36.5t-36.5 -14.5q-23 0 -38 16t-15 42q0 24 13.5 45t37.5 36.5t56 24.5t69 9
q38 0 68 -9.5t48 -26.5q9 -9 15 -18t9.5 -21.5t4.5 -30.5t1 -45v-158q0 -19 0.5 -31t1 -19.5t2.5 -12t5 -8.5q9 -11 21 -11q8 0 14.5 4t17.5 13z" />
    <glyph glyph-name="atilde" unicode="&#xe3;" horiz-adv-x="473" 
d="M392 617q-8 -48 -32 -74.5t-57 -26.5q-27 0 -85 29q-19 10 -30 15.5t-18 8.5t-11 3.5t-9 0.5q-30 0 -40 -44l-29 4q23 95 91 95q16 0 31.5 -5.5t46.5 -21.5q30 -16 45.5 -22t26.5 -6q31 0 42 47zM305 232q-47 -8 -80.5 -18.5t-54.5 -25.5t-30.5 -35t-9.5 -47
q0 -33 16.5 -51t46.5 -18q38 0 66 24t38 64q3 14 5.5 45.5t2.5 61.5zM468 42q-15 -23 -32.5 -33t-42.5 -10q-35 0 -56.5 21.5t-25.5 59.5q-47 -90 -148 -90q-57 0 -91 28.5t-34 76.5q0 66 67 109.5t200 63.5q0 21 -1 36.5t-2.5 26.5t-4 20t-6.5 17q-18 35 -73 35
q-29 0 -52 -10.5t-23 -24.5q0 -5 1.5 -9t9.5 -12q11 -14 11 -29q0 -22 -14.5 -36.5t-36.5 -14.5q-23 0 -38 16t-15 42q0 24 13.5 45t37.5 36.5t56 24.5t69 9q38 0 68 -9.5t48 -26.5q9 -9 15 -18t9.5 -21.5t4.5 -30.5t1 -45v-158q0 -19 0.5 -31t1 -19.5t2.5 -12t5 -8.5
q9 -11 21 -11q8 0 14.5 4t17.5 13z" />
    <glyph glyph-name="adieresis" unicode="&#xe4;" horiz-adv-x="473" 
d="M331 627q22 0 37.5 -15.5t15.5 -37.5q0 -23 -15.5 -38.5t-38.5 -15.5q-22 0 -37.5 15.5t-15.5 37.5q0 23 15.5 38.5t38.5 15.5zM144 627q22 0 37.5 -15.5t15.5 -37.5q0 -23 -15.5 -38.5t-38.5 -15.5q-22 0 -37.5 15.5t-15.5 37.5q0 23 15.5 38.5t38.5 15.5zM305 232
q-47 -8 -80.5 -18.5t-54.5 -25.5t-30.5 -35t-9.5 -47q0 -33 16.5 -51t46.5 -18q38 0 66 24t38 64q3 14 5.5 45.5t2.5 61.5zM468 42q-15 -23 -32.5 -33t-42.5 -10q-35 0 -56.5 21.5t-25.5 59.5q-47 -90 -148 -90q-57 0 -91 28.5t-34 76.5q0 66 67 109.5t200 63.5
q0 21 -1 36.5t-2.5 26.5t-4 20t-6.5 17q-18 35 -73 35q-29 0 -52 -10.5t-23 -24.5q0 -5 1.5 -9t9.5 -12q11 -14 11 -29q0 -22 -14.5 -36.5t-36.5 -14.5q-23 0 -38 16t-15 42q0 24 13.5 45t37.5 36.5t56 24.5t69 9q38 0 68 -9.5t48 -26.5q9 -9 15 -18t9.5 -21.5t4.5 -30.5
t1 -45v-158q0 -19 0.5 -31t1 -19.5t2.5 -12t5 -8.5q9 -11 21 -11q8 0 14.5 4t17.5 13z" />
    <glyph glyph-name="aring" unicode="&#xe5;" horiz-adv-x="473" 
d="M468 42q-15 -23 -32.5 -33t-42.5 -10q-35 0 -56.5 21.5t-25.5 59.5q-47 -90 -148 -90q-57 0 -91 28.5t-34 76.5q0 66 67 109.5t200 63.5q0 21 -1 36.5t-2.5 26.5t-4 20t-6.5 17q-18 35 -73 35q-29 0 -52 -10.5t-23 -24.5q0 -5 1.5 -9t9.5 -12q11 -14 11 -29
q0 -22 -14.5 -36.5t-36.5 -14.5q-23 0 -38 16t-15 42q0 24 13.5 45t37.5 36.5t56 24.5t69 9q38 0 68 -9.5t48 -26.5q9 -9 15 -18t9.5 -21.5t4.5 -30.5t1 -45v-158q0 -19 0.5 -31t1 -19.5t2.5 -12t5 -8.5q9 -11 21 -11q8 0 14.5 4t17.5 13zM305 232q-47 -8 -80.5 -18.5
t-54.5 -25.5t-30.5 -35t-9.5 -47q0 -33 16.5 -51t46.5 -18q38 0 66 24t38 64q3 14 5.5 45.5t2.5 61.5zM237 677q38 0 64 -26t26 -64q0 -19 -7 -35.5t-19.5 -28.5t-29 -19t-35.5 -7q-18 0 -34 7t-28.5 19.5t-19.5 29t-7 34.5q0 38 26 64t64 26zM237 640q-22 0 -37.5 -15.5
t-15.5 -37.5t15.5 -37.5t37.5 -15.5t37.5 15t15.5 38q0 22 -15.5 37.5t-37.5 15.5z" />
    <glyph glyph-name="ae" unicode="&#xe6;" horiz-adv-x="702" 
d="M382 208q0 -20 1 -35t3.5 -27.5t5.5 -23t8 -21.5q31 -67 105 -67q44 0 73.5 22.5t58.5 79.5l31 -17q-32 -71 -73.5 -101.5t-103.5 -30.5q-109 0 -168 92q-38 -50 -74.5 -71t-87.5 -21q-57 0 -90 28.5t-33 76.5q0 92 131 140q64 24 135 33q0 32 -2 53t-6 36
q-7 23 -27.5 35.5t-52.5 12.5q-14 0 -27 -3.5t-23.5 -9t-17 -12t-6.5 -13.5q0 -5 2 -8.5t9 -11.5q12 -13 12 -29q0 -21 -15 -36t-36 -15q-22 0 -38 18t-16 42t14 45t38 37t56.5 25t68.5 9q90 0 127 -53q30 29 58 41t65 12q81 0 129 -62t52 -170h-286zM522 246q18 0 28.5 1
t16.5 5t7.5 11.5t1.5 19.5q0 54 -24.5 87t-64.5 33q-47 0 -73.5 -40.5t-31.5 -116.5h140zM304 230q-18 -4 -29 -6.5t-19 -4.5t-14.5 -3.5t-16.5 -4.5q-96 -27 -96 -109q0 -32 16.5 -50t48.5 -18q39 0 67.5 26.5t36.5 71.5q3 15 4.5 42.5t1.5 55.5z" />
    <glyph glyph-name="ccedilla" unicode="&#xe7;" horiz-adv-x="421" 
d="M401 124q-36 -124 -152 -133l-14 -48q71 -3 71 -55q0 -29 -24.5 -47t-62.5 -18q-23 0 -41.5 5.5t-44.5 20.5l14 26q29 -14 58 -14q21 0 33.5 7.5t12.5 21.5q0 12 -11 19t-31 7h-7q-3 0 -14 -1l27 75l-11 3q-22 5 -37.5 10t-28 11.5t-23 15.5t-21.5 21q-56 61 -56 156
q0 50 15.5 92.5t43 73t65.5 48t83 17.5q30 0 55.5 -8.5t44.5 -23t29.5 -34.5t10.5 -43q0 -26 -15.5 -44t-38.5 -18q-20 0 -35 15t-15 35q0 6 0.5 9.5t2 7.5t4.5 9t9 13q5 5 5 13q0 14 -17.5 23.5t-42.5 9.5q-53 0 -82.5 -46t-29.5 -130q0 -91 32 -140t91 -49q26 0 49 11
t37 31q8 11 14 22.5t17 35.5z" />
    <glyph glyph-name="egrave" unicode="&#xe8;" horiz-adv-x="448" 
d="M260 503l-98 51q-32 17 -44.5 29t-12.5 27t10 25.5t24 10.5q6 0 10 -1t10 -5.5t15 -13t24 -23.5l78 -80zM268 246q18 0 29 1t16.5 5t7 11.5t1.5 20.5q0 55 -23.5 87t-64.5 32q-46 0 -73 -40t-32 -117h139zM129 208q0 -85 30.5 -129.5t90.5 -44.5q45 0 75 23t58 79l32 -17
q-34 -71 -74.5 -101.5t-103.5 -30.5q-44 0 -81 16t-63 44.5t-40.5 69t-14.5 88.5q0 49 15.5 92t42 74.5t62.5 50t77 18.5q81 0 128 -61t52 -171h-286z" />
    <glyph glyph-name="eacute" unicode="&#xe9;" horiz-adv-x="448" 
d="M129 208q0 -85 30.5 -129.5t90.5 -44.5q45 0 75 23t58 79l32 -17q-34 -71 -74.5 -101.5t-103.5 -30.5q-44 0 -81 16t-63 44.5t-40.5 69t-14.5 88.5q0 49 15.5 92t42 74.5t62.5 50t77 18.5q81 0 128 -61t52 -171h-286zM268 246q18 0 29 1t16.5 5t7 11.5t1.5 20.5
q0 55 -23.5 87t-64.5 32q-46 0 -73 -40t-32 -117h139zM250 603l23 23q9 9 15 13.5t10.5 5.5t10.5 1q14 0 24 -10.5t10 -25.5t-12.5 -27t-45.5 -29l-98 -51l-15 20z" />
    <glyph glyph-name="ecircumflex" unicode="&#xea;" horiz-adv-x="448" 
d="M368 503h-38l-105 83l-108 -83h-37l120 136h52zM268 246q18 0 29 1t16.5 5t7 11.5t1.5 20.5q0 55 -23.5 87t-64.5 32q-46 0 -73 -40t-32 -117h139zM129 208q0 -85 30.5 -129.5t90.5 -44.5q45 0 75 23t58 79l32 -17q-34 -71 -74.5 -101.5t-103.5 -30.5q-44 0 -81 16
t-63 44.5t-40.5 69t-14.5 88.5q0 49 15.5 92t42 74.5t62.5 50t77 18.5q81 0 128 -61t52 -171h-286z" />
    <glyph glyph-name="edieresis" unicode="&#xeb;" horiz-adv-x="448" 
d="M318 627q22 0 37.5 -15.5t15.5 -37.5q0 -23 -15.5 -38.5t-38.5 -15.5q-22 0 -37.5 15.5t-15.5 37.5q0 23 15.5 38.5t38.5 15.5zM131 627q22 0 37.5 -15.5t15.5 -37.5q0 -23 -15.5 -38.5t-38.5 -15.5q-22 0 -37.5 15.5t-15.5 37.5q0 23 15.5 38.5t38.5 15.5zM268 246
q18 0 29 1t16.5 5t7 11.5t1.5 20.5q0 55 -23.5 87t-64.5 32q-46 0 -73 -40t-32 -117h139zM129 208q0 -85 30.5 -129.5t90.5 -44.5q45 0 75 23t58 79l32 -17q-34 -71 -74.5 -101.5t-103.5 -30.5q-44 0 -81 16t-63 44.5t-40.5 69t-14.5 88.5q0 49 15.5 92t42 74.5t62.5 50
t77 18.5q81 0 128 -61t52 -171h-286z" />
    <glyph glyph-name="igrave" unicode="&#xec;" horiz-adv-x="275" 
d="M174 503l-97 51q-33 17 -45.5 29t-12.5 27t10 25.5t24 10.5q6 0 10 -1t10 -5.5t15 -13t24 -23.5l78 -80zM186 135q0 -32 0.5 -49.5t1 -26.5t2 -11.5t3.5 -4.5q4 -4 19.5 -6t39.5 -2h13v-35h-237v35h13q24 0 39.5 2t19.5 6q2 2 3.5 4.5t2 11.5t1 26.5t0.5 49.5v153
q0 30 -0.5 46.5t-1.5 24.5t-3 11.5t-5 6.5q-6 7 -19 10t-36 3h-19v34l18 1l63 2q28 0 82 6v-298z" />
    <glyph glyph-name="iacute" unicode="&#xed;" horiz-adv-x="275" 
d="M164 603q15 15 24 23.5t15 13t10 5.5t10 1q14 0 24 -10.5t10 -25.5t-12.5 -27t-45.5 -29l-97 -51l-16 20zM186 135q0 -32 0.5 -49.5t1 -26.5t2 -11.5t3.5 -4.5q4 -4 19.5 -6t39.5 -2h13v-35h-236v35h13q50 0 58 8q2 2 3.5 4.5t2 11.5t1 26.5t0.5 49.5v153q0 30 -0.5 46.5
t-1.5 24.5t-2.5 11.5t-4.5 6.5q-12 13 -55 13h-20v34l19 1l62 2q28 0 82 6v-298z" />
    <glyph glyph-name="icircumflex" unicode="&#xee;" horiz-adv-x="275" 
d="M282 503h-37l-106 83l-108 -83h-37l120 136h52zM186 135q0 -32 0.5 -49.5t1 -26.5t2 -11.5t3.5 -4.5q4 -4 19.5 -6t39.5 -2h13v-35h-236v35h13q50 0 58 8q2 2 3.5 4.5t2 11.5t1 26.5t0.5 49.5v153q0 30 -0.5 46.5t-1.5 24.5t-2.5 11.5t-4.5 6.5q-12 13 -55 13h-20v34
l19 1l62 2q28 0 82 6v-298z" />
    <glyph glyph-name="idieresis" unicode="&#xef;" horiz-adv-x="275" 
d="M212 627q22 0 37.5 -15.5t15.5 -37.5q0 -23 -15.5 -38.5t-38.5 -15.5q-22 0 -37.5 15.5t-15.5 37.5q0 23 15.5 38.5t38.5 15.5zM65 627q22 0 37.5 -15.5t15.5 -37.5q0 -23 -15.5 -38.5t-38.5 -15.5q-22 0 -37.5 15.5t-15.5 37.5q0 23 15.5 38.5t38.5 15.5zM186 135
q0 -32 0.5 -49.5t1 -26.5t2 -11.5t3.5 -4.5q4 -4 19.5 -6t39.5 -2h13v-35h-237v35h13q24 0 39.5 2t19.5 6q2 2 3.5 4.5t2 11.5t1 26.5t0.5 49.5v153q0 30 -0.5 46.5t-1.5 24.5t-3 11.5t-5 6.5q-6 7 -19 10t-36 3h-19v34l18 1l63 2q28 0 82 6v-298z" />
    <glyph glyph-name="eth" unicode="&#xf0;" horiz-adv-x="484" 
d="M158 495l-20 34l79 46l-45 93l33 19l58 -85l82 47l20 -35l-79 -45l106 -156q24 -36 38.5 -87t14.5 -102q0 -52 -14.5 -91.5t-45.5 -74.5q-60 -68 -143 -68q-41 0 -78 18t-65 49t-44.5 71.5t-16.5 85.5q0 46 16.5 87t44.5 72t65.5 49t79.5 18q11 0 20 -1t21 -4l-51 104z
M241 404q-52 0 -81.5 -50.5t-29.5 -140.5q0 -87 30 -136.5t82 -49.5t81.5 50t29.5 139t-29.5 138.5t-82.5 49.5z" />
    <glyph glyph-name="ntilde" unicode="&#xf1;" horiz-adv-x="545" 
d="M23 424q57 2 95 4t58 4q2 -23 2.5 -43t1.5 -49v-10q45 104 141 104q87 0 116 -69q11 -25 15 -54t4 -77v-99q0 -32 0.5 -49.5t1 -26.5t2 -11.5t3.5 -4.5q8 -8 59 -8h9v-35h-226v35h8q23 0 38 2t19 6q2 2 3.5 4.5t2 11.5t1 26.5t0.5 49.5v76q0 56 -3.5 84.5t-13.5 45.5
q-21 34 -66 34q-50 0 -81 -44q-15 -23 -21 -50.5t-6 -74.5v-71q0 -32 0.5 -49.5t1 -26.5t2 -11.5t3.5 -4.5q4 -4 19.5 -6t39.5 -2h8v-35h-229v35h10q51 0 59 8q2 2 3.5 4.5t2 11.5t1 26.5t0.5 49.5v153q0 30 -0.5 46.5t-1.5 25t-2.5 11.5t-4.5 7q-12 12 -55 12h-20v34z
M429 617q-9 -48 -33 -74.5t-56 -26.5q-28 0 -85 29l-31 15q-11 6 -17.5 9t-10.5 3.5t-10 0.5q-28 0 -40 -44l-28 4q21 95 91 95q16 0 31.5 -5.5t45.5 -21.5t46 -22t27 -6q31 0 42 47z" />
    <glyph glyph-name="ograve" unicode="&#xf2;" horiz-adv-x="484" 
d="M278 503l-98 51q-32 17 -44.5 29t-12.5 27t10 25.5t24 10.5q6 0 10 -1t10 -5.5t15 -13t24 -23.5l78 -80zM243 440q42 0 78.5 -18t64 -48.5t43.5 -72t16 -88.5q0 -45 -16.5 -85.5t-44 -71t-64.5 -48.5t-78 -18t-78 18t-65 49t-44.5 71.5t-16.5 85.5q0 46 16.5 87t44.5 72
t65 49t79 18zM241 404q-52 0 -81.5 -50.5t-29.5 -140.5q0 -87 30 -136.5t82 -49.5t81.5 50t29.5 139t-29.5 138.5t-82.5 49.5z" />
    <glyph glyph-name="oacute" unicode="&#xf3;" horiz-adv-x="484" 
d="M268 603q14 15 23 23.5t15 13t10.5 5.5t10.5 1q14 0 24 -10.5t10 -25.5t-12.5 -27t-45.5 -29l-98 -51l-16 20zM243 440q42 0 78.5 -18t64 -48.5t43.5 -72t16 -88.5q0 -45 -16.5 -85.5t-44 -71t-64.5 -48.5t-78 -18t-78 18t-65 49t-44.5 71.5t-16.5 85.5q0 46 16.5 87
t44.5 72t65 49t79 18zM241 404q-52 0 -81.5 -50.5t-29.5 -140.5q0 -87 30 -136.5t82 -49.5t81.5 50t29.5 139t-29.5 138.5t-82.5 49.5z" />
    <glyph glyph-name="ocircumflex" unicode="&#xf4;" horiz-adv-x="484" 
d="M386 503h-38l-105 83l-109 -83h-36l120 136h52zM243 440q42 0 78.5 -18t64 -48.5t43.5 -72t16 -88.5q0 -45 -16.5 -85.5t-44 -71t-64.5 -48.5t-78 -18t-78 18t-65 49t-44.5 71.5t-16.5 85.5q0 46 16.5 87t44.5 72t65 49t79 18zM241 404q-52 0 -81.5 -50.5t-29.5 -140.5
q0 -87 30 -136.5t82 -49.5t81.5 50t29.5 139t-29.5 138.5t-82.5 49.5z" />
    <glyph glyph-name="otilde" unicode="&#xf5;" horiz-adv-x="484" 
d="M397 617q-8 -48 -32 -74.5t-57 -26.5q-27 0 -85 29q-19 10 -30 15.5t-18 8.5t-11 3.5t-9 0.5q-30 0 -40 -44l-29 4q23 95 91 95q16 0 31.5 -5.5t46.5 -21.5q30 -16 46 -22t27 -6q30 0 41 47zM243 440q42 0 78.5 -18t64 -48.5t43.5 -72t16 -88.5q0 -45 -16.5 -85.5
t-44 -71t-64.5 -48.5t-78 -18t-78 18t-65 49t-44.5 71.5t-16.5 85.5q0 46 16.5 87t44.5 72t65 49t79 18zM241 404q-52 0 -81.5 -50.5t-29.5 -140.5q0 -87 30 -136.5t82 -49.5t81.5 50t29.5 139t-29.5 138.5t-82.5 49.5z" />
    <glyph glyph-name="odieresis" unicode="&#xf6;" horiz-adv-x="484" 
d="M149 627q22 0 37.5 -15.5t15.5 -37.5q0 -23 -15.5 -38.5t-38.5 -15.5q-22 0 -37.5 15.5t-15.5 37.5q0 23 15.5 38.5t38.5 15.5zM336 627q22 0 37.5 -15.5t15.5 -37.5q0 -23 -15.5 -38.5t-38.5 -15.5q-22 0 -37.5 15.5t-15.5 37.5q0 23 15.5 38.5t38.5 15.5zM243 440
q42 0 78.5 -18t64 -48.5t43.5 -72t16 -88.5q0 -45 -16.5 -85.5t-44 -71t-64.5 -48.5t-78 -18t-78 18t-65 49t-44.5 71.5t-16.5 85.5q0 46 16.5 87t44.5 72t65 49t79 18zM241 404q-52 0 -81.5 -50.5t-29.5 -140.5q0 -87 30 -136.5t82 -49.5t81.5 50t29.5 139t-29.5 138.5
t-82.5 49.5z" />
    <glyph glyph-name="divide" unicode="&#xf7;" 
d="M250 230q17 0 29 -12t12 -29t-12.5 -29.5t-29.5 -12.5t-29 12.5t-12 29.5t12.5 29t29.5 12zM250 485q17 0 29 -12t12 -29t-12 -29.5t-29 -12.5q-18 0 -30 12.5t-12 29.5t12.5 29t29.5 12zM450 339v-44h-400v44h400z" />
    <glyph glyph-name="oslash" unicode="&#xf8;" horiz-adv-x="484" 
d="M384 373q31 -30 46.5 -70.5t15.5 -88.5q0 -46 -16.5 -86.5t-44.5 -71t-65.5 -48.5t-79.5 -18q-33 0 -57.5 9t-58.5 34l-34 -43h-42l52 65q-62 68 -62 160q0 46 16.5 86.5t44.5 71.5t65 49t79 18q65 0 118 -44l31 41h41zM159 79q32 -52 84 -52q54 0 82.5 49.5t28.5 143.5
q0 28 -3 48t-11 48zM326 351q-31 53 -84 53t-82.5 -50t-29.5 -141q0 -29 3 -50t11 -50z" />
    <glyph glyph-name="ugrave" unicode="&#xf9;" horiz-adv-x="524" 
d="M434 136q0 -30 0.5 -46.5t1.5 -25t2.5 -11.5t4.5 -7q12 -12 55 -12h14v-34q-54 -2 -91.5 -3.5t-58.5 -3.5q-3 21 -4.5 42t-1.5 48q-29 -50 -60 -70.5t-75 -20.5q-38 0 -68 17.5t-44 49.5q-6 12 -9.5 24.5t-5.5 29t-3 38t-1 53.5v85q0 30 -0.5 46t-1.5 24.5t-3 11.5t-5 7
q-6 7 -19 10t-36 3h-10v34l25 1l48 1q14 1 24 1.5t18.5 1t17.5 1t21 1.5v-230q0 -27 0.5 -45t2 -30.5t5 -21.5t8.5 -18q9 -18 25.5 -27.5t37.5 -9.5q53 0 80 44.5t27 131.5v101q0 21 -2 33.5t-9 19.5t-19.5 9t-33.5 2h-15v34l20 1l61 2q12 0 31.5 1t45.5 3v-296zM298 503
l-98 51q-32 17 -44.5 29t-12.5 27t10 25.5t24 10.5q6 0 10 -1t10 -5t15 -13l24 -24l78 -80z" />
    <glyph glyph-name="uacute" unicode="&#xfa;" horiz-adv-x="524" 
d="M434 136q0 -30 0.5 -46.5t1.5 -25t2.5 -11.5t4.5 -7q12 -12 55 -12h14v-34q-54 -2 -91.5 -3.5t-58.5 -3.5q-3 21 -4.5 42t-1.5 48q-29 -50 -60 -70.5t-75 -20.5q-38 0 -68 17.5t-44 49.5q-6 12 -9.5 24.5t-5.5 29t-3 38t-1 53.5v85q0 30 -0.5 46t-1.5 24.5t-3 11.5t-5 7
q-6 7 -19 10t-36 3h-10v34l25 1l48 1q14 1 24 1.5t18.5 1t17.5 1t21 1.5v-230q0 -27 0.5 -45t2 -30.5t5 -21.5t8.5 -18q9 -18 25.5 -27.5t37.5 -9.5q53 0 80 44.5t27 131.5v101q0 21 -2 33.5t-9 19.5t-19.5 9t-33.5 2h-15v34l20 1l61 2q12 0 31.5 1t45.5 3v-296zM287 603
l24 24q9 9 15 13t10.5 5t10.5 1q14 0 23.5 -10.5t9.5 -25.5t-12.5 -27t-44.5 -29l-98 -51l-16 20z" />
    <glyph glyph-name="ucircumflex" unicode="&#xfb;" horiz-adv-x="524" 
d="M434 136q0 -30 0.5 -46.5t1.5 -25t2.5 -11.5t4.5 -7q12 -12 55 -12h14v-34q-54 -2 -91.5 -3.5t-58.5 -3.5q-3 21 -4.5 42t-1.5 48q-29 -50 -60 -70.5t-75 -20.5q-38 0 -68 17.5t-44 49.5q-6 12 -9.5 24.5t-5.5 29t-3 38t-1 53.5v85q0 30 -0.5 46t-1.5 24.5t-3 11.5t-5 7
q-6 7 -19 10t-36 3h-10v34l25 1l48 1q14 1 24 1.5t18.5 1t17.5 1t21 1.5v-230q0 -27 0.5 -45t2 -30.5t5 -21.5t8.5 -18q9 -18 25.5 -27.5t37.5 -9.5q53 0 80 44.5t27 131.5v101q0 21 -2 33.5t-9 19.5t-19.5 9t-33.5 2h-15v34l20 1l61 2q12 0 31.5 1t45.5 3v-296zM406 503
h-38l-105 83l-109 -83h-37l121 136h52z" />
    <glyph glyph-name="udieresis" unicode="&#xfc;" horiz-adv-x="524" 
d="M434 136q0 -30 0.5 -46.5t1.5 -25t2.5 -11.5t4.5 -7q12 -12 55 -12h14v-34q-54 -2 -91.5 -3.5t-58.5 -3.5q-3 21 -4.5 42t-1.5 48q-29 -50 -60 -70.5t-75 -20.5q-38 0 -68 17.5t-44 49.5q-6 12 -9.5 24.5t-5.5 29t-3 38t-1 53.5v85q0 30 -0.5 46t-1.5 24.5t-3 11.5t-5 7
q-6 7 -19 10t-36 3h-10v34l25 1l48 1q14 1 24 1.5t18.5 1t17.5 1t21 1.5v-230q0 -27 0.5 -45t2 -30.5t5 -21.5t8.5 -18q9 -18 25.5 -27.5t37.5 -9.5q53 0 80 44.5t27 131.5v101q0 21 -2 33.5t-9 19.5t-19.5 9t-33.5 2h-15v34l20 1l61 2q12 0 31.5 1t45.5 3v-296zM356 627
q22 0 37.5 -15.5t15.5 -37.5q0 -23 -15.5 -38.5t-38.5 -15.5q-22 0 -37.5 15.5t-15.5 37.5q0 23 15.5 38.5t38.5 15.5zM169 627q22 0 37.5 -15.5t15.5 -37.5q0 -23 -15.5 -38.5t-38.5 -15.5q-22 0 -37.5 15.5t-15.5 37.5q0 23 15.5 38.5t38.5 15.5z" />
    <glyph glyph-name="yacute" unicode="&#xfd;" horiz-adv-x="472" 
d="M262 603q15 15 24 23.5t15 13t10.5 5.5t10.5 1q14 0 23.5 -10.5t9.5 -25.5t-12.5 -27t-44.5 -29l-98 -51l-16 20zM466 392q-18 -4 -29.5 -9t-20.5 -15.5t-17.5 -28.5t-19.5 -49l-80 -222q-14 -39 -25 -66.5t-21 -47.5t-20 -36t-23 -31q-54 -63 -118 -63q-35 0 -58 20
t-23 50q0 23 14.5 38t35.5 15q43 0 44 -53q0 -21 16 -21q26 0 54 33.5t55 95.5l-153 336q-8 18 -13 28.5t-12 15.5t-17 6.5t-28 3.5v33h209v-33l-26 -2q-23 -2 -30.5 -5t-7.5 -11q0 -5 2.5 -12.5t10.5 -24.5l106 -233l70 197q7 20 10 31.5t3 19.5q0 20 -13.5 28.5
t-48.5 11.5v33h174v-33z" />
    <glyph glyph-name="thorn" unicode="&#xfe;" horiz-adv-x="505" 
d="M165 359q20 38 53.5 58.5t74.5 20.5q37 0 69 -17t55 -46.5t36.5 -69.5t13.5 -87q0 -49 -14 -91.5t-38 -73.5t-57 -48.5t-71 -17.5q-85 0 -122 79v-104q0 -32 0.5 -49.5t1 -26.5t2 -11.5t3.5 -4.5q4 -4 19.5 -6t39.5 -2h15v-35h-233v35h8q50 0 58 8q2 2 3.5 4.5t2 11.5
t1 26.5t0.5 49.5v570q0 30 -0.5 46.5t-1.5 25t-2.5 11.5t-4.5 7q-12 12 -55 12h-19v34l81 3l50 3l31 1v-316zM275 391q-53 0 -83.5 -48t-30.5 -132q0 -81 30.5 -129t81.5 -48t78 47.5t27 135.5q0 85 -26 129.5t-77 44.5z" />
    <glyph glyph-name="ydieresis" unicode="&#xff;" horiz-adv-x="472" 
d="M330 627q22 0 37.5 -15.5t15.5 -37.5q0 -23 -15.5 -38.5t-38.5 -15.5q-22 0 -37.5 15.5t-15.5 37.5q0 23 15.5 38.5t38.5 15.5zM144 627q22 0 37.5 -15.5t15.5 -37.5q0 -23 -15.5 -38.5t-38.5 -15.5q-22 0 -37.5 15.5t-15.5 37.5q0 23 15.5 38.5t38.5 15.5zM466 392
q-18 -4 -29.5 -9t-20.5 -15.5t-17.5 -28.5t-19.5 -49l-80 -222q-14 -39 -25 -66.5t-21 -47.5t-20 -36t-23 -31q-54 -63 -118 -63q-35 0 -58 20t-23 50q0 23 14.5 38t35.5 15q43 0 44 -53q0 -21 16 -21q26 0 54 33.5t55 95.5l-153 336q-8 18 -13 28.5t-12 15.5t-17 6.5
t-28 3.5v33h209v-33l-26 -2q-23 -2 -30.5 -5t-7.5 -11q0 -5 2.5 -12.5t10.5 -24.5l106 -233l70 197q7 20 10 31.5t3 19.5q0 20 -13.5 28.5t-48.5 11.5v33h174v-33z" />
    <glyph glyph-name="Amacron" unicode="&#x100;" horiz-adv-x="653" 
d="M481 767h-309v55h309v-55zM300 536l-103 -281h206zM181 213l-13 -33q-11 -29 -16 -48t-5 -32q0 -17 9.5 -32t24.5 -20q10 -5 20 -6.5t33 -3.5v-38h-237v38q22 2 38 8.5t29 21.5t25.5 41t27.5 67l191 503h41l216 -580q6 -17 10.5 -27t8.5 -15.5t8.5 -8.5t12.5 -5t18 -2.5
t33 -2.5v-38h-269v38q52 1 69 5.5t17 17.5q0 5 -1.5 9.5t-6.5 18.5l-46 124h-238z" />
    <glyph glyph-name="amacron" unicode="&#x101;" horiz-adv-x="473" 
d="M364 545h-255v52h255v-52zM305 232q-47 -8 -80.5 -18.5t-54.5 -25.5t-30.5 -35t-9.5 -47q0 -33 16.5 -51t46.5 -18q38 0 66 24t38 64q3 14 5.5 45.5t2.5 61.5zM468 42q-15 -23 -32.5 -33t-42.5 -10q-35 0 -56.5 21.5t-25.5 59.5q-47 -90 -148 -90q-57 0 -91 28.5
t-34 76.5q0 66 67 109.5t200 63.5q0 21 -1 36.5t-2.5 26.5t-4 20t-6.5 17q-18 35 -73 35q-29 0 -52 -10.5t-23 -24.5q0 -5 1.5 -9t9.5 -12q11 -14 11 -29q0 -22 -14.5 -36.5t-36.5 -14.5q-23 0 -38 16t-15 42q0 24 13.5 45t37.5 36.5t56 24.5t69 9q38 0 68 -9.5t48 -26.5
q9 -9 15 -18t9.5 -21.5t4.5 -30.5t1 -45v-158q0 -19 0.5 -31t1 -19.5t2.5 -12t5 -8.5q9 -11 21 -11q8 0 14.5 4t17.5 13z" />
    <glyph glyph-name="Abreve" unicode="&#x102;" horiz-adv-x="653" 
d="M448 859q0 -61 -31 -93.5t-89 -32.5q-54 0 -88.5 31t-34.5 80v15h25q5 -33 29 -50t66 -17q77 0 98 67h25zM300 536l-103 -281h206zM181 213l-13 -33q-11 -29 -16 -48t-5 -32q0 -17 9.5 -32t24.5 -20q10 -5 20 -6.5t33 -3.5v-38h-237v38q22 2 38 8.5t29 21.5t25.5 41
t27.5 67l191 503h41l216 -580q6 -17 10.5 -27t8.5 -15.5t8.5 -8.5t12.5 -5t18 -2.5t33 -2.5v-38h-269v38q52 1 69 5.5t17 17.5q0 5 -1.5 9.5t-6.5 18.5l-46 124h-238z" />
    <glyph glyph-name="abreve" unicode="&#x103;" horiz-adv-x="473" 
d="M358 636q-5 -65 -34 -95.5t-86 -30.5q-68 0 -102 47q-11 17 -15.5 33.5t-5.5 45.5h25q5 -33 29 -50t66 -17q77 0 98 67h25zM305 232q-47 -8 -80.5 -18.5t-54.5 -25.5t-30.5 -35t-9.5 -47q0 -33 16.5 -51t46.5 -18q38 0 66 24t38 64q3 14 5.5 45.5t2.5 61.5zM468 42
q-15 -23 -32.5 -33t-42.5 -10q-35 0 -56.5 21.5t-25.5 59.5q-47 -90 -148 -90q-57 0 -91 28.5t-34 76.5q0 66 67 109.5t200 63.5q0 21 -1 36.5t-2.5 26.5t-4 20t-6.5 17q-18 35 -73 35q-29 0 -52 -10.5t-23 -24.5q0 -5 1.5 -9t9.5 -12q11 -14 11 -29q0 -22 -14.5 -36.5
t-36.5 -14.5q-23 0 -38 16t-15 42q0 24 13.5 45t37.5 36.5t56 24.5t69 9q38 0 68 -9.5t48 -26.5q9 -9 15 -18t9.5 -21.5t4.5 -30.5t1 -45v-158q0 -19 0.5 -31t1 -19.5t2.5 -12t5 -8.5q9 -11 21 -11q8 0 14.5 4t17.5 13z" />
    <glyph glyph-name="Aogonek" unicode="&#x104;" horiz-adv-x="653" 
d="M181 213l-13 -33q-11 -29 -16 -48t-5 -32q0 -17 9.5 -32t24.5 -20q10 -5 20 -6.5t33 -3.5v-38h-237v38q22 2 38 8.5t29 21.5t25.5 41t27.5 67l191 503h41l216 -580q6 -17 10.5 -27t8.5 -15.5t8.5 -8.5t12.5 -5t18 -2.5t33 -2.5v-38q-48 -7 -76 -30.5t-28 -56.5
q0 -21 16 -35t40 -14q14 0 26.5 3.5t34.5 14.5l18 -28q-49 -38 -102 -38q-38 0 -62 22t-24 58q0 32 19 58.5t54 45.5h-185v38q52 1 69 5.5t17 17.5q0 5 -1.5 9.5t-6.5 18.5l-46 124h-238zM300 536l-103 -281h206z" />
    <glyph glyph-name="aogonek" unicode="&#x105;" horiz-adv-x="473" 
d="M468 42q-5 -7 -8 -11t-8 -8.5t-13 -9.5t-21 -13q-54 -36 -54 -80q0 -21 15 -34t38 -13q12 0 25 4t32 14l16 -27q-44 -35 -95 -35q-35 0 -57.5 20t-22.5 51q0 28 14.5 50.5t50.5 49.5q-64 14 -69 80q-47 -90 -148 -90q-57 0 -91 28.5t-34 76.5q0 66 67 109.5t200 63.5
q0 21 -1 36.5t-2.5 26.5t-4 20t-6.5 17q-18 35 -73 35q-29 0 -52 -10.5t-23 -24.5q0 -5 1.5 -9t9.5 -12q11 -14 11 -29q0 -22 -14.5 -36.5t-36.5 -14.5q-23 0 -38 16t-15 42q0 24 13.5 45t37.5 36.5t56 24.5t69 9q38 0 68 -9.5t48 -26.5q9 -9 15 -18t9.5 -21.5t4.5 -30.5
t1 -45v-158q0 -19 0.5 -31t1 -19.5t2.5 -12t5 -8.5q9 -11 21 -11q8 0 14.5 4t17.5 13zM305 232q-47 -8 -80.5 -18.5t-54.5 -25.5t-30.5 -35t-9.5 -47q0 -33 16.5 -51t46.5 -18q38 0 65.5 24t38.5 64q3 14 5.5 45.5t2.5 61.5z" />
    <glyph glyph-name="Cacute" unicode="&#x106;" horiz-adv-x="618" 
d="M560 410l-35 -4q-13 53 -23.5 83t-25.5 56q-55 97 -147 97q-85 0 -129.5 -82t-44.5 -239q0 -291 188 -291q98 0 152 89q13 22 22.5 48t20.5 70l37 -8q-7 -33 -14.5 -59t-16.5 -46t-19.5 -36.5t-24.5 -31.5q-66 -71 -169 -71q-62 0 -115 25.5t-91.5 71t-60.5 107.5
t-22 134q0 69 22.5 136t63.5 121q38 49 89 75.5t108 26.5q50 0 88 -17t73 -54l33 64h29zM375 826q14 15 23 23.5t15 13t10.5 5.5t10.5 1q14 0 24 -10.5t10 -24.5q0 -16 -12.5 -28t-45.5 -29l-97 -50l-16 20z" />
    <glyph glyph-name="cacute" unicode="&#x107;" horiz-adv-x="421" 
d="M401 124q-11 -32 -20 -50t-23 -34q-22 -23 -54 -36.5t-69 -13.5q-43 0 -79 16t-62.5 45t-41 69t-14.5 87q0 50 15.5 92.5t43 73t65.5 48t83 17.5q30 0 55.5 -8.5t44.5 -23t29.5 -34.5t10.5 -43q0 -26 -15.5 -44t-38.5 -18q-20 0 -35 15t-15 35q0 6 0.5 9.5t2 7.5t4.5 9
t9 13q5 5 5 13q0 14 -17.5 23.5t-42.5 9.5q-53 0 -82.5 -46t-29.5 -130q0 -91 32 -140t91 -49q26 0 49 11t37 31q8 11 14 22.5t17 35.5zM289 603l24 24q9 9 15 13t10.5 5t10.5 1q14 0 23.5 -10.5t9.5 -25.5t-12.5 -27t-44.5 -29l-98 -51l-16 20z" />
    <glyph glyph-name="Ccircumflex" unicode="&#x108;" horiz-adv-x="618" 
d="M560 410l-35 -4q-13 53 -23.5 83t-25.5 56q-55 97 -147 97q-85 0 -129.5 -82t-44.5 -239q0 -291 188 -291q98 0 152 89q13 22 22.5 48t20.5 70l37 -8q-7 -33 -14.5 -59t-16.5 -46t-19.5 -36.5t-24.5 -31.5q-66 -71 -169 -71q-62 0 -115 25.5t-91.5 71t-60.5 107.5
t-22 134q0 69 22.5 136t63.5 121q38 49 89 75.5t108 26.5q50 0 88 -17t73 -54l33 64h29zM480 727h-38l-105 82l-109 -82h-36l120 135h52z" />
    <glyph glyph-name="ccircumflex" unicode="&#x109;" horiz-adv-x="421" 
d="M401 124q-11 -32 -20 -50t-23 -34q-22 -23 -54 -36.5t-69 -13.5q-43 0 -79 16t-62.5 45t-41 69t-14.5 87q0 50 15.5 92.5t43 73t65.5 48t83 17.5q30 0 55.5 -8.5t44.5 -23t29.5 -34.5t10.5 -43q0 -26 -15.5 -44t-38.5 -18q-20 0 -35 15t-15 35q0 6 0.5 9.5t2 7.5t4.5 9
t9 13q5 5 5 13q0 14 -17.5 23.5t-42.5 9.5q-53 0 -82.5 -46t-29.5 -130q0 -91 32 -140t91 -49q26 0 49 11t37 31q8 11 14 22.5t17 35.5zM356 503h-37l-106 83l-108 -83h-37l120 136h52z" />
    <glyph glyph-name="Cdotaccent" unicode="&#x10a;" horiz-adv-x="618" 
d="M560 410l-35 -4q-13 53 -23.5 83t-25.5 56q-55 97 -147 97q-85 0 -129.5 -82t-44.5 -239q0 -291 188 -291q98 0 152 89q13 22 22.5 48t20.5 70l37 -8q-7 -33 -14.5 -59t-16.5 -46t-19.5 -36.5t-24.5 -31.5q-66 -71 -169 -71q-62 0 -115 25.5t-91.5 71t-60.5 107.5
t-22 134q0 69 22.5 136t63.5 121q38 49 89 75.5t108 26.5q50 0 88 -17t73 -54l33 64h29zM323 850q22 0 37.5 -15.5t15.5 -37.5q0 -23 -15.5 -38.5t-38.5 -15.5q-22 0 -37.5 15.5t-15.5 37.5q0 23 15.5 38.5t38.5 15.5z" />
    <glyph glyph-name="cdotaccent" unicode="&#x10b;" horiz-adv-x="421" 
d="M401 124q-11 -32 -20 -50t-23 -34q-22 -23 -54 -36.5t-69 -13.5q-43 0 -79 16t-62.5 45t-41 69t-14.5 87q0 50 15.5 92.5t43 73t65.5 48t83 17.5q30 0 55.5 -8.5t44.5 -23t29.5 -34.5t10.5 -43q0 -26 -15.5 -44t-38.5 -18q-20 0 -35 15t-15 35q0 6 0.5 9.5t2 7.5t4.5 9
t9 13q5 5 5 13q0 14 -17.5 23.5t-42.5 9.5q-53 0 -82.5 -46t-29.5 -130q0 -91 32 -140t91 -49q26 0 49 11t37 31q8 11 14 22.5t17 35.5zM244 627q22 0 37.5 -15.5t15.5 -37.5q0 -23 -15.5 -38.5t-38.5 -15.5q-22 0 -37.5 15.5t-15.5 37.5q0 23 15.5 38.5t38.5 15.5z" />
    <glyph glyph-name="Ccaron" unicode="&#x10c;" horiz-adv-x="618" 
d="M560 410l-35 -4q-13 53 -23.5 83t-25.5 56q-55 97 -147 97q-85 0 -129.5 -82t-44.5 -239q0 -291 188 -291q98 0 152 89q13 22 22.5 48t20.5 70l37 -8q-7 -33 -14.5 -59t-16.5 -46t-19.5 -36.5t-24.5 -31.5q-66 -71 -169 -71q-62 0 -115 25.5t-91.5 71t-60.5 107.5
t-22 134q0 69 22.5 136t63.5 121q38 49 89 75.5t108 26.5q50 0 88 -17t73 -54l33 64h29zM185 862h37l106 -82l108 82h37l-120 -135h-52z" />
    <glyph glyph-name="ccaron" unicode="&#x10d;" horiz-adv-x="421" 
d="M401 124q-11 -32 -20 -50t-23 -34q-22 -23 -54 -36.5t-69 -13.5q-43 0 -79 16t-62.5 45t-41 69t-14.5 87q0 50 15.5 92.5t43 73t65.5 48t83 17.5q30 0 55.5 -8.5t44.5 -23t29.5 -34.5t10.5 -43q0 -26 -15.5 -44t-38.5 -18q-20 0 -35 15t-15 35q0 6 0.5 9.5t2 7.5t4.5 9
t9 13q5 5 5 13q0 14 -17.5 23.5t-42.5 9.5q-53 0 -82.5 -46t-29.5 -130q0 -91 32 -140t91 -49q26 0 49 11t37 31q8 11 14 22.5t17 35.5zM99 639h38l106 -83l108 83h37l-120 -136h-53z" />
    <glyph glyph-name="Dcaron" unicode="&#x10e;" horiz-adv-x="669" 
d="M144 862h37l106 -82l108 82h37l-120 -135h-52zM283 667q42 0 73.5 -2t56 -7.5t45 -14.5t41.5 -23q61 -40 94.5 -115.5t33.5 -172.5q0 -155 -86 -247q-23 -24 -47 -40.5t-54 -26t-68 -14t-88 -4.5h-255v37l24 2q33 2 45.5 3t18.5 4q7 3 8.5 10.5t1.5 38.5v477
q0 17 -0.5 26.5t-2 14.5t-4.5 6.5t-8 3.5q-6 2 -17 2.5t-42 2.5l-24 1v38h254zM310 42q66 0 103.5 19t63.5 65q10 18 17 39t11.5 47t6.5 58.5t2 73.5q0 93 -13.5 146t-45.5 86q-26 26 -61.5 37.5t-90.5 11.5h-42q-27 0 -33 -5.5t-6 -30.5v-505q0 -14 1 -22.5t5.5 -13
t13 -5.5t22.5 -1h46z" />
    <glyph glyph-name="dcaron" unicode="&#x10f;" horiz-adv-x="585" 
d="M424 97q0 -21 2 -33.5t9 -19.5t20 -9t34 -2h12v-33l-20 -1l-48 -1q-13 0 -22.5 -0.5t-18.5 -1t-18 -1.5t-21 -2q-10 28 -8 87q-40 -93 -134 -93q-37 0 -68.5 16t-55 44.5t-36.5 67t-13 83.5q0 50 14.5 93.5t40 76t59.5 51.5t73 19q77 0 121 -80v221q0 16 -1 24.5t-3 11.5
t-5 7q-12 13 -55 13h-20v34q38 0 61.5 0.5t40 1.5t29.5 1.5t31 2.5v-578zM239 391q-51 0 -81 -50t-30 -135t26 -128.5t77 -43.5q54 0 84 47t30 133q0 84 -28 130.5t-78 46.5zM489 514q46 37 46 68q0 9 -11 9q-47 1 -47 42q0 21 14 35t35 14q24 0 39.5 -18.5t15.5 -47.5
q0 -35 -17.5 -64t-56.5 -60z" />
    <glyph glyph-name="Dcroat" unicode="&#x110;" horiz-adv-x="669" 
d="M29 371h98v201q0 17 -0.5 26.5t-2 14.5t-4.5 6.5t-8 3.5q-6 2 -17 2.5t-42 2.5l-24 1v38h254q42 0 73 -2t56 -7.5t45.5 -14.5t41.5 -23q61 -40 94.5 -115t33.5 -173q0 -155 -86 -247q-23 -24 -47 -40.5t-54 -26t-68 -14t-88 -4.5h-255v37l24 2q33 2 45.5 3t18.5 4
q7 3 8.5 10.5t1.5 38.5v238h-98v38zM369 371v-38h-147v-249q0 -14 1 -22.5t5.5 -13t13 -5.5t22.5 -1h46q64 0 102.5 19.5t62.5 64.5q18 32 28.5 92t10.5 130q0 81 -15.5 139t-45.5 89q-25 26 -60.5 37.5t-89.5 11.5h-42q-27 0 -33 -5.5t-6 -30.5v-218h147z" />
    <glyph glyph-name="dcroat" unicode="&#x111;" horiz-adv-x="514" 
d="M424 136q0 -30 0.5 -46.5t1.5 -25t2.5 -11.5t4.5 -7q12 -13 56 -13h12v-33l-20 -1l-48 -1q-26 -1 -41 -2t-39 -3q-4 13 -6 36.5t-2 50.5q-40 -93 -134 -93q-37 0 -68.5 16t-55 44.5t-36.5 67t-13 83.5q0 50 14.5 93.5t40 76t59.5 51.5t73 19q40 0 68.5 -19t51.5 -61v155
h-131v34h131v20q0 22 -2 35.5t-9 20.5t-19 9.5t-33 2.5h-20v34q38 0 61.5 0.5t40 1.5t29.5 1.5t31 2.5v-128h77v-34h-77v-377zM239 391q-51 0 -81 -50t-30 -135q0 -84 26 -128t77 -44q54 0 84 47t30 133q0 84 -28 130.5t-78 46.5z" />
    <glyph glyph-name="Emacron" unicode="&#x112;" horiz-adv-x="626" 
d="M467 767h-309v55h309v-55zM555 432l-31 -3q-10 57 -24 94.5t-36.5 60t-54.5 31.5t-78 9h-64q-16 0 -25 -1t-13.5 -4.5t-5.5 -11.5t-1 -22v-221q40 -1 67 4.5t44.5 20t26.5 40.5t13 65h35v-306h-35q-2 40 -9.5 66.5t-25 42.5t-46 22.5t-70.5 6.5v-245q0 -14 1 -21.5
t5 -11.5t12 -5t22 -1h82q33 0 57 3.5t42 12t31.5 22t25.5 34.5q12 23 22 53t22 85l31 -3l-9 -249h-537v38l24 1q18 1 28.5 1.5t17.5 1t11 1.5t7 3q7 3 8.5 10.5t1.5 38.5v477q0 17 -0.5 26.5t-2 14.5t-4.5 6.5t-8 3.5q-6 2 -18 3t-41 2l-24 1v38h515z" />
    <glyph glyph-name="emacron" unicode="&#x113;" horiz-adv-x="448" 
d="M351 545h-255v52h255v-52zM268 246q18 0 29 1t16.5 5t7 11.5t1.5 20.5q0 55 -23.5 87t-64.5 32q-46 0 -73 -40t-32 -117h139zM129 208q0 -85 30.5 -129.5t90.5 -44.5q45 0 75 23t58 79l32 -17q-34 -71 -74.5 -101.5t-103.5 -30.5q-44 0 -81 16t-63 44.5t-40.5 69
t-14.5 88.5q0 49 15.5 92t42 74.5t62.5 50t77 18.5q81 0 128 -61t52 -171h-286z" />
    <glyph glyph-name="Ebreve" unicode="&#x114;" horiz-adv-x="626" 
d="M434 859q0 -61 -31 -93.5t-89 -32.5q-54 0 -88.5 31t-34.5 80v15h25q5 -33 29 -50t66 -17q79 0 98 67h25zM555 432l-31 -3q-10 57 -24 94.5t-36.5 60t-54.5 31.5t-78 9h-64q-16 0 -25 -1t-13.5 -4.5t-5.5 -11.5t-1 -22v-221q40 -1 67 4.5t44.5 20t26.5 40.5t13 65h35
v-306h-35q-2 40 -9.5 66.5t-25 42.5t-46 22.5t-70.5 6.5v-245q0 -14 1 -21.5t5 -11.5t12 -5t22 -1h82q33 0 57 3.5t42 12t31.5 22t25.5 34.5q12 23 22 53t22 85l31 -3l-9 -249h-537v38l24 1q18 1 28.5 1.5t17.5 1t11 1.5t7 3q7 3 8.5 10.5t1.5 38.5v477q0 17 -0.5 26.5
t-2 14.5t-4.5 6.5t-8 3.5q-6 2 -18 3t-41 2l-24 1v38h515z" />
    <glyph glyph-name="ebreve" unicode="&#x115;" horiz-adv-x="448" 
d="M345 636q-5 -65 -34 -95.5t-86 -30.5q-67 0 -101 47q-12 17 -16.5 33.5t-4.5 45.5h24q11 -67 95 -67q79 0 98 67h25zM268 246q18 0 29 1t16.5 5t7 11.5t1.5 20.5q0 55 -23.5 87t-64.5 32q-46 0 -73 -40t-32 -117h139zM129 208q0 -85 30.5 -129.5t90.5 -44.5q45 0 75 23
t58 79l32 -17q-34 -71 -74.5 -101.5t-103.5 -30.5q-44 0 -81 16t-63 44.5t-40.5 69t-14.5 88.5q0 49 15.5 92t42 74.5t62.5 50t77 18.5q81 0 128 -61t52 -171h-286z" />
    <glyph glyph-name="Edotaccent" unicode="&#x116;" horiz-adv-x="626" 
d="M313 850q22 0 37.5 -15.5t15.5 -37.5q0 -23 -15.5 -38.5t-38.5 -15.5q-22 0 -37.5 15.5t-15.5 37.5q0 23 15.5 38.5t38.5 15.5zM555 432l-31 -3q-10 57 -24 94.5t-36.5 60t-54.5 31.5t-78 9h-64q-16 0 -25 -1t-13.5 -4.5t-5.5 -11.5t-1 -22v-221q40 -1 67 4.5t44.5 20
t26.5 40.5t13 65h35v-306h-35q-2 40 -9.5 66.5t-25 42.5t-46 22.5t-70.5 6.5v-245q0 -14 1 -21.5t5 -11.5t12 -5t22 -1h82q33 0 57 3.5t42 12t31.5 22t25.5 34.5q12 23 22 53t22 85l31 -3l-9 -249h-537v38l24 1q18 1 28.5 1.5t17.5 1t11 1.5t7 3q7 3 8.5 10.5t1.5 38.5v477
q0 17 -0.5 26.5t-2 14.5t-4.5 6.5t-8 3.5q-6 2 -18 3t-41 2l-24 1v38h515z" />
    <glyph glyph-name="edotaccent" unicode="&#x117;" horiz-adv-x="448" 
d="M224 627q22 0 37.5 -15.5t15.5 -37.5q0 -23 -15.5 -38.5t-38.5 -15.5q-22 0 -37.5 15.5t-15.5 37.5q0 23 15.5 38.5t38.5 15.5zM268 246q18 0 29 1t16.5 5t7 11.5t1.5 20.5q0 55 -23.5 87t-64.5 32q-46 0 -73 -40t-32 -117h139zM129 208q0 -85 30.5 -129.5t90.5 -44.5
q45 0 75 23t58 79l32 -17q-34 -71 -74.5 -101.5t-103.5 -30.5q-44 0 -81 16t-63 44.5t-40.5 69t-14.5 88.5q0 49 15.5 92t42 74.5t62.5 50t77 18.5q81 0 128 -61t52 -171h-286z" />
    <glyph glyph-name="Eogonek" unicode="&#x118;" horiz-adv-x="626" 
d="M555 432l-31 -3q-10 57 -24 94.5t-36.5 60t-54.5 31.5t-78 9h-64q-16 0 -25 -1t-13.5 -4.5t-5.5 -11.5t-1 -22v-221q40 -1 67 4.5t44.5 20t26.5 40.5t13 65h35v-306h-35q-2 40 -9.5 66.5t-25 42.5t-46 22.5t-70.5 6.5v-245q0 -14 1 -21.5t5 -11.5t12 -5t22 -1h82
q33 0 57 3.5t42 12t31.5 22t25.5 34.5q12 23 22 53t22 85l31 -3l-8 -249q-49 -7 -77 -30.5t-28 -56.5q0 -21 16 -35t41 -14q14 0 26.5 3.5t34.5 14.5l17 -28q-47 -38 -102 -38q-38 0 -62 22t-24 58q0 32 19 58.5t54 45.5h-453v38l24 1q18 1 28.5 1.5t17.5 1t11 1.5t7 3
q7 3 8.5 10.5t1.5 38.5v477q0 17 -0.5 26.5t-2 14.5t-4.5 6.5t-8 3.5q-6 2 -18 3t-41 2l-24 1v38h515z" />
    <glyph glyph-name="eogonek" unicode="&#x119;" horiz-adv-x="448" 
d="M129 208q0 -85 30.5 -129.5t90.5 -44.5q45 0 75 23t58 79l32 -17q-12 -25 -21 -41t-20 -28.5t-27 -24.5t-42 -30q-47 -33 -47 -75q0 -21 14.5 -34t39.5 -13q12 0 24 4t32 14l16 -27q-44 -35 -95 -35q-35 0 -57.5 20t-22.5 51q0 46 49 88q-8 -1 -13 -1h-10q-44 0 -80 16
t-62 45t-40.5 69t-14.5 88q0 49 15.5 92t42 74.5t62.5 50t77 18.5q81 0 128 -61t52 -171h-286zM268 246q18 0 29 1t16.5 5t7 11.5t1.5 20.5q0 55 -23.5 87t-64.5 32q-46 0 -73 -40t-32 -117h139z" />
    <glyph glyph-name="Ecaron" unicode="&#x11a;" horiz-adv-x="626" 
d="M169 862h37l106 -82l108 82h37l-120 -135h-52zM555 432l-31 -3q-10 57 -24 94.5t-36.5 60t-54.5 31.5t-78 9h-64q-16 0 -25 -1t-13.5 -4.5t-5.5 -11.5t-1 -22v-221q40 -1 67 4.5t44.5 20t26.5 40.5t13 65h35v-306h-35q-2 40 -9.5 66.5t-25 42.5t-46 22.5t-70.5 6.5v-245
q0 -14 1 -21.5t5 -11.5t12 -5t22 -1h82q33 0 57 3.5t42 12t31.5 22t25.5 34.5q12 23 22 53t22 85l31 -3l-9 -249h-537v38l24 1q18 1 28.5 1.5t17.5 1t11 1.5t7 3q7 3 8.5 10.5t1.5 38.5v477q0 17 -0.5 26.5t-2 14.5t-4.5 6.5t-8 3.5q-6 2 -18 3t-41 2l-24 1v38h515z" />
    <glyph glyph-name="ecaron" unicode="&#x11b;" horiz-adv-x="448" 
d="M80 639h37l106 -83l108 83h37l-120 -136h-52zM268 246q18 0 29 1t16.5 5t7 11.5t1.5 20.5q0 55 -23.5 87t-64.5 32q-46 0 -73 -40t-32 -117h139zM129 208q0 -85 30.5 -129.5t90.5 -44.5q45 0 75 23t58 79l32 -17q-34 -71 -74.5 -101.5t-103.5 -30.5q-44 0 -81 16
t-63 44.5t-40.5 69t-14.5 88.5q0 49 15.5 92t42 74.5t62.5 50t77 18.5q81 0 128 -61t52 -171h-286z" />
    <glyph glyph-name="Gcircumflex" unicode="&#x11c;" horiz-adv-x="687" 
d="M576 421l-32 -2q-60 223 -207 223q-89 0 -135.5 -87t-46.5 -252q0 -139 46 -209t137 -70q74 0 114.5 45t40.5 126v24q0 16 -2 25.5t-8 14.5t-18.5 7t-33.5 2l-40 1v38h276v-38l-29 -1q-22 0 -34 -1.5t-17.5 -6t-6.5 -14.5t-1 -28v-93q0 -29 2 -64.5t4 -63.5h-36l-32 96
q-51 -108 -186 -108q-64 0 -117 24.5t-91.5 68t-59.5 104.5t-21 135q0 76 23.5 142.5t64 116t95 78t116.5 28.5q52 0 89.5 -16.5t68.5 -52.5l37 63h31zM488 727h-38l-105 82l-109 -82h-37l120 135h53z" />
    <glyph glyph-name="gcircumflex" unicode="&#x11d;" horiz-adv-x="482" 
d="M367 372q18 -23 25 -41t7 -42q0 -32 -12.5 -59t-35.5 -46t-55 -29.5t-71 -10.5h-15q-9 0 -18 1q-8 1 -16 1h-13q-58 0 -58 -37q0 -22 23 -29q10 -2 23 -3t46 -1l72 1q49 0 76.5 -6.5t47.5 -23.5q34 -28 34 -81q0 -69 -58 -107.5t-161 -38.5q-87 0 -137 25t-50 69
q0 34 27.5 57.5t75.5 30.5q-81 16 -81 79q0 77 95 92q-42 17 -61.5 44t-19.5 70q0 32 13 59.5t35.5 47.5t53.5 31.5t67 11.5q35 0 62.5 -9.5t56.5 -31.5q17 15 29.5 24t22.5 14.5t19.5 7.5t20.5 2q23 0 38.5 -14.5t15.5 -36.5q0 -20 -13.5 -33.5t-32.5 -13.5
q-16 0 -23.5 7.5t-15.5 29.5q-1 7 -10 7q-5 0 -18 -9zM230 404q-40 0 -62.5 -30.5t-22.5 -84.5q0 -52 23 -82.5t61 -30.5t61 31.5t23 85.5t-21.5 82.5t-61.5 28.5zM212 -9q-33 0 -49 -2.5t-30 -10.5t-23 -23.5t-9 -32.5q0 -66 118 -66q66 0 103.5 19.5t37.5 54.5
q0 45 -54 56q-13 3 -33.5 4t-60.5 1zM385 503h-38l-105 83l-108 -83h-37l120 136h52z" />
    <glyph glyph-name="Gbreve" unicode="&#x11e;" horiz-adv-x="687" 
d="M576 421l-32 -2q-60 223 -207 223q-89 0 -135.5 -87t-46.5 -252q0 -139 46 -209t137 -70q74 0 114.5 45t40.5 126v24q0 16 -2 25.5t-8 14.5t-18.5 7t-33.5 2l-40 1v38h276v-38l-29 -1q-22 0 -34 -1.5t-17.5 -6t-6.5 -14.5t-1 -28v-93q0 -29 2 -64.5t4 -63.5h-36l-32 96
q-51 -108 -186 -108q-64 0 -117 24.5t-91.5 68t-59.5 104.5t-21 135q0 76 23.5 142.5t64 116t95 78t116.5 28.5q52 0 89.5 -16.5t68.5 -52.5l37 63h31zM465 859q0 -61 -31 -93.5t-89 -32.5q-54 0 -88.5 31t-34.5 80v15h25q9 -67 95 -67q77 0 98 67h25z" />
    <glyph glyph-name="gbreve" unicode="&#x11f;" horiz-adv-x="482" 
d="M367 372q18 -23 25 -41t7 -42q0 -32 -12.5 -59t-35.5 -46t-55 -29.5t-71 -10.5h-15q-9 0 -18 1q-8 1 -16 1h-13q-58 0 -58 -37q0 -22 23 -29q10 -2 23 -3t46 -1l72 1q49 0 76.5 -6.5t47.5 -23.5q34 -28 34 -81q0 -69 -58 -107.5t-161 -38.5q-87 0 -137 25t-50 69
q0 34 27.5 57.5t75.5 30.5q-81 16 -81 79q0 77 95 92q-42 17 -61.5 44t-19.5 70q0 32 13 59.5t35.5 47.5t53.5 31.5t67 11.5q35 0 62.5 -9.5t56.5 -31.5q17 15 29.5 24t22.5 14.5t19.5 7.5t20.5 2q23 0 38.5 -14.5t15.5 -36.5q0 -20 -13.5 -33.5t-32.5 -13.5
q-16 0 -23.5 7.5t-15.5 29.5q-1 7 -10 7q-5 0 -18 -9zM230 404q-40 0 -62.5 -30.5t-22.5 -84.5q0 -52 23 -82.5t61 -30.5t61 31.5t23 85.5t-21.5 82.5t-61.5 28.5zM212 -9q-33 0 -49 -2.5t-30 -10.5t-23 -23.5t-9 -32.5q0 -66 118 -66q66 0 103.5 19.5t37.5 54.5
q0 45 -54 56q-13 3 -33.5 4t-60.5 1zM362 636q-5 -65 -34 -95.5t-86 -30.5q-67 0 -101 47q-12 17 -16.5 33.5t-4.5 45.5h24q11 -67 95 -67q79 0 98 67h25z" />
    <glyph glyph-name="Gdotaccent" unicode="&#x120;" horiz-adv-x="687" 
d="M576 421l-32 -2q-60 223 -207 223q-89 0 -135.5 -87t-46.5 -252q0 -139 46 -209t137 -70q74 0 114.5 45t40.5 126v24q0 16 -2 25.5t-8 14.5t-18.5 7t-33.5 2l-40 1v38h276v-38l-29 -1q-22 0 -34 -1.5t-17.5 -6t-6.5 -14.5t-1 -28v-93q0 -29 2 -64.5t4 -63.5h-36l-32 96
q-51 -108 -186 -108q-64 0 -117 24.5t-91.5 68t-59.5 104.5t-21 135q0 76 23.5 142.5t64 116t95 78t116.5 28.5q52 0 89.5 -16.5t68.5 -52.5l37 63h31zM344 850q22 0 37.5 -15.5t15.5 -37.5q0 -23 -15.5 -38.5t-38.5 -15.5q-22 0 -37.5 15.5t-15.5 37.5q0 23 15.5 38.5
t38.5 15.5z" />
    <glyph glyph-name="gdotaccent" unicode="&#x121;" horiz-adv-x="482" 
d="M367 372q18 -23 25 -41t7 -42q0 -32 -12.5 -59t-35.5 -46t-55 -29.5t-71 -10.5h-15q-9 0 -18 1q-8 1 -16 1h-13q-58 0 -58 -37q0 -22 23 -29q10 -2 23 -3t46 -1l72 1q49 0 76.5 -6.5t47.5 -23.5q34 -28 34 -81q0 -69 -58 -107.5t-161 -38.5q-87 0 -137 25t-50 69
q0 34 27.5 57.5t75.5 30.5q-81 16 -81 79q0 77 95 92q-42 17 -61.5 44t-19.5 70q0 32 13 59.5t35.5 47.5t53.5 31.5t67 11.5q35 0 62.5 -9.5t56.5 -31.5q17 15 29.5 24t22.5 14.5t19.5 7.5t20.5 2q23 0 38.5 -14.5t15.5 -36.5q0 -20 -13.5 -33.5t-32.5 -13.5
q-16 0 -23.5 7.5t-15.5 29.5q-1 7 -10 7q-5 0 -18 -9zM230 404q-40 0 -62.5 -30.5t-22.5 -84.5q0 -52 23 -82.5t61 -30.5t61 31.5t23 85.5t-21.5 82.5t-61.5 28.5zM212 -9q-33 0 -49 -2.5t-30 -10.5t-23 -23.5t-9 -32.5q0 -66 118 -66q66 0 103.5 19.5t37.5 54.5
q0 45 -54 56q-13 3 -33.5 4t-60.5 1zM241 627q22 0 37.5 -15.5t15.5 -37.5q0 -23 -15.5 -38.5t-38.5 -15.5q-22 0 -37.5 15.5t-15.5 37.5q0 23 15.5 38.5t38.5 15.5z" />
    <glyph glyph-name="Gcommaaccent" unicode="&#x122;" horiz-adv-x="687" 
d="M576 421l-32 -2q-60 223 -207 223q-89 0 -135.5 -87t-46.5 -252q0 -139 46 -209t137 -70q74 0 114.5 45t40.5 126v24q0 16 -2 25.5t-8 14.5t-18.5 7t-33.5 2l-40 1v38h276v-38l-29 -1q-22 0 -34 -1.5t-17.5 -6t-6.5 -14.5t-1 -28v-93q0 -29 2 -64.5t4 -63.5h-36l-32 96
q-51 -108 -186 -108q-64 0 -117 24.5t-91.5 68t-59.5 104.5t-21 135q0 76 23.5 142.5t64 116t95 78t116.5 28.5q52 0 89.5 -16.5t68.5 -52.5l37 63h31zM302 -227q47 40 47 71q0 9 -11 9q-48 3 -48 44q0 21 14.5 35.5t36.5 14.5q24 0 40 -19.5t16 -48.5q0 -36 -18 -66
t-59 -62z" />
    <glyph glyph-name="gcommaaccent" unicode="&#x123;" horiz-adv-x="482" 
d="M367 372q18 -23 25 -41t7 -42q0 -32 -12.5 -59t-35.5 -46t-55 -29.5t-71 -10.5h-15q-9 0 -18 1q-8 1 -16 1h-13q-58 0 -58 -37q0 -22 23 -29q10 -2 23 -3t46 -1l72 1q49 0 76.5 -6.5t47.5 -23.5q34 -28 34 -81q0 -69 -58 -107.5t-161 -38.5q-87 0 -137 25t-50 69
q0 34 27.5 57.5t75.5 30.5q-81 16 -81 79q0 77 95 92q-42 17 -61.5 44t-19.5 70q0 32 13 59.5t35.5 47.5t53.5 31.5t67 11.5q35 0 62.5 -9.5t56.5 -31.5q17 15 29.5 24t22.5 14.5t19.5 7.5t20.5 2q23 0 38.5 -14.5t15.5 -36.5q0 -20 -13.5 -33.5t-32.5 -13.5
q-16 0 -23.5 7.5t-15.5 29.5q-1 7 -10 7q-5 0 -18 -9zM230 404q-40 0 -62.5 -30.5t-22.5 -84.5q0 -52 23 -82.5t61 -30.5t61 31.5t23 85.5t-21.5 82.5t-61.5 28.5zM212 -9q-33 0 -49 -2.5t-30 -10.5t-23 -23.5t-9 -32.5q0 -66 118 -66q66 0 103.5 19.5t37.5 54.5
q0 45 -54 56q-13 3 -33.5 4t-60.5 1zM281 688q-46 -38 -46 -68q0 -9 11 -9q47 -3 47 -43q0 -20 -14 -34t-35 -14q-24 0 -39.5 18.5t-15.5 47.5q0 35 17.5 64t56.5 60z" />
    <glyph glyph-name="Hcircumflex" unicode="&#x124;" horiz-adv-x="723" 
d="M222 323v-229q0 -16 0.5 -25.5t2 -14.5t4.5 -7t8 -3q6 -2 19 -3t39 -2l25 -2v-37h-291v37l24 2q33 2 45.5 3t18.5 4q7 3 8.5 10.5t1.5 37.5v479q0 16 -0.5 25.5t-2 14.5t-4.5 6.5t-8 3.5q-6 2 -18 3t-41 2l-24 2v37h290v-37l-24 -2q-33 -2 -45 -3t-18 -4
q-7 -3 -8.5 -10.5t-1.5 -37.5v-202h279v202q0 16 -0.5 25.5t-2 14.5t-4.5 6.5t-8 3.5q-6 2 -18 3t-40 2l-24 2v37h290v-37l-24 -2q-33 -2 -45.5 -3t-18.5 -4q-7 -3 -8.5 -10.5t-1.5 -37.5v-479q0 -17 0.5 -26t2 -14t4.5 -7t8 -3q6 -2 18 -3t41 -2l24 -2v-37h-291v37l25 2
q37 1 49.5 3t17.5 7q4 4 5 11.5t1 33.5v229h-279zM505 727h-37l-106 82l-108 -82h-37l120 135h53z" />
    <glyph glyph-name="hcircumflex" unicode="&#x125;" horiz-adv-x="528" 
d="M169 340q26 49 58.5 71.5t80.5 22.5q34 0 61.5 -14.5t44.5 -40.5q7 -12 12 -23t7.5 -26t3.5 -36t1 -52v-107q0 -32 0.5 -49t1 -25.5t1 -11t2.5 -4.5q8 -10 61 -10h10v-35h-227v35h8q54 0 60 11q1 3 1.5 5.5t1 11t1 25t0.5 47.5v87q0 22 -0.5 37.5t-1.5 27t-3 20t-5 17.5
q-8 24 -28 38t-47 14q-47 0 -77 -41q-16 -22 -22 -49.5t-6 -77.5v-73q0 -32 0.5 -49.5t1 -26.5t2 -11.5t3.5 -4.5q4 -4 19.5 -6t39.5 -2h8v-35h-227v35h9q50 0 58 8q2 2 3.5 4.5t2 11.5t1 26.5t0.5 49.5v397q0 30 -0.5 46.5t-1.5 24.5t-2.5 11.5t-4.5 6.5q-12 13 -55 13h-19
v34h16l68 2q14 1 30.5 2t47.5 3v-335zM408 695h-37l-106 83l-108 -83h-37l120 136h52z" />
    <glyph glyph-name="Hbar" unicode="&#x126;" horiz-adv-x="723" 
d="M127 572q0 17 -0.5 26.5t-2 14.5t-4.5 6.5t-8 3.5q-6 2 -18 3t-41 2l-24 1v38h290v-38l-24 -1q-32 -2 -44.5 -3t-18.5 -4q-7 -3 -8.5 -10.5t-1.5 -38.5v-55h279v55q0 17 -0.5 26.5t-2 14.5t-4.5 6.5t-8 3.5q-6 2 -18 3t-40 2l-24 1v38h290v-38l-24 -1q-33 -2 -45 -3
t-19 -4t-8.5 -10.5t-1.5 -38.5v-55h98v-38h-98v-385q0 -17 0.5 -26t2 -14t4.5 -7t8 -3q6 -2 18 -3t41 -2l24 -2v-37h-291v37l25 2q37 1 49.5 3t17.5 7q4 4 5 11.5t1 33.5v229h-279v-229q0 -16 0.5 -25.5t2 -14.5t4.5 -7t8 -3q6 -2 19 -3t39 -2l25 -2v-37h-291v37l24 2
q33 2 45.5 3t18.5 4q7 3 8.5 10.5t1.5 37.5v385h-98v38h98v55zM222 479v-108h279v108h-279z" />
    <glyph glyph-name="hbar" unicode="&#x127;" horiz-adv-x="528" 
d="M90 570q0 21 -2 33.5t-9 19.5t-19.5 9t-33.5 2h-19v34h16l68 2q14 1 30.5 2t47.5 3v-128h125v-34h-125v-173q26 49 58.5 71.5t80.5 22.5q34 0 61.5 -14.5t44.5 -40.5q7 -12 12 -23t7.5 -26t3.5 -36t1 -52v-107q0 -32 0.5 -49.5t1 -26.5t2 -11.5t3.5 -4.5q4 -4 19.5 -6
t39.5 -2h10v-35h-227v35h7q50 0 58 8q2 2 3.5 4.5t2 11.5t1 26.5t0.5 49.5v87q0 22 -0.5 37.5t-1.5 27t-3 20t-5 17.5q-8 24 -28 38t-47 14q-47 0 -77 -41q-16 -22 -22 -50t-6 -77v-73q0 -32 0.5 -49.5t1 -26.5t2 -11.5t3.5 -4.5q4 -4 19.5 -6t39.5 -2h8v-35h-227v35h9
q50 0 58 8q2 2 3.5 4.5t2 11.5t1 26.5t0.5 49.5v378h-83v34h83v23z" />
    <glyph glyph-name="Itilde" unicode="&#x128;" horiz-adv-x="349" 
d="M29 37l24 2q33 2 45.5 3t18.5 4q7 3 8.5 10.5t1.5 38.5v477q0 17 -0.5 26.5t-2 14.5t-4.5 6.5t-8 3.5q-6 2 -18 3t-41 2l-24 2v37h291v-37l-24 -2q-33 -2 -45.5 -3t-18.5 -4q-7 -3 -8.5 -10.5t-1.5 -38.5v-477q0 -17 0.5 -26.5t2 -14.5t4.5 -7t8 -3q6 -2 18 -3t41 -2
l24 -2v-37h-291v37zM331 859q-9 -48 -32.5 -74.5t-56.5 -26.5q-28 0 -85 29q-19 10 -30 15.5t-18 8.5t-11 3.5t-10 0.5q-29 0 -39 -44l-29 4q21 95 91 95q16 0 31.5 -5.5t45.5 -21.5t46 -22t27 -6q31 0 42 47z" />
    <glyph glyph-name="itilde" unicode="&#x129;" horiz-adv-x="275" 
d="M186 135q0 -32 0.5 -49.5t1 -26.5t2 -11.5t3.5 -4.5q4 -4 19.5 -6t39.5 -2h13v-35h-236v35h13q50 0 58 8q2 2 3.5 4.5t2 11.5t1 26.5t0.5 49.5v153q0 30 -0.5 46.5t-1.5 24.5t-2.5 11.5t-4.5 6.5q-12 13 -55 13h-20v34l19 1l62 2q29 0 82 6v-298zM294 617
q-9 -48 -32.5 -74.5t-56.5 -26.5q-28 0 -85 29q-19 10 -30 15.5t-18 8.5t-11 3.5t-10 0.5q-29 0 -39 -44l-29 4q21 95 91 95q16 0 31.5 -5.5t45.5 -21.5t46 -22t27 -6q31 0 42 47z" />
    <glyph glyph-name="Imacron" unicode="&#x12a;" horiz-adv-x="349" 
d="M329 767h-309v55h309v-55zM29 37l24 2q33 2 45.5 3t18.5 4q7 3 8.5 10.5t1.5 38.5v477q0 17 -0.5 26.5t-2 14.5t-4.5 6.5t-8 3.5q-6 2 -18 3t-41 2l-24 2v37h291v-37l-24 -2q-33 -2 -45.5 -3t-18.5 -4q-7 -3 -8.5 -10.5t-1.5 -38.5v-477q0 -17 0.5 -26.5t2 -14.5t4.5 -7
t8 -3q6 -2 18 -3t41 -2l24 -2v-37h-291v37z" />
    <glyph glyph-name="imacron" unicode="&#x12b;" horiz-adv-x="275" 
d="M265 545h-255v52h255v-52zM186 135q0 -32 0.5 -49.5t1 -26.5t2 -11.5t3.5 -4.5q4 -4 19.5 -6t39.5 -2h13v-35h-237v35h13q24 0 39.5 2t19.5 6q2 2 3.5 4.5t2 11.5t1 26.5t0.5 49.5v153q0 30 -0.5 46.5t-1.5 24.5t-3 11.5t-5 6.5q-6 7 -19 10t-36 3h-19v34l18 1l63 2
q28 0 82 6v-298z" />
    <glyph glyph-name="Iogonek" unicode="&#x12e;" horiz-adv-x="349" 
d="M29 37l24 2q33 2 45.5 3t18.5 4q7 3 8.5 10.5t1.5 38.5v477q0 17 -0.5 26.5t-2 14.5t-4.5 6.5t-8 3.5q-6 2 -18 3t-41 2l-24 2v37h291v-37l-24 -2q-33 -2 -45.5 -3t-18.5 -4q-7 -3 -8.5 -10.5t-1.5 -38.5v-477q0 -17 0.5 -26.5t2 -14.5t4.5 -7t8 -3q6 -2 18 -3t41 -2
l24 -2v-37q-49 -7 -77.5 -30t-28.5 -57q0 -21 16 -35t41 -14q14 0 27 3.5t35 14.5l18 -28q-49 -38 -103 -38q-38 0 -62 22t-24 58q0 32 19 59t54 45h-206v37z" />
    <glyph glyph-name="iogonek" unicode="&#x12f;" horiz-adv-x="275" 
d="M140 670q23 0 39 -16t16 -40q0 -23 -16.5 -39t-39.5 -16t-39 16t-16 39t16.5 39.5t39.5 16.5zM186 135q0 -32 0.5 -49.5t1 -26.5t2 -11.5t3.5 -4.5q4 -4 19.5 -6t39.5 -2h13v-35q-35 -9 -55.5 -31t-20.5 -50q0 -20 15 -33t38 -13q12 0 24.5 4t31.5 14l16 -27
q-44 -35 -94 -35q-35 0 -57.5 20t-22.5 52q0 28 15 51t47 46l4 2h-177v35h13q50 0 58 8q2 2 3.5 4.5t2 11.5t1 26.5t0.5 49.5v153q0 30 -0.5 46.5t-1.5 24.5t-2.5 11.5t-4.5 6.5q-12 13 -55 13h-20v34l19 1l62 2q29 0 82 6v-298z" />
    <glyph glyph-name="Idotaccent" unicode="&#x130;" horiz-adv-x="349" 
d="M175 850q22 0 37.5 -15.5t15.5 -37.5q0 -23 -15.5 -38.5t-38.5 -15.5q-22 0 -37.5 15.5t-15.5 37.5q0 23 15.5 38.5t38.5 15.5zM29 37l24 2q33 2 45.5 3t18.5 4q7 3 8.5 10.5t1.5 38.5v477q0 17 -0.5 26.5t-2 14.5t-4.5 6.5t-8 3.5q-6 2 -18 3t-41 2l-24 2v37h291v-37
l-24 -2q-33 -2 -45.5 -3t-18.5 -4q-7 -3 -8.5 -10.5t-1.5 -38.5v-477q0 -17 0.5 -26.5t2 -14.5t4.5 -7t8 -3q6 -2 18 -3t41 -2l24 -2v-37h-291v37z" />
    <glyph glyph-name="dotlessi" unicode="&#x131;" horiz-adv-x="275" 
d="M186 135q0 -32 0.5 -49.5t1 -26.5t2 -11.5t3.5 -4.5q4 -4 19.5 -6t39.5 -2h13v-35h-236v35h13q50 0 58 8q2 2 3.5 4.5t2 11.5t1 26.5t0.5 49.5v153q0 30 -0.5 46.5t-1.5 24.5t-2.5 11.5t-4.5 6.5q-12 13 -55 13h-20v34l19 1l62 2q29 0 82 6v-298z" />
    <glyph glyph-name="IJ" unicode="&#x132;" horiz-adv-x="831" 
d="M528 667h284v-37l-15 -2l-28 -1q-25 -2 -33.5 -5.5t-10.5 -14.5q0 -2 -0.5 -4t-0.5 -9v-357q0 -41 -2.5 -71t-8 -52t-15 -38.5t-23.5 -31.5q-27 -29 -67 -44.5t-88 -15.5q-38 0 -69.5 11.5t-54 32t-35 49t-12.5 63.5q0 50 25.5 83.5t63.5 33.5q29 0 47.5 -18.5
t18.5 -47.5q0 -27 -15.5 -45.5t-38.5 -18.5q-5 0 -8 0.5t-17 4.5l-10 1q-15 0 -15 -23q0 -18 8.5 -34t23 -28t34 -18.5t41.5 -6.5q65 0 95 50q15 26 21 62t6 102v340q0 17 -0.5 25.5t-1.5 11t-3 4.5q-5 5 -19 7t-49 3l-28 2v37zM320 0h-291v37l24 2q19 1 31.5 1.5t20 2
t11.5 3t6 3.5t3 4.5t1.5 11t0.5 24.5v488q0 17 -0.5 25.5t-1.5 11t-3 4.5t-6 3.5t-11.5 3t-20 2t-31.5 1.5l-24 2v37h291v-37l-24 -2q-24 -1 -38 -2t-21.5 -3t-10 -6t-3.5 -10q0 -2 -0.5 -4.5t-0.5 -9.5v-500q0 -15 0.5 -22.5t1 -10.5t1.5 -6q1 -4 4 -6.5t10.5 -4t20.5 -2.5
t36 -2l24 -2v-37z" />
    <glyph glyph-name="ij" unicode="&#x133;" horiz-adv-x="518" 
d="M405 670q23 0 39 -16t16 -40q0 -23 -16.5 -39t-39.5 -16t-39 16t-16 39t16.5 39.5t39.5 16.5zM448 113q0 -49 -2 -83t-6.5 -59t-12.5 -44.5t-20 -39.5q-20 -32 -47 -49.5t-58 -17.5q-28 0 -45.5 16t-17.5 41q0 21 12.5 34.5t32.5 13.5q28 0 40 -36q4 -17 14 -17
q9 0 15 9.5t9.5 33t5 63.5t1.5 102v209q0 30 -0.5 46t-1.5 24.5t-2.5 11.5t-4.5 7q-12 13 -55 13h-18v34h17l62 2q26 1 42.5 2t39.5 3v-319zM140 670q23 0 39 -16t16 -40q0 -23 -16.5 -39t-39.5 -16t-39 16t-16 39t16.5 39.5t39.5 16.5zM186 135q0 -32 0.5 -49.5t1 -26.5
t2 -11.5t3.5 -4.5q4 -4 19.5 -6t39.5 -2h13v-35h-236v35h13q50 0 58 8q2 2 3.5 4.5t2 11.5t1 26.5t0.5 49.5v153q0 30 -0.5 46.5t-1.5 24.5t-2.5 11.5t-4.5 6.5q-12 13 -55 13h-20v34l19 1l62 2q28 0 82 6v-298z" />
    <glyph glyph-name="Jcircumflex" unicode="&#x134;" horiz-adv-x="483" 
d="M179 667h285v-37l-15 -1l-28 -2q-16 -1 -25 -2.5t-13.5 -6.5t-5.5 -16t-1 -30v-335q0 -36 -1.5 -61t-4.5 -43.5t-8.5 -33t-14.5 -29.5q-25 -41 -70.5 -63t-104.5 -22q-39 0 -70.5 11t-54 31.5t-35 49t-12.5 63.5q0 50 25.5 83.5t63.5 33.5q29 0 47.5 -19t18.5 -48
q0 -26 -15.5 -44.5t-38.5 -18.5q-5 0 -9.5 1t-15.5 4q-3 1 -9 1q-16 0 -16 -22q0 -37 31 -62t77 -25q42 0 70.5 22t40.5 66q6 21 8.5 48.5t2.5 76.5v337q0 16 -0.5 23.5t-1 10t-1.5 5.5q-2 8 -15.5 10.5t-55.5 4.5l-28 2v37zM473 745h-37l-106 83l-108 -83h-37l120 136h52z
" />
    <glyph glyph-name="jcircumflex" unicode="&#x135;" horiz-adv-x="242" 
d="M173 113q0 -49 -2 -83t-6.5 -59t-12.5 -44.5t-20 -39.5q-20 -32 -47 -49.5t-58 -17.5q-28 0 -45.5 16t-17.5 41q0 21 12.5 34.5t32.5 13.5q28 0 40 -36q4 -17 14 -17q9 0 15 9.5t9.5 33t5 63.5t1.5 102v209q0 30 -0.5 46t-1.5 24.5t-2.5 11.5t-4.5 7q-12 13 -55 13h-18
v34h17l62 2q26 1 42.5 2t39.5 3v-319zM266 503h-37l-106 83l-108 -83h-37l120 136h52z" />
    <glyph glyph-name="Kcommaaccent" unicode="&#x136;" horiz-adv-x="699" 
d="M309 -227q46 40 46 71q0 9 -11 9q-48 3 -48 44q0 21 14.5 35.5t36.5 14.5q24 0 40 -19.5t16 -48.5q0 -36 -18 -66t-59 -62zM578 104q13 -20 20.5 -30.5t13 -16.5t10.5 -8t14 -5q10 -2 21 -3.5t36 -3.5v-37h-293v37l36 1q35 2 43.5 5t8.5 15q0 8 -12 27l-163 252l-91 -104
v-138q0 -17 0.5 -26.5t2 -14.5t4.5 -7t8 -3q6 -2 16 -2.5t42 -2.5l22 -2v-37h-288v37l24 2q33 2 45.5 3t18.5 4q7 3 8.5 10.5t1.5 38.5v477q0 17 -0.5 26.5t-2 14.5t-4.5 6.5t-8 3.5q-6 2 -18 3t-41 2l-24 2v37h288v-37l-22 -2q-18 -1 -29 -1.5t-17.5 -1.5t-10 -2t-6.5 -2
q-7 -3 -8.5 -10.5t-1.5 -38.5v-279l230 263q13 14 18 23t5 17q0 17 -17.5 24.5t-57.5 9.5v37h252v-37q-27 -2 -47.5 -7.5t-40.5 -19t-43 -36.5t-55 -60l-86 -96z" />
    <glyph glyph-name="kcommaaccent" unicode="&#x137;" horiz-adv-x="496" 
d="M406 85q12 -17 19.5 -26.5t16 -14.5t19.5 -6.5t29 -2.5v-35h-218v35h26q19 0 26.5 3t7.5 10q0 5 -2 8.5t-15 22.5l-91 139l-55 -53v-77q0 -23 1 -32.5t5 -12.5q5 -4 15.5 -5.5t44.5 -2.5v-35h-221v35h10q24 0 39.5 2t19.5 6q2 2 3.5 4.5t2 11.5t1 26.5t0.5 49.5v397
q0 30 -0.5 46.5t-1.5 25t-2.5 11.5t-4.5 7q-12 13 -56 13h-17v33h18q28 0 68.5 2t74.5 4v-456l118 114q11 11 15.5 18t4.5 15q0 22 -44 25l-18 1v34h215v-34q-17 -2 -30.5 -5t-27 -10t-27.5 -18t-33 -27l-61 -59zM208 -221q46 37 46 68q0 9 -11 9q-47 1 -47 42q0 21 14 35
t35 14q24 0 39.5 -18.5t15.5 -47.5q0 -35 -17.5 -64t-56.5 -60z" />
    <glyph glyph-name="Lacute" unicode="&#x139;" horiz-adv-x="591" 
d="M556 0h-527v37l24 1q33 2 45.5 3.5t18.5 4.5q7 3 8.5 10.5t1.5 37.5v478q0 17 -0.5 26.5t-2 14.5t-4.5 6.5t-8 3.5q-6 2 -18 3t-41 2l-24 2v37h301v-37l-35 -2q-32 -1 -44 -2.5t-19 -4.5t-8.5 -11t-1.5 -38v-480q0 -19 1 -29.5t5.5 -15.5t14.5 -6t28 -1h64q31 0 53.5 3
t39 10t29.5 19t25 30q8 12 15 26t13 31.5t11.5 40t11.5 51.5l31 -3zM241 826l23 23q9 9 15 13.5t10.5 5.5t10.5 1q14 0 24 -10.5t10 -24.5q0 -16 -12.5 -28t-44.5 -29l-98 -50l-16 20z" />
    <glyph glyph-name="lacute" unicode="&#x13a;" horiz-adv-x="259" 
d="M169 135q0 -32 0.5 -49t1 -25.5t1 -11t2.5 -4.5q8 -10 60 -10h14v-35h-237v35h13q56 0 62 11q1 3 1.5 5.5t1 11t1 25t0.5 47.5v395q0 30 -0.5 46.5t-1.5 24.5t-2.5 11.5t-4.5 6.5q-12 13 -55 13h-20v34l83 2q24 1 40.5 2.5t39.5 3.5v-539zM155 826l23 23q9 9 15 13.5
t10.5 5.5t10.5 1q14 0 24 -10.5t10 -24.5q0 -16 -12.5 -28t-44.5 -29l-98 -50l-16 20z" />
    <glyph glyph-name="Lcommaaccent" unicode="&#x13b;" horiz-adv-x="591" 
d="M254 -227q47 40 47 71q0 9 -11 9q-48 3 -48 44q0 21 14.5 35.5t36.5 14.5q24 0 40 -19.5t16 -48.5q0 -36 -18 -66t-59 -62zM556 0h-527v37l24 1q33 2 45.5 3.5t18.5 4.5q7 3 8.5 10.5t1.5 37.5v478q0 17 -0.5 26.5t-2 14.5t-4.5 6.5t-8 3.5q-6 2 -18 3t-41 2l-24 2v37
h301v-37l-35 -2q-32 -1 -44 -2.5t-19 -4.5t-8.5 -11t-1.5 -38v-480q0 -19 1 -29.5t5.5 -15.5t14.5 -6t28 -1h64q31 0 53.5 3t39 10t29.5 19t25 30q8 12 15 26t13 31.5t11.5 40t11.5 51.5l31 -3z" />
    <glyph glyph-name="lcommaaccent" unicode="&#x13c;" horiz-adv-x="259" 
d="M89 -221q46 37 46 68q0 9 -11 9q-47 1 -47 42q0 21 14 35t35 14q24 0 39.5 -18.5t15.5 -47.5q0 -35 -17.5 -64t-56.5 -60zM169 135q0 -32 0.5 -49t1 -25.5t1 -11t2.5 -4.5q8 -10 60 -10h14v-35h-237v35h13q56 0 62 11q1 3 1.5 5.5t1 11t1 25t0.5 47.5v395q0 30 -0.5 46.5
t-1.5 24.5t-2.5 11.5t-4.5 6.5q-12 13 -55 13h-20v34l83 2q24 1 40.5 2.5t39.5 3.5v-539z" />
    <glyph glyph-name="Lcaron" unicode="&#x13d;" horiz-adv-x="591" 
d="M556 0h-527v37l24 1q33 2 45.5 3.5t18.5 4.5q7 3 8.5 10.5t1.5 37.5v478q0 17 -0.5 26.5t-2 14.5t-4.5 6.5t-8 3.5q-6 2 -18 3t-41 2l-24 2v37h301v-37l-35 -2q-32 -1 -44 -2.5t-19 -4.5t-8.5 -11t-1.5 -38v-480q0 -19 1 -29.5t5.5 -15.5t14.5 -6t28 -1h64q31 0 53.5 3
t39 10t29.5 19t25 30q8 12 15 26t13 31.5t11.5 40t11.5 51.5l31 -3zM409 508q46 40 46 71q0 9 -11 9q-48 3 -48 44q0 21 14.5 35.5t36.5 14.5q24 0 40 -19.5t16 -48.5q0 -36 -17.5 -66t-59.5 -62z" />
    <glyph glyph-name="lcaron" unicode="&#x13e;" horiz-adv-x="329" 
d="M169 135q0 -32 0.5 -49t1 -25.5t1 -11t2.5 -4.5q8 -10 60 -10h14v-35h-237v35h13q56 0 62 11q1 3 1.5 5.5t1 11t1 25t0.5 47.5v395q0 30 -0.5 46.5t-1.5 24.5t-2.5 11.5t-4.5 6.5q-12 13 -55 13h-20v34l83 2q24 1 40.5 2.5t39.5 3.5v-539zM234 514q46 37 46 68q0 9 -11 9
q-47 1 -47 42q0 21 14 35t35 14q24 0 39.5 -18.5t15.5 -47.5q0 -35 -17.5 -64t-57.5 -60z" />
    <glyph glyph-name="Ldot" unicode="&#x13f;" horiz-adv-x="591" 
d="M335 397q26 0 43 -17t17 -43q0 -25 -17.5 -42.5t-42.5 -17.5t-42.5 17.5t-17.5 43.5q0 24 17.5 41.5t42.5 17.5zM556 0h-527v37l24 1q33 2 45.5 3.5t18.5 4.5q7 3 8.5 10.5t1.5 37.5v478q0 17 -0.5 26.5t-2 14.5t-4.5 6.5t-8 3.5q-6 2 -18 3t-41 2l-24 2v37h301v-37
l-35 -2q-32 -1 -44 -2.5t-19 -4.5t-8.5 -11t-1.5 -38v-480q0 -19 1 -29.5t5.5 -15.5t14.5 -6t28 -1h64q31 0 53.5 3t39 10t29.5 19t25 30q8 12 15 26t13 31.5t11.5 40t11.5 51.5l31 -3z" />
    <glyph glyph-name="ldot" unicode="&#x140;" horiz-adv-x="373" 
d="M312 397q26 0 43 -17t17 -43q0 -25 -17.5 -42.5t-42.5 -17.5t-42.5 17.5t-17.5 43.5q0 24 17.5 41.5t42.5 17.5zM169 135q0 -32 0.5 -49t1 -25.5t1 -11t2.5 -4.5q8 -10 60 -10h14v-35h-237v35h13q56 0 62 11q1 3 1.5 5.5t1 11t1 25t0.5 47.5v395q0 30 -0.5 46.5
t-1.5 24.5t-2.5 11.5t-4.5 6.5q-12 13 -55 13h-20v34l83 2q24 1 40.5 2.5t39.5 3.5v-539z" />
    <glyph glyph-name="Lslash" unicode="&#x141;" horiz-adv-x="591" 
d="M42 215v48l85 65v244q0 17 -0.5 26.5t-2 14.5t-4.5 6.5t-8 3.5q-6 2 -18 3t-41 2l-24 2v37h301v-37l-35 -2q-32 -1 -44 -2.5t-19 -4.5t-8.5 -11t-1.5 -38v-184l130 99v-48l-130 -99v-248q0 -19 1 -29.5t5.5 -15.5t14.5 -6t28 -1h64q31 0 53.5 3t39 10t29.5 19t25 30
q8 12 15 26t13 31.5t11.5 40t11.5 51.5l31 -3l-8 -248h-527v37l24 1q34 2 45.5 3.5t18.5 4.5t8.5 10.5t1.5 37.5v186z" />
    <glyph glyph-name="lslash" unicode="&#x142;" horiz-adv-x="266" 
d="M173 372v-287q0 -17 1 -26t2 -11.5t4 -4.5q4 -4 19.5 -6t39.5 -2h13v-35h-237v35h13q24 0 39.5 2t19.5 6q2 2 3.5 4.5t2 11.5t1 26.5t0.5 49.5v190l-73 -56v43l73 56v162q0 30 -0.5 46.5t-1.5 24.5t-2.5 11.5t-4.5 6.5q-12 13 -55 13h-20v34q41 1 64.5 1.5t39 1.5t28 2
t31.5 3v-259l73 56v-44z" />
    <glyph glyph-name="Nacute" unicode="&#x143;" horiz-adv-x="695" 
d="M672 630q-17 -2 -28.5 -3.5t-19 -3.5t-12.5 -5.5t-9 -8.5q-12 -13 -17 -35t-5 -64v-518h-35l-379 556v-371q0 -40 5 -66.5t17.5 -42t34.5 -22.5t56 -9v-37h-264v37q36 4 57 11t32 22.5t14.5 43t3.5 73.5v392q0 19 -20 34q-12 8 -25 10.5t-44 4.5l-18 2v37h186l335 -493
v335q0 36 -4 58.5t-14.5 36t-29.5 19t-50 7.5v37h233v-37zM373 826l23 23q9 9 15 13.5t10.5 5.5t10.5 1q14 0 24 -10.5t10 -24.5q0 -16 -12.5 -28t-44.5 -29l-98 -50l-16 20z" />
    <glyph glyph-name="nacute" unicode="&#x144;" horiz-adv-x="545" 
d="M23 424q57 2 95 4t58 4q2 -23 2.5 -43t1.5 -49v-10q45 104 141 104q87 0 116 -69q11 -25 15 -54t4 -77v-99q0 -32 0.5 -49.5t1 -26.5t2 -11.5t3.5 -4.5q8 -8 59 -8h9v-35h-226v35h8q23 0 38 2t19 6q2 2 3.5 4.5t2 11.5t1 26.5t0.5 49.5v76q0 56 -3.5 84.5t-13.5 45.5
q-21 34 -66 34q-50 0 -81 -44q-15 -23 -21 -50.5t-6 -74.5v-71q0 -32 0.5 -49.5t1 -26.5t2 -11.5t3.5 -4.5q4 -4 19.5 -6t39.5 -2h8v-35h-229v35h10q51 0 59 8q2 2 3.5 4.5t2 11.5t1 26.5t0.5 49.5v153q0 30 -0.5 46.5t-1.5 25t-2.5 11.5t-4.5 7q-12 12 -55 12h-20v34z
M299 603q15 15 24 23.5t15 13t10 5.5t10 1q14 0 24 -10.5t10 -25.5t-12.5 -27t-45.5 -29l-97 -51l-16 20z" />
    <glyph glyph-name="Ncommaaccent" unicode="&#x145;" horiz-adv-x="695" 
d="M306 -227q47 40 47 71q0 9 -11 9q-48 3 -48 44q0 21 14.5 35.5t36.5 14.5q24 0 40 -19.5t16 -48.5q0 -36 -18 -66t-59 -62zM672 630q-17 -2 -28.5 -3.5t-19 -3.5t-12.5 -5.5t-9 -8.5q-12 -13 -17 -35t-5 -64v-518h-35l-379 556v-371q0 -40 5 -66.5t17.5 -42t34.5 -22.5
t56 -9v-37h-264v37q36 4 57 11t32 22.5t14.5 43t3.5 73.5v392q0 19 -20 34q-12 8 -25 10.5t-44 4.5l-18 2v37h186l335 -493v335q0 36 -4 58.5t-14.5 36t-29.5 19t-50 7.5v37h233v-37z" />
    <glyph glyph-name="ncommaaccent" unicode="&#x146;" horiz-adv-x="545" 
d="M23 424q57 2 95 4t58 4q2 -23 2.5 -43t1.5 -49v-10q45 104 141 104q87 0 116 -69q11 -25 15 -54t4 -77v-99q0 -32 0.5 -49.5t1 -26.5t2 -11.5t3.5 -4.5q8 -8 59 -8h9v-35h-226v35h8q23 0 38 2t19 6q2 2 3.5 4.5t2 11.5t1 26.5t0.5 49.5v76q0 56 -3.5 84.5t-13.5 45.5
q-21 34 -66 34q-50 0 -81 -44q-15 -23 -21 -50.5t-6 -74.5v-71q0 -32 0.5 -49.5t1 -26.5t2 -11.5t3.5 -4.5q4 -4 19.5 -6t39.5 -2h8v-35h-229v35h10q51 0 59 8q2 2 3.5 4.5t2 11.5t1 26.5t0.5 49.5v153q0 30 -0.5 46.5t-1.5 25t-2.5 11.5t-4.5 7q-12 12 -55 12h-20v34z
M233 -221q46 37 46 68q0 9 -11 9q-47 1 -47 42q0 21 14 35t35 14q24 0 39.5 -18.5t15.5 -47.5q0 -35 -17.5 -64t-56.5 -60z" />
    <glyph glyph-name="Ncaron" unicode="&#x147;" horiz-adv-x="695" 
d="M203 862h38l105 -82l109 82h36l-120 -135h-52zM672 630q-17 -2 -28.5 -3.5t-19 -3.5t-12.5 -5.5t-9 -8.5q-12 -13 -17 -35t-5 -64v-518h-35l-379 556v-371q0 -40 5 -66.5t17.5 -42t34.5 -22.5t56 -9v-37h-264v37q36 4 57 11t32 22.5t14.5 43t3.5 73.5v392q0 19 -20 34
q-12 8 -25 10.5t-44 4.5l-18 2v37h186l335 -493v335q0 36 -4 58.5t-14.5 36t-29.5 19t-50 7.5v37h233v-37z" />
    <glyph glyph-name="ncaron" unicode="&#x148;" horiz-adv-x="545" 
d="M23 424q57 2 95 4t58 4q2 -23 2.5 -43t1.5 -49v-10q45 104 141 104q87 0 116 -69q11 -25 15 -54t4 -77v-99q0 -32 0.5 -49.5t1 -26.5t2 -11.5t3.5 -4.5q8 -8 59 -8h9v-35h-226v35h8q23 0 38 2t19 6q2 2 3.5 4.5t2 11.5t1 26.5t0.5 49.5v76q0 56 -3.5 84.5t-13.5 45.5
q-21 34 -66 34q-50 0 -81 -44q-15 -23 -21 -50.5t-6 -74.5v-71q0 -32 0.5 -49.5t1 -26.5t2 -11.5t3.5 -4.5q4 -4 19.5 -6t39.5 -2h8v-35h-229v35h10q51 0 59 8q2 2 3.5 4.5t2 11.5t1 26.5t0.5 49.5v153q0 30 -0.5 46.5t-1.5 25t-2.5 11.5t-4.5 7q-12 12 -55 12h-20v34z
M129 639h38l105 -83l108 83h37l-120 -136h-52z" />
    <glyph glyph-name="napostrophe" unicode="&#x149;" horiz-adv-x="731" 
d="M208 424q57 2 95 4t58 4q2 -24 3.5 -49.5t1.5 -42.5v-5q0 -2 -1 -4q45 103 141 103q87 0 116 -69q11 -25 15 -54t4 -77v-149q0 -17 1 -26t2 -11.5t4 -4.5q8 -8 59 -8h9v-35h-226v35h6q51 0 59 8q3 2 4 4.5t2 11.5t1 26v126q0 56 -3.5 84.5t-14.5 45.5q-19 34 -65 34
q-50 0 -81 -44q-15 -23 -21 -50.5t-6 -74.5v-121q0 -17 1 -26t2 -11.5t4 -4.5q4 -4 19.5 -6t39.5 -2h8v-35h-229v35h10q51 0 59 8q3 2 4 4.5t2 11.5t1 26v249q0 17 -1 25.5t-3 11.5t-5 7q-12 12 -55 12h-20v34zM44 472q24 12 38.5 22.5t25.5 23.5q8 11 14.5 24.5t6.5 21.5
q0 5 -2 6t-10 1q-23 1 -37 14.5t-14 35.5q0 23 16.5 39.5t41.5 16.5q27 0 44.5 -19.5t17.5 -51.5q0 -47 -34 -90t-95 -73z" />
    <glyph glyph-name="Omacron" unicode="&#x14c;" horiz-adv-x="673" 
d="M491 767h-309v55h309v-55zM336 642q-181 0 -181 -300q0 -318 182 -318q88 0 134.5 76t46.5 222q0 163 -44.5 241.5t-137.5 78.5zM337 682q57 0 103.5 -21t89.5 -66q101 -106 101 -266q0 -71 -24.5 -136t-70.5 -116q-83 -92 -199 -92q-103 0 -184 77q-111 106 -111 268
q0 74 23 138t62.5 111.5t93.5 75t116 27.5z" />
    <glyph glyph-name="omacron" unicode="&#x14d;" horiz-adv-x="484" 
d="M369 545h-255v52h255v-52zM243 440q42 0 78.5 -18t64 -48.5t43.5 -72t16 -88.5q0 -45 -16.5 -85.5t-44 -71t-64.5 -48.5t-78 -18t-78 18t-65 49t-44.5 71.5t-16.5 85.5q0 46 16.5 87t44.5 72t65 49t79 18zM241 404q-52 0 -81.5 -50.5t-29.5 -140.5q0 -87 30 -136.5
t82 -49.5t81.5 50t29.5 139t-29.5 138.5t-82.5 49.5z" />
    <glyph glyph-name="Obreve" unicode="&#x14e;" horiz-adv-x="673" 
d="M337 682q57 0 103.5 -21t89.5 -66q101 -106 101 -266q0 -71 -24.5 -136t-70.5 -116q-83 -92 -199 -92q-103 0 -184 77q-111 106 -111 268q0 74 23 138t62.5 111.5t93.5 75t116 27.5zM336 642q-181 0 -181 -300q0 -318 182 -318q88 0 134.5 76t46.5 222q0 163 -44.5 241.5
t-137.5 78.5zM458 878q-5 -65 -34 -95.5t-87 -30.5q-67 0 -101 47q-12 17 -16.5 33.5t-4.5 45.5h25q9 -67 95 -67q77 0 98 67h25z" />
    <glyph glyph-name="obreve" unicode="&#x14f;" horiz-adv-x="484" 
d="M243 440q42 0 78.5 -18t64 -48.5t43.5 -72t16 -88.5q0 -45 -16.5 -85.5t-44 -71t-64.5 -48.5t-78 -18t-78 18t-65 49t-44.5 71.5t-16.5 85.5q0 46 16.5 87t44.5 72t65 49t79 18zM241 404q-52 0 -81.5 -50.5t-29.5 -140.5q0 -87 30 -136.5t82 -49.5t81.5 50t29.5 139
t-29.5 138.5t-82.5 49.5zM365 636q-5 -65 -34 -95.5t-87 -30.5q-67 0 -101 47q-12 17 -16.5 33.5t-4.5 45.5h25q9 -67 95 -67q77 0 98 67h25z" />
    <glyph glyph-name="Ohungarumlaut" unicode="&#x150;" horiz-adv-x="673" 
d="M337 682q57 0 103.5 -21t89.5 -66q101 -106 101 -266q0 -71 -24.5 -136t-70.5 -116q-83 -92 -199 -92q-103 0 -184 77q-111 106 -111 268q0 74 23 138t62.5 111.5t93.5 75t116 27.5zM336 642q-181 0 -181 -300q0 -318 182 -318q88 0 134.5 76t46.5 222q0 163 -44.5 241.5
t-137.5 78.5zM429 818q12 16 20 26t13.5 15t10.5 7t11 2q14 0 23.5 -9.5t9.5 -23.5t-11 -27t-38 -32l-73 -49l-19 17zM276 818l19 26q8 10 14 15t11 7t11 2q14 0 23.5 -9.5t9.5 -23.5t-10.5 -26.5t-39.5 -32.5l-73 -49l-18 17z" />
    <glyph glyph-name="ohungarumlaut" unicode="&#x151;" horiz-adv-x="484" 
d="M181 594q12 17 20 27t13.5 15.5t10.5 7t11 1.5q14 0 23.5 -9.5t9.5 -23.5t-10.5 -27t-38.5 -32l-73 -50l-19 18zM334 594q12 17 20 27t14 15.5t10.5 7t10.5 1.5q14 0 23.5 -9.5t9.5 -23.5t-11 -27t-38 -32l-73 -50l-19 18zM243 440q42 0 78.5 -18t64 -48.5t43.5 -72
t16 -88.5q0 -45 -16.5 -85.5t-44 -71t-64.5 -48.5t-78 -18t-78 18t-65 49t-44.5 71.5t-16.5 85.5q0 46 16.5 87t44.5 72t65 49t79 18zM241 404q-52 0 -81.5 -50.5t-29.5 -140.5q0 -87 30 -136.5t82 -49.5t81.5 50t29.5 139t-29.5 138.5t-82.5 49.5z" />
    <glyph glyph-name="OE" unicode="&#x152;" horiz-adv-x="984" 
d="M912 433l-30 -3q-11 57 -25.5 94t-35.5 59.5t-51 31.5t-72 9h-77q-29 0 -36 -6t-7 -31v-223q41 -1 68.5 4.5t44.5 20.5t26 40.5t13 64.5h35v-305h-35q-2 40 -10 66.5t-25.5 42.5t-46 22t-70.5 6v-240q0 -17 1 -26t5.5 -13.5t14.5 -5.5t27 -1h70q34 0 58 3t42 11
t31.5 21.5t25.5 33.5q7 12 13 25t12 30t11.5 38.5t12.5 50.5l31 -4l-8 -249h-320q-20 0 -35 -0.5t-28.5 -1t-27 -2t-30.5 -3.5q-19 -2 -33.5 -3.5t-27.5 -2.5t-26 -1.5t-29 -0.5q-37 0 -66.5 4t-55 13t-48 23.5t-44.5 35.5q-54 51 -83 120.5t-29 149.5q0 69 21.5 132
t62.5 114q86 105 226 105q23 0 46 -1.5t54 -6.5q18 -3 30 -4l24 -2q12 -1 28 -1h368zM483 524q0 36 -3.5 54.5t-14.5 31.5q-12 15 -41.5 23.5t-70.5 8.5q-103 0 -150.5 -71t-47.5 -224q0 -86 12 -147.5t38.5 -100.5t67 -57.5t97.5 -18.5q82 0 102 39q3 7 5.5 14t3.5 17.5
t1.5 25.5t0.5 38v367z" />
    <glyph glyph-name="oe" unicode="&#x153;" horiz-adv-x="759" 
d="M440 210q1 -22 2 -37.5t3.5 -28.5t6 -23.5t8.5 -21.5q14 -30 41 -46.5t62 -16.5q22 0 40 5t33.5 17t30 31.5t29.5 48.5l30 -17q-14 -28 -23 -42.5t-21 -29.5q-48 -59 -133 -59q-99 0 -157 76q-34 -39 -70.5 -57.5t-81.5 -18.5q-41 0 -77.5 18t-64.5 48.5t-44 71.5t-16 87
t16.5 87t44 71.5t65 48.5t79.5 18q44 0 79 -18.5t74 -61.5q61 80 150 80q81 0 128 -60.5t52 -169.5h-286zM243 403q-54 0 -83.5 -52t-29.5 -145q0 -85 29.5 -132t81.5 -47q28 0 51.5 16t35.5 43q12 26 18.5 61.5t6.5 73.5q0 86 -29 134t-81 48zM578 248q19 0 30 1t17 5
t7.5 12t1.5 21q0 53 -24 84.5t-66 31.5q-28 0 -50 -17t-36 -50q-8 -18 -11.5 -36.5t-5.5 -51.5h137z" />
    <glyph glyph-name="Racute" unicode="&#x154;" horiz-adv-x="650" 
d="M298 826q14 15 23 23.5t15 13t10.5 5.5t10.5 1q14 0 24 -10.5t10 -24.5q0 -16 -12.5 -28t-45.5 -29l-97 -50l-16 20zM287 367q52 0 79 4.5t44 15.5q44 29 44 119q0 33 -7 56t-23.5 37.5t-43 20.5t-65.5 6h-54q-15 0 -23.5 -1t-12.5 -4.5t-5 -11t-1 -20.5v-222h68z
M302 667q64 0 104.5 -7.5t73.5 -24.5q38 -20 58.5 -55t20.5 -79q0 -94 -89 -140q-13 -6 -25 -10.5t-25.5 -7.5t-29.5 -4.5t-37 -2.5q38 -8 61.5 -17.5t40.5 -31.5t30.5 -59.5t30.5 -100.5q12 -42 21.5 -57.5t20.5 -15.5q15 0 22.5 20t14.5 74l32 -3q-1 -18 -2.5 -30.5
t-3 -22.5t-3.5 -18.5t-5 -17.5q-21 -66 -91 -66q-26 0 -47 11.5t-34 31.5q-12 20 -18.5 46.5t-11.5 76.5q-3 31 -6.5 53t-8 37t-10.5 25.5t-15 19.5q-18 20 -43.5 27t-74.5 7h-34v-231q0 -16 0.5 -25t2 -14t4.5 -7.5t8 -3.5q3 -1 6 -1.5t9 -1t16 -1t28 -1.5l28 -2v-37h-295
v37l24 2q20 1 31.5 1.5t17.5 1t9 1.5t6 3q7 4 8.5 11.5t1.5 36.5v478q0 17 -0.5 26.5t-2 14.5t-4.5 6.5t-8 3.5q-6 2 -18 3t-41 3l-24 1v37h276z" />
    <glyph glyph-name="racute" unicode="&#x155;" horiz-adv-x="400" 
d="M171 432q1 -11 1.5 -19.5t1 -18t0.5 -20.5v-27l1 -51l1 -31q42 169 133 169q34 0 56 -21.5t22 -55.5q0 -29 -15.5 -47t-38.5 -18q-21 0 -35.5 14.5t-14.5 34.5q0 10 2.5 16t12.5 20q3 3 3 7q0 5 -7 5q-8 0 -21 -9t-21 -20q-31 -40 -48.5 -100t-17.5 -125v-47
q0 -20 1 -30.5t7.5 -15.5t20 -6t37.5 -1h24v-35h-248v35h13q51 0 59 8q2 2 3.5 4.5t2 11.5t1 26.5t0.5 49.5v154q0 30 -0.5 46.5t-1.5 24.5t-2.5 11.5t-4.5 6.5q-12 13 -55 13h-20v34h30q10 0 28 1l76 5zM226 603q15 15 24 23.5t15 13t10 5.5t10 1q14 0 24 -10.5t10 -25.5
t-12.5 -27t-45.5 -29l-97 -51l-16 20z" />
    <glyph glyph-name="Rcommaaccent" unicode="&#x156;" horiz-adv-x="650" 
d="M284 -227q47 40 47 71q0 9 -11 9q-48 3 -48 44q0 21 14.5 35.5t36.5 14.5q24 0 40 -19.5t16 -48.5q0 -36 -18 -66t-59 -62zM287 367q52 0 79 4.5t44 15.5q44 29 44 119q0 33 -7 56t-23.5 37.5t-43 20.5t-65.5 6h-54q-15 0 -23.5 -1t-12.5 -4.5t-5 -11t-1 -20.5v-222h68z
M302 667q64 0 104.5 -7.5t73.5 -24.5q38 -20 58.5 -55t20.5 -79q0 -94 -89 -140q-13 -6 -25 -10.5t-25.5 -7.5t-29.5 -4.5t-37 -2.5q38 -8 61.5 -17.5t40.5 -31.5t30.5 -59.5t30.5 -100.5q12 -42 21.5 -57.5t20.5 -15.5q15 0 22.5 20t14.5 74l32 -3q-1 -18 -2.5 -30.5
t-3 -22.5t-3.5 -18.5t-5 -17.5q-21 -66 -91 -66q-26 0 -47 11.5t-34 31.5q-12 20 -18.5 46.5t-11.5 76.5q-3 31 -6.5 53t-8 37t-10.5 25.5t-15 19.5q-18 20 -43.5 27t-74.5 7h-34v-231q0 -16 0.5 -25t2 -14t4.5 -7.5t8 -3.5q3 -1 6 -1.5t9 -1t16 -1t28 -1.5l28 -2v-37h-295
v37l24 2q20 1 31.5 1.5t17.5 1t9 1.5t6 3q7 4 8.5 11.5t1.5 36.5v478q0 17 -0.5 26.5t-2 14.5t-4.5 6.5t-8 3.5q-6 2 -18 3t-41 3l-24 1v37h276z" />
    <glyph glyph-name="rcommaaccent" unicode="&#x157;" horiz-adv-x="400" 
d="M171 432q1 -11 1.5 -19.5t1 -18t0.5 -20.5v-27l1 -51l1 -31q42 169 133 169q34 0 56 -21.5t22 -55.5q0 -29 -15.5 -47t-38.5 -18q-21 0 -35.5 14.5t-14.5 34.5q0 10 2.5 16t12.5 20q3 3 3 7q0 5 -7 5q-8 0 -21 -9t-21 -20q-31 -40 -48.5 -100t-17.5 -125v-47
q0 -20 1 -30.5t7.5 -15.5t20 -6t37.5 -1h24v-35h-248v35h13q51 0 59 8q2 2 3.5 4.5t2 11.5t1 26.5t0.5 49.5v154q0 30 -0.5 46.5t-1.5 24.5t-2.5 11.5t-4.5 6.5q-12 13 -55 13h-20v34h30q10 0 28 1l76 5zM107 -221q46 37 46 68q0 9 -11 9q-47 1 -47 42q0 21 14 35t35 14
q24 0 39.5 -18.5t15.5 -47.5q0 -35 -17.5 -64t-57.5 -60z" />
    <glyph glyph-name="Rcaron" unicode="&#x158;" horiz-adv-x="650" 
d="M141 862h38l105 -82l109 82h37l-121 -135h-52zM287 367q52 0 79 4.5t44 15.5q44 29 44 119q0 33 -7 56t-23.5 37.5t-43 20.5t-65.5 6h-54q-15 0 -23.5 -1t-12.5 -4.5t-5 -11t-1 -20.5v-222h68zM302 667q64 0 104.5 -7.5t73.5 -24.5q38 -20 58.5 -55t20.5 -79
q0 -94 -89 -140q-13 -6 -25 -10.5t-25.5 -7.5t-29.5 -4.5t-37 -2.5q38 -8 61.5 -17.5t40.5 -31.5t30.5 -59.5t30.5 -100.5q12 -42 21.5 -57.5t20.5 -15.5q15 0 22.5 20t14.5 74l32 -3q-1 -18 -2.5 -30.5t-3 -22.5t-3.5 -18.5t-5 -17.5q-21 -66 -91 -66q-26 0 -47 11.5
t-34 31.5q-12 20 -18.5 46.5t-11.5 76.5q-3 31 -6.5 53t-8 37t-10.5 25.5t-15 19.5q-18 20 -43.5 27t-74.5 7h-34v-231q0 -16 0.5 -25t2 -14t4.5 -7.5t8 -3.5q3 -1 6 -1.5t9 -1t16 -1t28 -1.5l28 -2v-37h-295v37l24 2q20 1 31.5 1.5t17.5 1t9 1.5t6 3q7 4 8.5 11.5t1.5 36.5
v478q0 17 -0.5 26.5t-2 14.5t-4.5 6.5t-8 3.5q-6 2 -18 3t-41 3l-24 1v37h276z" />
    <glyph glyph-name="rcaron" unicode="&#x159;" horiz-adv-x="400" 
d="M171 432q1 -11 1.5 -19.5t1 -18t0.5 -20.5v-27l1 -51l1 -31q42 169 133 169q34 0 56 -21.5t22 -55.5q0 -29 -15.5 -47t-38.5 -18q-21 0 -35.5 14.5t-14.5 34.5q0 10 2.5 16t12.5 20q3 3 3 7q0 5 -7 5q-8 0 -21 -9t-21 -20q-31 -40 -48.5 -100t-17.5 -125v-47
q0 -20 1 -30.5t7.5 -15.5t20 -6t37.5 -1h24v-35h-248v35h13q51 0 59 8q2 2 3.5 4.5t2 11.5t1 26.5t0.5 49.5v154q0 30 -0.5 46.5t-1.5 24.5t-2.5 11.5t-4.5 6.5q-12 13 -55 13h-20v34h30q10 0 28 1l76 5zM56 639h37l106 -83l108 83h37l-120 -136h-52z" />
    <glyph glyph-name="Sacute" unicode="&#x15a;" horiz-adv-x="575" 
d="M313 826q14 15 23 23.5t15 13t10.5 5.5t10.5 1q14 0 24 -10.5t10 -24.5q0 -16 -12.5 -28t-45.5 -29l-97 -50l-16 20zM486 431l-30 -3q-8 29 -15.5 51t-16 40t-17.5 32.5t-21 27.5q-56 63 -130 63q-27 0 -50 -8.5t-39.5 -23.5t-26 -36t-9.5 -45q0 -68 71 -98
q9 -4 15.5 -6.5t17 -5.5t28.5 -7t49 -11q109 -25 158.5 -73.5t49.5 -131.5q0 -47 -15.5 -86t-44 -66.5t-68 -43t-87.5 -15.5q-55 0 -97 18t-83 58l-42 -62h-32v255l30 3q8 -31 16 -54t16.5 -41.5t18.5 -33.5t22 -29q34 -38 71 -56.5t83 -18.5q31 0 57 9t44.5 25.5t29 39
t10.5 49.5q0 29 -13 53t-36 39q-19 11 -42.5 20t-67.5 21q-43 12 -69 19.5t-43 14t-27.5 12.5t-22.5 15q-66 51 -66 140q0 44 14.5 81t40.5 63.5t62 41.5t78 15q45 0 81.5 -15t79.5 -51l38 54h30v-239z" />
    <glyph glyph-name="sacute" unicode="&#x15b;" horiz-adv-x="413" 
d="M349 273h-28q-27 67 -59.5 98t-77.5 31q-31 0 -52 -17.5t-21 -43.5q0 -29 23 -46.5t74 -27.5q23 -5 39 -8.5t27.5 -7t21 -7.5t18.5 -9q29 -16 45 -45t16 -64q0 -30 -11 -55.5t-30 -44t-45.5 -29t-57.5 -10.5q-33 0 -60 11t-67 40l-27 -41h-30v178h30q20 -72 59.5 -109.5
t93.5 -37.5q37 0 61 20t24 50q0 41 -41 56q-8 3 -13.5 5t-13.5 4t-22 5t-39 8q-69 15 -101 47t-32 86q0 28 10 51.5t27.5 41t41.5 27t53 9.5t55 -9t57 -31l19 32h33v-157zM233 603l23 23q9 9 15 13.5t10.5 5.5t10.5 1q14 0 24 -10.5t10 -25.5t-12.5 -27t-45.5 -29l-98 -51
l-16 20z" />
    <glyph glyph-name="Scircumflex" unicode="&#x15c;" horiz-adv-x="575" 
d="M431 727h-37l-106 82l-108 -82h-37l120 135h52zM486 431l-30 -3q-8 29 -15.5 51t-16 40t-17.5 32.5t-21 27.5q-56 63 -130 63q-27 0 -50 -8.5t-39.5 -23.5t-26 -36t-9.5 -45q0 -68 71 -98q9 -4 15.5 -6.5t17 -5.5t28.5 -7t49 -11q109 -25 158.5 -73.5t49.5 -131.5
q0 -47 -15.5 -86t-44 -66.5t-68 -43t-87.5 -15.5q-55 0 -97 18t-83 58l-42 -62h-32v255l30 3q8 -31 16 -54t16.5 -41.5t18.5 -33.5t22 -29q34 -38 71 -56.5t83 -18.5q31 0 57 9t44.5 25.5t29 39t10.5 49.5q0 29 -13 53t-36 39q-19 11 -42.5 20t-67.5 21q-43 12 -69 19.5
t-43 14t-27.5 12.5t-22.5 15q-66 51 -66 140q0 44 14.5 81t40.5 63.5t62 41.5t78 15q45 0 81.5 -15t79.5 -51l38 54h30v-239z" />
    <glyph glyph-name="scircumflex" unicode="&#x15d;" horiz-adv-x="413" 
d="M351 503h-38l-105 83l-108 -83h-37l120 136h52zM349 273h-28q-27 67 -59.5 98t-77.5 31q-31 0 -52 -17.5t-21 -43.5q0 -29 23 -46.5t74 -27.5q23 -5 39 -8.5t27.5 -7t21 -7.5t18.5 -9q29 -16 45 -45t16 -64q0 -30 -11 -55.5t-30 -44t-45.5 -29t-57.5 -10.5q-33 0 -60 11
t-67 40l-27 -41h-30v178h30q20 -72 59.5 -109.5t93.5 -37.5q37 0 61 20t24 50q0 41 -41 56q-8 3 -13.5 5t-13.5 4t-22 5t-39 8q-69 15 -101 47t-32 86q0 28 10 51.5t27.5 41t41.5 27t53 9.5t55 -9t57 -31l19 32h33v-157z" />
    <glyph glyph-name="Scedilla" unicode="&#x15e;" horiz-adv-x="575" 
d="M305 -68q7 1 13.5 1.5t10.5 0.5q27 0 44 -15.5t17 -39.5q0 -35 -32 -57t-83 -22q-17 0 -29.5 2t-34.5 9l13 32q14 -5 22.5 -6t21.5 -1q30 0 48 10t18 27q0 26 -45 26q-7 0 -14 -0.5t-20 -2.5l31 90q-96 7 -161 75l-42 -62h-32v255l30 3q8 -31 16 -54t16.5 -41.5
t18.5 -33.5t22 -29q34 -38 71 -56.5t83 -18.5q31 0 57 9t44.5 25.5t29 39t10.5 49.5q0 29 -13 53t-36 39q-19 11 -42.5 20t-67.5 21q-43 12 -69.5 19.5t-43 14t-27 12.5t-22.5 15q-66 51 -66 140q0 44 14.5 81t40.5 63.5t62 41.5t78 15q45 0 81.5 -15t79.5 -51l38 54h30
v-239l-30 -3q-8 29 -15.5 51t-16 40t-17.5 32.5t-21 27.5q-56 63 -130 63q-27 0 -50 -8.5t-39.5 -23.5t-26 -36t-9.5 -45q0 -68 71 -98q9 -4 15.5 -6.5t17 -5.5t28.5 -7t49 -11q109 -25 158.5 -73.5t49.5 -131.5q0 -90 -53.5 -146t-144.5 -64z" />
    <glyph glyph-name="scedilla" unicode="&#x15f;" horiz-adv-x="413" 
d="M349 273h-28q-27 68 -59.5 98.5t-77.5 30.5q-31 0 -52 -17.5t-21 -43.5q0 -29 23 -46.5t74 -27.5q23 -5 39 -8.5t27.5 -7t21 -7.5t18.5 -9q29 -16 45 -45t16 -64q0 -59 -38 -97t-99 -42l-14 -44q72 -3 72 -55q0 -29 -24.5 -47t-62.5 -18q-23 0 -42 5.5t-45 20.5l15 26
q29 -14 58 -14q21 0 33.5 7.5t12.5 21.5q0 12 -11 19t-31 7h-8q-3 0 -14 -1l28 74q-25 4 -48 15.5t-53 34.5l-27 -42h-30v178h30q20 -72 59.5 -109.5t93.5 -37.5q37 0 61 20t24 50q0 41 -41 56q-8 3 -13.5 5t-13.5 4t-22 5t-39 8q-69 15 -101 47t-32 86q0 28 10 51.5
t27.5 41t41.5 27t53 9.5t55 -9t57 -31l19 32h33v-157z" />
    <glyph glyph-name="Scaron" unicode="&#x160;" horiz-adv-x="575" 
d="M143 862h37l106 -82l108 82h37l-120 -135h-52zM486 431l-30 -3q-8 29 -15.5 51t-16 40t-17.5 32.5t-21 27.5q-56 63 -130 63q-27 0 -50 -8.5t-39.5 -23.5t-26 -36t-9.5 -45q0 -68 71 -98q9 -4 15.5 -6.5t17 -5.5t28.5 -7t49 -11q109 -25 158.5 -73.5t49.5 -131.5
q0 -47 -15.5 -86t-44 -66.5t-68 -43t-87.5 -15.5q-55 0 -97 18t-83 58l-42 -62h-32v255l30 3q8 -31 16 -54t16.5 -41.5t18.5 -33.5t22 -29q34 -38 71 -56.5t83 -18.5q31 0 57 9t44.5 25.5t29 39t10.5 49.5q0 29 -13 53t-36 39q-19 11 -42.5 20t-67.5 21q-43 12 -69 19.5
t-43 14t-27.5 12.5t-22.5 15q-66 51 -66 140q0 44 14.5 81t40.5 63.5t62 41.5t78 15q45 0 81.5 -15t79.5 -51l38 54h30v-239z" />
    <glyph glyph-name="scaron" unicode="&#x161;" horiz-adv-x="413" 
d="M63 639h37l106 -83l108 83h37l-120 -136h-52zM349 273h-28q-27 67 -59.5 98t-77.5 31q-31 0 -52 -17.5t-21 -43.5q0 -29 23 -46.5t74 -27.5q23 -5 39 -8.5t27.5 -7t21 -7.5t18.5 -9q29 -16 45 -45t16 -64q0 -30 -11 -55.5t-30 -44t-45.5 -29t-57.5 -10.5q-33 0 -60 11
t-67 40l-27 -41h-30v178h30q20 -72 59.5 -109.5t93.5 -37.5q37 0 61 20t24 50q0 41 -41 56q-8 3 -13.5 5t-13.5 4t-22 5t-39 8q-69 15 -101 47t-32 86q0 28 10 51.5t27.5 41t41.5 27t53 9.5t55 -9t57 -31l19 32h33v-157z" />
    <glyph glyph-name="Tcommaaccent" unicode="&#x162;" horiz-adv-x="574" 
d="M560 417l-34 -3q-6 38 -12 65t-13 47t-15.5 34.5t-20.5 27.5q-39 44 -102 44q-19 0 -24 -8.5t-5 -38.5v-490q0 -17 0.5 -26t2 -14.5t4.5 -7.5t8 -3q14 -3 58 -5l32 -2v-37h-305v37l32 2q53 1 63 7q7 3 8.5 10.5t1.5 38.5v490q0 30 -5 38.5t-24 8.5q-73 0 -113 -58
q-9 -13 -15.5 -27t-12.5 -32t-11 -42.5t-11 -58.5l-34 3l11 250h525zM302 -57q71 -3 71 -56q0 -28 -24.5 -46t-62.5 -18q-23 0 -42 6t-44 20l15 26q28 -14 57 -14q21 0 33.5 7.5t12.5 21.5q0 12 -11 19t-31 7h-8q-4 0 -13 -1l37 98h31z" />
    <glyph glyph-name="tcommaaccent" unicode="&#x163;" horiz-adv-x="331" 
d="M170 425h135v-39h-135v-224q0 -23 0.5 -37.5t1.5 -24t3 -16.5t5 -13q5 -13 17.5 -20.5t26.5 -7.5q19 0 35.5 13.5t26.5 36.5q7 17 9.5 33t4.5 46h34q0 -23 -1 -40.5t-3.5 -31.5t-7 -25t-10.5 -22q-40 -67 -117 -67q-105 0 -105 115l1 59v226h-84v39q32 -1 54 8.5t37 31.5
t23 58t12 90h37v-188zM182 -57q71 -3 71 -56q0 -28 -24.5 -46t-62.5 -18q-23 0 -42 6t-44 20l15 26q28 -14 57 -14q21 0 33.5 7.5t12.5 21.5q0 12 -11 19t-31 7h-8q-4 0 -13 -1l37 98h31z" />
    <glyph glyph-name="Tcaron" unicode="&#x164;" horiz-adv-x="574" 
d="M143 862h37l106 -82l108 82h37l-120 -135h-52zM560 417l-34 -3q-6 38 -12 65t-13 47t-15.5 34.5t-20.5 27.5q-39 44 -102 44q-19 0 -24 -8.5t-5 -38.5v-490q0 -17 0.5 -26t2 -14.5t4.5 -7.5t8 -3q14 -3 58 -5l32 -2v-37h-305v37l32 2q53 1 63 7q7 3 8.5 10.5t1.5 38.5
v490q0 30 -5 38.5t-24 8.5q-73 0 -113 -58q-9 -13 -15.5 -27t-12.5 -32t-11 -42.5t-11 -58.5l-34 3l11 250h525z" />
    <glyph glyph-name="tcaron" unicode="&#x165;" horiz-adv-x="331" 
d="M170 425h135v-39h-135v-224q0 -23 0.5 -37.5t1.5 -24t3 -16.5t5 -13q5 -13 17.5 -20.5t26.5 -7.5q19 0 35.5 13.5t26.5 36.5q7 17 9.5 33t4.5 46h34q0 -23 -1 -40.5t-3.5 -31t-7 -25t-10.5 -22.5q-40 -67 -117 -67q-35 0 -60 14.5t-36 41.5q-3 8 -5 14.5t-3 18t-1 30.5
v281h-83v39q32 -1 54 8.5t37 31.5t23 58.5t11 89.5h38v-188zM233 514q45 37 45 68q0 9 -10 9q-47 1 -47 42q0 21 14 35t35 14q23 0 38.5 -18.5t15.5 -47.5q0 -35 -17.5 -64t-56.5 -60z" />
    <glyph glyph-name="Tbar" unicode="&#x166;" horiz-adv-x="574" 
d="M447 427v-38h-113v-301q0 -16 0.5 -24t1.5 -10.5t3 -4.5q5 -5 19.5 -7t48.5 -4l32 -1v-37h-304v37l31 1q35 2 49.5 4t19.5 7q2 2 3 4.5t1.5 10.5t0.5 24v301h-113v38h113v159q0 15 -1 24t-4.5 13.5t-11 6t-19.5 1.5q-84 0 -122 -82q-6 -13 -11 -25.5t-9 -28t-7.5 -35.5
t-7.5 -47l-34 4l11 250h525l11 -250l-34 -4q-6 38 -12 65.5t-13 47.5t-15.5 34.5t-20.5 27.5q-39 44 -102 44q-19 0 -24 -8t-5 -39v-158h113z" />
    <glyph glyph-name="tbar" unicode="&#x167;" horiz-adv-x="331" 
d="M305 298v-39h-135v-97q0 -23 0.5 -37.5t1.5 -24t3 -16.5t5 -13q5 -13 17.5 -20.5t26.5 -7.5q19 0 35.5 13.5t26.5 36.5q7 17 9.5 33t4.5 46h34q0 -23 -1 -40.5t-3.5 -31t-7 -25t-10.5 -22.5q-40 -67 -117 -67q-35 0 -60 14.5t-36 41.5q-3 8 -5 14.5t-3 18t-1 30.5v154
h-83v39h83v88h-83v39q32 -1 54 8.5t37 31.5t23 58.5t11 89.5h38v-188h135v-39h-135v-88h135z" />
    <glyph glyph-name="Utilde" unicode="&#x168;" horiz-adv-x="689" 
d="M679 630q-30 -3 -49 -9t-29 -18.5t-13.5 -33t-3.5 -53.5v-229q0 -49 -2.5 -84.5t-8.5 -62t-16 -47t-25 -38.5q-60 -73 -188 -73q-73 0 -125 24t-81 70q-9 14 -14.5 30.5t-9.5 37.5t-5.5 48.5t-1.5 64.5v315q0 17 -0.5 26.5t-2 14.5t-4.5 6.5t-8 3.5q-6 2 -17.5 3t-41.5 2
l-23 2v37h289v-37l-23 -2q-17 -1 -28 -1.5t-18 -1.5t-11 -2t-7 -2q-7 -3 -8.5 -10.5t-1.5 -38.5v-318q0 -35 1.5 -60t5.5 -44t11 -33.5t17 -28.5q20 -28 53 -42.5t75 -14.5q51 0 88.5 21t57.5 59q8 15 13 31t8 35.5t4.5 46t1.5 62.5v232q0 32 -4.5 52.5t-16 33t-32 18
t-52.5 8.5v37h246v-37zM500 859q-9 -48 -32.5 -74.5t-56.5 -26.5q-28 0 -85 29q-19 10 -30 15.5t-18 8.5t-11 3.5t-10 0.5q-29 0 -39 -44l-29 4q21 95 91 95q16 0 31.5 -5.5t45.5 -21.5t46 -22t27 -6q31 0 42 47z" />
    <glyph glyph-name="utilde" unicode="&#x169;" horiz-adv-x="524" 
d="M434 136q0 -30 0.5 -46.5t1.5 -25t2.5 -11.5t4.5 -7q12 -12 55 -12h14v-34q-54 -2 -91.5 -3.5t-58.5 -3.5q-3 21 -4.5 42t-1.5 48q-30 -50 -60.5 -70.5t-74.5 -20.5q-38 0 -68 17.5t-44 49.5q-6 12 -9.5 24.5t-5.5 29t-3 38t-1 53.5v85q0 30 -0.5 46t-1.5 24.5t-3 11.5
t-5 7q-6 7 -19 10t-36 3h-10v34l25 1l48 1q14 1 23.5 1.5t18.5 0.5l18 1q9 1 21 2v-230q0 -27 0.5 -45t2 -30.5t4.5 -21.5t8 -18q10 -17 26.5 -27t37.5 -10q53 0 80.5 44.5t27.5 131.5v101q0 21 -2 33.5t-9 19.5t-20 9t-34 2h-15v34l20 1l61 2q14 1 33 1.5t44 2.5v-296z
M417 617q-9 -48 -32.5 -74.5t-56.5 -26.5q-28 0 -85 29q-19 10 -30 15.5t-18 8.5t-11 3.5t-9 0.5q-30 0 -40 -44l-29 4q21 95 91 95q16 0 31.5 -5.5t46.5 -21.5q29 -16 45 -22t27 -6q31 0 42 47z" />
    <glyph glyph-name="Umacron" unicode="&#x16a;" horiz-adv-x="689" 
d="M499 767h-309v55h309v-55zM679 630q-30 -3 -49 -9t-29 -18.5t-13.5 -33t-3.5 -53.5v-229q0 -49 -2.5 -84.5t-8.5 -62t-16 -47t-25 -38.5q-60 -73 -188 -73q-73 0 -125 24t-81 70q-9 14 -14.5 30.5t-9.5 37.5t-5.5 48.5t-1.5 64.5v315q0 17 -0.5 26.5t-2 14.5t-4.5 6.5
t-8 3.5q-6 2 -17.5 3t-41.5 2l-23 2v37h289v-37l-23 -2q-17 -1 -28 -1.5t-18 -1.5t-11 -2t-7 -2q-7 -3 -8.5 -10.5t-1.5 -38.5v-318q0 -35 1.5 -60t5.5 -44t11 -33.5t17 -28.5q20 -28 53 -42.5t75 -14.5q51 0 88.5 21t57.5 59q8 15 13 31t8 35.5t4.5 46t1.5 62.5v232
q0 32 -4.5 52.5t-16 33t-32 18t-52.5 8.5v37h246v-37z" />
    <glyph glyph-name="umacron" unicode="&#x16b;" horiz-adv-x="524" 
d="M434 136q0 -30 0.5 -46.5t1.5 -25t2.5 -11.5t4.5 -7q12 -12 55 -12h14v-34q-54 -2 -91.5 -3.5t-58.5 -3.5q-3 21 -4.5 42t-1.5 48q-29 -50 -60 -70.5t-75 -20.5q-38 0 -68 17.5t-44 49.5q-6 12 -9.5 24.5t-5.5 29t-3 38t-1 53.5v85q0 30 -0.5 46t-1.5 24.5t-3 11.5t-5 7
q-6 7 -19 10t-36 3h-10v34l25 1l48 1q14 1 24 1.5t18.5 1t17.5 1t21 1.5v-230q0 -27 0.5 -45t2 -30.5t5 -21.5t8.5 -18q9 -18 25.5 -27.5t37.5 -9.5q53 0 80 44.5t27 131.5v101q0 21 -2 33.5t-9 19.5t-19.5 9t-33.5 2h-15v34l20 1l61 2q12 0 31.5 1t45.5 3v-296zM389 545
h-255v52h255v-52z" />
    <glyph glyph-name="Ubreve" unicode="&#x16c;" horiz-adv-x="689" 
d="M679 630q-30 -3 -49 -9t-29 -18.5t-13.5 -33t-3.5 -53.5v-229q0 -49 -2.5 -84.5t-8.5 -62t-16 -47t-25 -38.5q-60 -73 -188 -73q-73 0 -125 24t-81 70q-9 14 -14.5 30.5t-9.5 37.5t-5.5 48.5t-1.5 64.5v315q0 17 -0.5 26.5t-2 14.5t-4.5 6.5t-8 3.5q-6 2 -17.5 3t-41.5 2
l-23 2v37h289v-37l-23 -2q-17 -1 -28 -1.5t-18 -1.5t-11 -2t-7 -2q-7 -3 -8.5 -10.5t-1.5 -38.5v-318q0 -35 1.5 -60t5.5 -44t11 -33.5t17 -28.5q20 -28 53 -42.5t75 -14.5q51 0 88.5 21t57.5 59q8 15 13 31t8 35.5t4.5 46t1.5 62.5v232q0 32 -4.5 52.5t-16 33t-32 18
t-52.5 8.5v37h246v-37zM466 878q-5 -65 -34 -95.5t-87 -30.5q-67 0 -101 47q-12 17 -16.5 33.5t-4.5 45.5h25q9 -67 95 -67q77 0 98 67h25z" />
    <glyph glyph-name="ubreve" unicode="&#x16d;" horiz-adv-x="524" 
d="M434 136q0 -30 0.5 -46.5t1.5 -25t2.5 -11.5t4.5 -7q12 -12 55 -12h14v-34q-54 -2 -91.5 -3.5t-58.5 -3.5q-3 21 -4.5 42t-1.5 48q-29 -50 -60 -70.5t-75 -20.5q-38 0 -68 17.5t-44 49.5q-6 12 -9.5 24.5t-5.5 29t-3 38t-1 53.5v85q0 30 -0.5 46t-1.5 24.5t-3 11.5t-5 7
q-6 7 -19 10t-36 3h-10v34l25 1l48 1q14 1 24 1.5t18.5 1t17.5 1t21 1.5v-230q0 -27 0.5 -45t2 -30.5t5 -21.5t8.5 -18q9 -18 25.5 -27.5t37.5 -9.5q53 0 80 44.5t27 131.5v101q0 21 -2 33.5t-9 19.5t-19.5 9t-33.5 2h-15v34l20 1l61 2q12 0 31.5 1t45.5 3v-296zM383 636
q-5 -65 -34 -95.5t-87 -30.5q-67 0 -101 47q-11 17 -15.5 33.5t-5.5 45.5h25q9 -67 95 -67q77 0 98 67h25z" />
    <glyph glyph-name="Uring" unicode="&#x16e;" horiz-adv-x="689" 
d="M679 630q-30 -3 -49 -9t-29 -18.5t-13.5 -33t-3.5 -53.5v-229q0 -49 -2.5 -84.5t-8.5 -62t-16 -47t-25 -38.5q-60 -73 -188 -73q-73 0 -125 24t-81 70q-9 14 -14.5 30.5t-9.5 37.5t-5.5 48.5t-1.5 64.5v315q0 17 -0.5 26.5t-2 14.5t-4.5 6.5t-8 3.5q-6 2 -17.5 3t-41.5 2
l-23 2v37h289v-37l-23 -2q-17 -1 -28 -1.5t-18 -1.5t-11 -2t-7 -2q-7 -3 -8.5 -10.5t-1.5 -38.5v-318q0 -35 1.5 -60t5.5 -44t11 -33.5t17 -28.5q20 -28 53 -42.5t75 -14.5q51 0 88.5 21t57.5 59q8 15 13 31t8 35.5t4.5 46t1.5 62.5v232q0 32 -4.5 52.5t-16 33t-32 18
t-52.5 8.5v37h246v-37zM345 897q38 0 64 -26t26 -64q0 -19 -7 -35.5t-19.5 -28.5t-29 -19t-35.5 -7q-18 0 -34 7t-28.5 19.5t-19.5 29t-7 34.5q0 38 26 64t64 26zM345 860q-22 0 -37.5 -15.5t-15.5 -37.5t15.5 -37.5t37.5 -15.5t37.5 15t15.5 38q0 22 -15.5 37.5t-37.5 15.5
z" />
    <glyph glyph-name="uring" unicode="&#x16f;" horiz-adv-x="524" 
d="M434 136q0 -30 0.5 -46.5t1.5 -25t2.5 -11.5t4.5 -7q12 -12 55 -12h14v-34q-54 -2 -91.5 -3.5t-58.5 -3.5q-3 21 -4.5 42t-1.5 48q-29 -50 -60 -70.5t-75 -20.5q-38 0 -68 17.5t-44 49.5q-6 12 -9.5 24.5t-5.5 29t-3 38t-1 53.5v85q0 30 -0.5 46t-1.5 24.5t-3 11.5t-5 7
q-6 7 -19 10t-36 3h-10v34l25 1l48 1q14 1 24 1.5t18.5 1t17.5 1t21 1.5v-230q0 -27 0.5 -45t2 -30.5t5 -21.5t8.5 -18q9 -18 25.5 -27.5t37.5 -9.5q53 0 80 44.5t27 131.5v101q0 21 -2 33.5t-9 19.5t-19.5 9t-33.5 2h-15v34l20 1l61 2q12 0 31.5 1t45.5 3v-296zM248 640
q-22 0 -37.5 -15.5t-15.5 -37.5t15.5 -37.5t37.5 -15.5t37.5 15t15.5 38q0 22 -15.5 37.5t-37.5 15.5zM248 677q38 0 64 -26t26 -64q0 -19 -7 -35.5t-19.5 -28.5t-29 -19t-35.5 -7q-18 0 -34 7t-28.5 19.5t-19.5 29t-7 34.5q0 38 26 64t64 26z" />
    <glyph glyph-name="Uhungarumlaut" unicode="&#x170;" horiz-adv-x="689" 
d="M679 630q-30 -3 -49 -9t-29 -18.5t-13.5 -33t-3.5 -53.5v-229q0 -49 -2.5 -84.5t-8.5 -62t-16 -47t-25 -38.5q-60 -73 -188 -73q-73 0 -125 24t-81 70q-9 14 -14.5 30.5t-9.5 37.5t-5.5 48.5t-1.5 64.5v315q0 17 -0.5 26.5t-2 14.5t-4.5 6.5t-8 3.5q-6 2 -17.5 3t-41.5 2
l-23 2v37h289v-37l-23 -2q-17 -1 -28 -1.5t-18 -1.5t-11 -2t-7 -2q-7 -3 -8.5 -10.5t-1.5 -38.5v-318q0 -35 1.5 -60t5.5 -44t11 -33.5t17 -28.5q20 -28 53 -42.5t75 -14.5q51 0 88.5 21t57.5 59q8 15 13 31t8 35.5t4.5 46t1.5 62.5v232q0 32 -4.5 52.5t-16 33t-32 18
t-52.5 8.5v37h246v-37zM284 818l19 26q8 10 14 15t11 7t11 2q14 0 23.5 -9.5t9.5 -23.5t-10.5 -27t-38.5 -32l-73 -49l-19 17zM437 818q12 16 20 26t13.5 15.5t10.5 7t11 1.5q14 0 23.5 -9.5t9.5 -23.5t-11 -27t-38 -32l-73 -49l-19 17z" />
    <glyph glyph-name="uhungarumlaut" unicode="&#x171;" horiz-adv-x="524" 
d="M434 136q0 -30 0.5 -46.5t1.5 -25t2.5 -11.5t4.5 -7q12 -12 55 -12h14v-34q-54 -2 -91.5 -3.5t-58.5 -3.5q-3 21 -4.5 42t-1.5 48q-29 -50 -60 -70.5t-75 -20.5q-38 0 -68 17.5t-44 49.5q-6 12 -9.5 24.5t-5.5 29t-3 38t-1 53.5v85q0 30 -0.5 46t-1.5 24.5t-3 11.5t-5 7
q-6 7 -19 10t-36 3h-10v34l25 1l48 1q14 1 24 1.5t18.5 1t17.5 1t21 1.5v-230q0 -27 0.5 -45t2 -30.5t5 -21.5t8.5 -18q9 -18 25.5 -27.5t37.5 -9.5q53 0 80 44.5t27 131.5v101q0 21 -2 33.5t-9 19.5t-19.5 9t-33.5 2h-15v34l20 1l61 2q12 0 31.5 1t45.5 3v-296zM354 594
q12 17 20 27t13.5 15.5t10.5 7t11 1.5q14 0 23.5 -9.5t9.5 -23.5t-11 -27t-38 -32l-73 -50l-19 18zM201 594q12 17 19.5 27t13.5 15.5t11 7t11 1.5q14 0 23.5 -9.5t9.5 -23.5t-10.5 -27t-39.5 -32l-73 -50l-18 18z" />
    <glyph glyph-name="Uogonek" unicode="&#x172;" horiz-adv-x="689" 
d="M679 630q-30 -3 -49 -9t-29 -18.5t-13.5 -33t-3.5 -53.5v-229q0 -41 -1.5 -70t-4.5 -51.5t-8.5 -40t-13.5 -33.5q-7 -14 -13 -23t-15.5 -18.5t-25.5 -21.5t-44 -32q-25 -17 -38.5 -38.5t-13.5 -43.5q0 -23 16 -37t42 -14q13 0 26 4t34 14l18 -28q-23 -19 -50 -28.5
t-53 -9.5q-37 0 -61 21.5t-24 55.5q0 49 52 94q-18 -3 -32 -4t-31 -1q-72 0 -124 24t-81 70q-9 14 -14.5 30.5t-9.5 37.5t-5.5 48.5t-1.5 64.5v315q0 17 -0.5 26.5t-2 14.5t-4.5 6.5t-8 3.5q-6 2 -17.5 3t-41.5 2l-23 2v37h289v-37l-23 -2q-17 -1 -28 -1.5t-18 -1.5t-11 -2
t-7 -2q-7 -3 -8.5 -10.5t-1.5 -38.5v-318q0 -35 1.5 -60t5.5 -44t11 -33.5t17 -28.5q20 -28 53 -42.5t75 -14.5q51 0 88.5 21t57.5 59q8 15 13 31t8 35.5t4.5 46t1.5 62.5v232q0 32 -4.5 52.5t-16 33t-32 18t-52.5 8.5v37h246v-37z" />
    <glyph glyph-name="uogonek" unicode="&#x173;" horiz-adv-x="524" 
d="M434 136q0 -30 0.5 -46.5t1.5 -25t2.5 -11.5t4.5 -7q12 -12 55 -12h14v-34q-35 -10 -55 -31.5t-20 -49.5q0 -20 15 -33t38 -13q12 0 24 4t31 14l17 -27q-44 -35 -94 -35q-35 0 -57.5 20t-22.5 52q0 28 15 51t47 46q-27 -2 -45 -2.5t-43 -2.5q-3 21 -4.5 42t-1.5 48
q-30 -50 -60.5 -70.5t-74.5 -20.5q-38 0 -68 17.5t-44 49.5q-6 12 -9.5 24.5t-5.5 29t-3 38t-1 53.5v85q0 30 -0.5 46t-1.5 24.5t-3 11.5t-5 7q-6 7 -19 10t-36 3h-10v34l25 1l48 1q14 1 23.5 1.5t18.5 0.5l18 1q9 1 21 2v-230q0 -27 0.5 -45t2 -30.5t4.5 -21.5t8 -18
q10 -17 26.5 -27t37.5 -10q53 0 80.5 44.5t27.5 131.5v101q0 21 -2 33.5t-9 19.5t-20 9t-34 2h-15v34l20 1l61 2q14 1 33 1.5t44 2.5v-296z" />
    <glyph glyph-name="Wcircumflex" unicode="&#x174;" horiz-adv-x="952" 
d="M620 727h-38l-105 82l-108 -82h-37l120 135h52zM328 -16h-40l-190 582q-7 22 -11.5 33.5t-11 17.5t-16.5 7.5t-28 3.5l-22 2v37h268v-37l-26 -1q-37 0 -49 -5.5t-12 -21.5q0 -5 2 -12.5t7 -24.5l136 -412l120 386l-11 32q-7 19 -12 30t-12.5 16.5t-19 7.5t-31.5 3l-21 2
v37h270v-37q-27 -1 -43 -2t-24.5 -3.5t-11 -7.5t-2.5 -12q0 -8 2 -16t8 -27l133 -404l106 351q8 26 10.5 38t2.5 23q0 39 -34 51q-11 4 -21.5 5.5t-34.5 3.5v37h234v-37q-24 -3 -40.5 -10t-28.5 -22t-22 -40.5t-22 -66.5l-155 -507h-38l-158 492z" />
    <glyph glyph-name="wcircumflex" unicode="&#x175;" horiz-adv-x="670" 
d="M235 -13h-30l-125 345q-8 19 -13 30t-10.5 17t-13.5 7.5t-21 3.5l-15 2v33h202v-33l-15 -1q-29 -2 -36.5 -5t-7.5 -12q0 -3 1.5 -7.5t10.5 -27.5l79 -216l72 209l-9 23q-4 11 -7.5 17.5t-8.5 10t-12.5 5t-19.5 2.5l-15 2v33h200v-33l-20 -1q-37 -1 -36 -18
q0 -6 1.5 -10.5t9.5 -25.5l80 -221l66 193q6 17 8 26t2 17q0 18 -12.5 26.5t-43.5 13.5v33h168v-33q-17 -3 -28.5 -8t-20.5 -16t-17.5 -30t-19.5 -50l-108 -301h-29l-104 294zM479 503h-37l-106 83l-108 -83h-37l120 136h52z" />
    <glyph glyph-name="Ycircumflex" unicode="&#x176;" horiz-adv-x="626" 
d="M457 727h-37l-106 82l-108 -82h-37l120 135h53zM376 95q0 -17 0.5 -26.5t2 -14.5t4.5 -7t8 -3q6 -2 22 -3t37 -2l32 -2v-37h-305v37l30 2q29 1 43.5 2.5t20.5 4.5q7 4 8.5 11.5t1.5 37.5v170l-186 311q-11 18 -18 28t-16 15.5t-23 7t-38 3.5v37h280v-37h-38
q-29 0 -39.5 -4t-10.5 -16q0 -13 13 -33l147 -245l105 204q8 16 11.5 26.5t3.5 20.5q0 11 -6.5 21.5t-17.5 15.5t-22.5 6.5t-39.5 3.5v37h240v-37q-22 -1 -37.5 -6t-29.5 -16.5t-27.5 -32t-30.5 -53.5l-125 -243v-184z" />
    <glyph glyph-name="ycircumflex" unicode="&#x177;" horiz-adv-x="472" 
d="M381 503h-38l-106 83l-108 -83h-37l120 136h53zM466 392q-18 -4 -29.5 -9t-20.5 -15.5t-17.5 -28.5t-19.5 -49l-80 -222q-14 -39 -25 -66.5t-21 -47.5t-20 -36t-23 -31q-54 -63 -118 -63q-35 0 -58 20t-23 50q0 23 14.5 38t35.5 15q43 0 44 -53q0 -21 16 -21
q26 0 54 33.5t55 95.5l-153 336q-8 18 -13 28.5t-12 15.5t-17 6.5t-28 3.5v33h209v-33l-26 -2q-23 -2 -30.5 -5t-7.5 -11q0 -5 2.5 -12.5t10.5 -24.5l106 -233l70 197q7 20 10 31.5t3 19.5q0 20 -13.5 28.5t-48.5 11.5v33h174v-33z" />
    <glyph glyph-name="Ydieresis" unicode="&#x178;" horiz-adv-x="626" 
d="M407 850q22 0 37.5 -15.5t15.5 -37.5q0 -23 -15.5 -38.5t-38.5 -15.5q-22 0 -37.5 15.5t-15.5 37.5q0 23 15.5 38.5t38.5 15.5zM221 850q22 0 37.5 -15.5t15.5 -37.5q0 -23 -15.5 -38.5t-38.5 -15.5q-22 0 -37.5 15.5t-15.5 37.5q0 23 15.5 38.5t38.5 15.5zM376 95
q0 -17 0.5 -26.5t2 -14.5t4.5 -7t8 -3q6 -2 22 -3t37 -2l32 -2v-37h-305v37l30 2q29 1 43.5 2.5t20.5 4.5q7 4 8.5 11.5t1.5 37.5v170l-186 311q-11 18 -18 28t-16 15.5t-23 7t-38 3.5v37h280v-37h-38q-29 0 -39.5 -4t-10.5 -16q0 -13 13 -33l147 -245l105 204
q8 16 11.5 26.5t3.5 20.5q0 11 -6.5 21.5t-17.5 15.5t-22.5 6.5t-39.5 3.5v37h240v-37q-22 -1 -37.5 -6t-29.5 -16.5t-27.5 -32t-30.5 -53.5l-125 -243v-184z" />
    <glyph glyph-name="Zacute" unicode="&#x179;" horiz-adv-x="565" 
d="M309 826q14 14 23 22.5t15 13t10.5 6t10.5 1.5q14 0 24 -10.5t10 -24.5q0 -16 -12.5 -28t-45.5 -29l-97 -50l-16 20zM517 0h-470v34l356 593h-90q-38 0 -65 -4t-47 -13t-34.5 -24t-26.5 -38q-10 -20 -18 -45t-16 -68l-33 2l11 230h433v-34l-355 -591h88q41 0 70.5 2.5
t50.5 9t35.5 17t26.5 27.5q19 27 33 62.5t27 94.5l32 -1z" />
    <glyph glyph-name="zacute" unicode="&#x17a;" horiz-adv-x="419" 
d="M235 603q15 15 24 23.5t15 13t10 5.5t10 1q14 0 24 -10.5t10 -25.5t-12.5 -27t-44.5 -29l-98 -51l-16 20zM383 394l-242 -356h81q43 0 63 7.5t34 27.5q13 17 21 39t13 54l30 -3l-5 -163h-339v29l243 357h-79q-29 0 -47.5 -4t-31 -16t-21 -35t-17.5 -60l-29 3l7 151h319
v-31z" />
    <glyph glyph-name="Zdotaccent" unicode="&#x17b;" horiz-adv-x="565" 
d="M284 850q22 0 37.5 -15.5t15.5 -37.5q0 -23 -15.5 -38.5t-38.5 -15.5q-22 0 -37.5 15.5t-15.5 37.5q0 23 15.5 38.5t38.5 15.5zM517 0h-470v34l356 593h-90q-38 0 -65 -4t-47 -13t-34.5 -24t-26.5 -38q-10 -20 -18 -45t-16 -68l-33 2l11 230h433v-34l-355 -591h88
q41 0 70.5 2.5t50.5 9t35.5 17t26.5 27.5q19 27 33 62.5t27 94.5l32 -1z" />
    <glyph glyph-name="zdotaccent" unicode="&#x17c;" horiz-adv-x="419" 
d="M210 627q22 0 37.5 -15.5t15.5 -37.5q0 -23 -15.5 -38.5t-38.5 -15.5q-22 0 -37.5 15.5t-15.5 37.5q0 23 15.5 38.5t38.5 15.5zM383 394l-242 -356h81q43 0 63 7.5t34 27.5q13 17 21 39t13 54l30 -3l-5 -163h-339v29l243 357h-79q-29 0 -47.5 -4t-31 -16t-21 -35
t-17.5 -60l-29 3l7 151h319v-31z" />
    <glyph glyph-name="Zcaron" unicode="&#x17d;" horiz-adv-x="565" 
d="M139 862h37l106 -82l108 82h37l-120 -135h-52zM517 0h-470v34l356 593h-90q-38 0 -65 -4t-47 -13t-34.5 -24t-26.5 -38q-10 -20 -18 -45t-16 -68l-33 2l11 230h433v-34l-355 -591h88q41 0 70.5 2.5t50.5 9t35.5 17t26.5 27.5q19 27 33 62.5t27 94.5l32 -1z" />
    <glyph glyph-name="zcaron" unicode="&#x17e;" horiz-adv-x="419" 
d="M65 639h38l105 -83l108 83h37l-120 -136h-52zM383 394l-242 -356h81q43 0 63 7.5t34 27.5q13 17 21 39t13 54l30 -3l-5 -163h-339v29l243 357h-79q-29 0 -47.5 -4t-31 -16t-21 -35t-17.5 -60l-29 3l7 151h319v-31z" />
    <glyph glyph-name="florin" unicode="&#x192;" 
d="M265 116q-4 -28 -9 -50.5t-11.5 -41.5t-15.5 -36t-21 -33q-55 -75 -134 -75q-41 0 -65.5 22.5t-24.5 59.5q0 29 15 48t38 19q19 0 32 -13t13 -33q0 -13 -4 -20.5t-18 -20.5q-7 -7 -7 -12q0 -7 7.5 -11.5t18.5 -4.5q29 0 52 26q10 12 18 25.5t14 32.5t11 45t10 64l43 308
h-87l5 40h88l2 15q7 55 20.5 92t36.5 69q26 36 60.5 55.5t72.5 19.5q36 0 60 -22.5t24 -57.5q0 -26 -14 -42.5t-37 -16.5q-17 0 -28 9.5t-11 24.5q0 11 3 18t15 24q5 8 5 13q0 6 -7 11t-16 5q-26 0 -50 -26q-11 -12 -18.5 -25.5t-13.5 -32.5t-11.5 -45.5t-10.5 -64.5l-3 -23
h105l-6 -40h-104z" />
    <glyph glyph-name="Scommaaccent" unicode="&#x218;" horiz-adv-x="575" 
d="M246 -227q46 40 46 71q0 9 -11 9q-47 3 -47 44q0 21 14.5 35.5t35.5 14.5q24 0 40 -19.5t16 -48.5q0 -36 -18 -66t-58 -62zM486 431l-30 -3q-8 29 -15.5 51t-16 40t-17.5 32.5t-21 27.5q-56 63 -130 63q-27 0 -50 -8.5t-39.5 -23.5t-26 -36t-9.5 -45q0 -68 71 -98
q9 -4 15.5 -6.5t17 -5.5t28.5 -7t49 -11q109 -25 158.5 -73.5t49.5 -131.5q0 -47 -15.5 -86t-44 -66.5t-68 -43t-87.5 -15.5q-55 0 -97 18t-83 58l-42 -62h-32v255l30 3q8 -31 16 -54t16.5 -41.5t18.5 -33.5t22 -29q34 -38 71 -56.5t83 -18.5q31 0 57 9t44.5 25.5t29 39
t10.5 49.5q0 29 -13 53t-36 39q-19 11 -42.5 20t-67.5 21q-43 12 -69 19.5t-43 14t-27.5 12.5t-22.5 15q-66 51 -66 140q0 44 14.5 81t40.5 63.5t62 41.5t78 15q45 0 81.5 -15t79.5 -51l38 54h30v-239z" />
    <glyph glyph-name="scommaaccent" unicode="&#x219;" horiz-adv-x="413" 
d="M167 -221q46 37 46 68q0 9 -11 9q-47 1 -47 42q0 21 14 35t35 14q24 0 39.5 -18.5t15.5 -47.5q0 -35 -17.5 -64t-57.5 -60zM349 273h-28q-27 67 -59.5 98t-77.5 31q-31 0 -52 -17.5t-21 -43.5q0 -29 23 -46.5t74 -27.5q23 -5 39 -8.5t27.5 -7t21 -7.5t18.5 -9
q29 -16 45 -45t16 -64q0 -30 -11 -55.5t-30 -44t-45.5 -29t-57.5 -10.5q-33 0 -60 11t-67 40l-27 -41h-30v178h30q20 -72 59.5 -109.5t93.5 -37.5q37 0 61 20t24 50q0 41 -41 56q-8 3 -13.5 5t-13.5 4t-22 5t-39 8q-69 15 -101 47t-32 86q0 28 10 51.5t27.5 41t41.5 27
t53 9.5t55 -9t57 -31l19 32h33v-157z" />
    <glyph glyph-name="uni021A" unicode="&#x21a;" horiz-adv-x="574" 
d="M246 -227q46 40 46 71q0 9 -11 9q-48 3 -48 44q0 21 14.5 35.5t36.5 14.5q24 0 40 -19.5t16 -48.5q0 -36 -17.5 -66t-59.5 -62zM560 417l-34 -3q-6 38 -12 65t-13 47t-15.5 34.5t-20.5 27.5q-39 44 -102 44q-19 0 -24 -8.5t-5 -38.5v-490q0 -17 0.5 -26t2 -14.5t4.5 -7.5
t8 -3q14 -3 58 -5l32 -2v-37h-305v37l32 2q53 1 63 7q7 3 8.5 10.5t1.5 38.5v490q0 30 -5 38.5t-24 8.5q-73 0 -113 -58q-9 -13 -15.5 -27t-12.5 -32t-11 -42.5t-11 -58.5l-34 3l11 250h525z" />
    <glyph glyph-name="uni021B" unicode="&#x21b;" horiz-adv-x="331" 
d="M170 425h135v-39h-135v-224q0 -23 0.5 -37.5t1.5 -24t3 -16.5t5 -13q5 -13 17.5 -20.5t26.5 -7.5q19 0 35.5 13.5t26.5 36.5q7 17 9.5 33t4.5 46h34q0 -23 -1 -40.5t-3.5 -31.5t-7 -25t-10.5 -22q-40 -67 -117 -67q-105 0 -105 115l1 59v226h-84v39q32 -1 54 8.5t37 31.5
t23 58t12 90h37v-188zM126 -221q45 37 45 68q0 9 -10 9q-47 1 -47 42q0 21 14 35t35 14q23 0 38.5 -18.5t15.5 -47.5q0 -35 -17.5 -64t-56.5 -60z" />
    <glyph glyph-name="uni0237" unicode="&#x237;" horiz-adv-x="242" 
d="M173 113q0 -49 -2 -83t-6.5 -59t-12.5 -44.5t-20 -39.5q-20 -32 -47 -49.5t-58 -17.5q-28 0 -45.5 16t-17.5 41q0 21 12.5 34.5t32.5 13.5q28 0 40 -36q4 -17 14 -17q9 0 15 9.5t9.5 33t5 63.5t1.5 102v209q0 30 -0.5 46t-1.5 24.5t-2.5 11.5t-4.5 7q-12 13 -55 13h-18
v34h17l62 2q26 1 42.5 2t39.5 3v-319z" />
    <glyph glyph-name="circumflex" unicode="&#x2c6;" 
d="M394 503h-37l-106 83l-108 -83h-37l120 136h52z" />
    <glyph glyph-name="caron" unicode="&#x2c7;" 
d="M106 639h37l106 -83l108 83h37l-120 -136h-52z" />
    <glyph glyph-name="uni02C9" unicode="&#x2c9;" 
d="M377 545h-255v52h255v-52z" />
    <glyph glyph-name="breve" unicode="&#x2d8;" 
d="M372 636q-5 -65 -34 -95.5t-87 -30.5q-67 0 -101 47q-12 17 -16.5 33.5t-4.5 45.5h25q9 -67 95 -67q77 0 98 67h25z" />
    <glyph glyph-name="dotaccent" unicode="&#x2d9;" 
d="M251 627q22 0 37.5 -15.5t15.5 -37.5q0 -23 -15.5 -38.5t-38.5 -15.5q-22 0 -37.5 15.5t-15.5 37.5q0 23 15.5 38.5t38.5 15.5z" />
    <glyph glyph-name="ring" unicode="&#x2da;" 
d="M250 677q38 0 64 -26t26 -64q0 -19 -7 -35.5t-19.5 -28.5t-29 -19t-35.5 -7q-18 0 -34 7t-28.5 19.5t-19.5 29t-7 34.5q0 38 26 64t64 26zM250 640q-22 0 -37.5 -15.5t-15.5 -37.5t15.5 -37.5t37.5 -15.5t37.5 15t15.5 38q0 22 -15.5 37.5t-37.5 15.5z" />
    <glyph glyph-name="ogonek" unicode="&#x2db;" 
d="M325 0q-27 -25 -37.5 -42.5t-10.5 -37.5q0 -21 15 -34t39 -13q12 0 24 4t32 14l16 -27q-44 -35 -95 -35q-35 0 -57.5 20t-22.5 52q0 27 15.5 50.5t49.5 48.5h32z" />
    <glyph glyph-name="tilde" unicode="&#x2dc;" 
d="M406 617q-9 -48 -32.5 -74.5t-56.5 -26.5q-28 0 -85 29q-19 10 -30 15.5t-18 8.5t-11 3.5t-10 0.5q-29 0 -39 -44l-29 4q21 95 91 95q16 0 31.5 -5.5t45.5 -21.5t46 -22t27 -6q31 0 42 47z" />
    <glyph glyph-name="hungarumlaut" unicode="&#x2dd;" 
d="M342 594q12 17 20 27t14 15.5t10.5 7t10.5 1.5q14 0 23.5 -9.5t9.5 -23.5t-11 -27t-38 -32l-73 -50l-19 18zM189 594q12 17 20 27t13.5 15.5t10.5 7t11 1.5q14 0 23.5 -9.5t9.5 -23.5t-11 -27t-38 -32l-73 -50l-19 18z" />
    <glyph glyph-name="Delta" unicode="&#x394;" horiz-adv-x="667" 
d="M663 0h-659l306 682h45zM108 138q-9 -20 -12.5 -30.5t-3.5 -19.5q0 -17 12.5 -24t42.5 -7h390l-230 526z" />
    <glyph glyph-name="Omega" unicode="&#x3a9;" horiz-adv-x="667" 
d="M653 0h-280v50q25 15 43.5 26t32 21.5t24 21.5t21.5 25q72 90 72 218q0 63 -17 115.5t-47.5 90.5t-73 59t-93.5 21q-52 0 -95 -21.5t-74 -60.5t-48.5 -93t-17.5 -118q0 -103 46.5 -177t146.5 -128v-50h-280l-38 125h19q8 -21 17.5 -35t24 -22t35 -11.5t51.5 -4.5l109 -3
v6q-55 20 -90 41.5t-65 53.5q-40 42 -61 95t-21 113q0 69 25.5 128t70.5 101.5t107 66.5t136 24q75 0 137 -23t108 -68q45 -43 69.5 -102t24.5 -121q0 -69 -28.5 -131t-82.5 -107q-26 -23 -54.5 -39t-71.5 -32v-6l116 3q28 1 47.5 4.5t33 11.5t22.5 22t17 35h20z" />
    <glyph glyph-name="mu" unicode="&#x3bc;" horiz-adv-x="450" 
d="M461 36l-88 -46q-1 -1 -4 -1q-37 0 -49 63l-3 19q-27 -27 -46.5 -43.5t-36 -26t-32.5 -13t-35 -3.5q-42 0 -68 20.5t-41 67.5q-1 -9 -1 -17v-37q0 -10 1.5 -23t5 -32.5t9.5 -54.5q3 -15 4.5 -28t1.5 -21q0 -22 -11.5 -36t-29.5 -14q-19 0 -30.5 13.5t-11.5 34.5
q0 10 2 26t5 34q6 35 11.5 78.5t9.5 90.5t6 95t2 91v184h80v-286q0 -47 5 -71t19 -40q10 -12 26 -19t34 -7q34 0 60.5 17.5t55.5 57.5v348h80v-338q0 -46 8 -61.5t31 -15.5q8 0 14.5 2t15.5 8v-16z" />
    <glyph glyph-name="pi" unicode="&#x3c0;" horiz-adv-x="593" 
d="M601 411h-147q-9 -24 -15.5 -41.5t-10 -31t-5 -24.5t-1.5 -23v-160q0 -28 1.5 -46t6 -28t13 -13.5t21.5 -3.5q5 0 10.5 1t22.5 6l14 3v-17l-114 -43q-9 -3 -12 -3q-7 0 -17.5 11t-18.5 25t-10 26.5t-2 35.5v156q0 16 1.5 29.5t5.5 26t10.5 26t17.5 31.5q6 9 7.5 11.5
t5.5 10.5q10 17 12.5 21.5t9.5 13.5h-170l-2 -117q0 -24 -3 -60t-7 -74t-8.5 -71.5t-8.5 -51.5q-12 -56 -43 -56q-17 0 -28 13.5t-11 33.5q0 7 0.5 12t2 11.5t5.5 15.5t12 26q11 31 19 62.5t13.5 69t9 83t6.5 102.5q-28 0 -49 -3.5t-39 -13.5t-34.5 -26t-35.5 -41l-13 14
l68 91q16 21 36.5 29t56.5 8h417v-57z" />
    <glyph glyph-name="endash" unicode="&#x2013;" horiz-adv-x="580" 
d="M481 189h-381v61h381v-61z" />
    <glyph glyph-name="emdash" unicode="&#x2014;" horiz-adv-x="603" 
d="M603 187h-603v67h603v-67z" />
    <glyph glyph-name="quoteleft" unicode="&#x2018;" horiz-adv-x="252" 
d="M208 648q-24 -13 -38.5 -23.5t-24.5 -22.5q-9 -11 -15 -24.5t-6 -22.5q0 -4 2 -5.5t10 -1.5q23 0 36.5 -13.5t13.5 -35.5q0 -23 -16.5 -39.5t-40.5 -16.5q-27 0 -44.5 19.5t-17.5 51.5q0 47 34 90t95 73z" />
    <glyph glyph-name="quoteright" unicode="&#x2019;" horiz-adv-x="252" 
d="M44 472q24 12 38.5 22.5t25.5 23.5q8 11 14.5 24.5t6.5 21.5q0 5 -2 6t-10 1q-23 1 -37 14.5t-14 35.5q0 23 16.5 39.5t41.5 16.5q27 0 44.5 -19.5t17.5 -51.5q0 -47 -34 -90t-95 -73z" />
    <glyph glyph-name="quotesinglbase" unicode="&#x201a;" horiz-adv-x="252" 
d="M44 -105q24 12 38.5 22.5t25.5 23.5q8 11 14.5 24.5t6.5 21.5q0 5 -2 6t-10 1q-23 1 -37 14.5t-14 35.5q0 23 16.5 39.5t41.5 16.5q27 0 44.5 -19.5t17.5 -51.5q0 -47 -34 -90t-95 -73z" />
    <glyph glyph-name="quotedblleft" unicode="&#x201c;" horiz-adv-x="404" 
d="M360 649q-41 -22 -62.5 -45t-21.5 -46q0 -9 10 -10q52 0 52 -49q0 -23 -16.5 -39t-40.5 -16q-28 0 -45.5 19.5t-17.5 51.5q0 47 34 89.5t95 72.5zM208 648q-44 -23 -63 -46q-9 -11 -15 -24.5t-6 -21.5t12 -8q22 0 36 -13.5t14 -35.5q0 -23 -16.5 -39.5t-40.5 -16.5
q-27 0 -44.5 19.5t-17.5 51.5q0 47 34 90t95 73z" />
    <glyph glyph-name="quotedblright" unicode="&#x201d;" horiz-adv-x="404" 
d="M44 472q41 21 62.5 44.5t21.5 46.5q0 9 -10 9q-25 0 -38.5 13.5t-13.5 36.5t16.5 39t40.5 16q28 0 45.5 -19.5t17.5 -51.5q0 -47 -34 -90t-95 -73zM196 472q44 23 63 46q9 11 15 24.5t6 21.5q0 7 -12 7q-22 1 -36 14.5t-14 35.5q0 23 16.5 39.5t40.5 16.5
q27 0 44.5 -19.5t17.5 -51.5q0 -47 -34.5 -90.5t-94.5 -72.5z" />
    <glyph glyph-name="quotedblbase" unicode="&#x201e;" horiz-adv-x="404" 
d="M44 -105q41 22 62.5 45t21.5 46q0 9 -10 9q-52 2 -52 50q0 23 16.5 39t40.5 16q28 0 45.5 -19.5t17.5 -51.5q0 -47 -34 -89.5t-95 -72.5zM196 -105q44 23 63 46q9 11 15 24.5t6 21.5q0 7 -12 7q-22 1 -36 14.5t-14 35.5q0 23 16.5 39.5t40.5 16.5q27 0 44.5 -19.5
t17.5 -51.5q0 -47 -34.5 -90.5t-94.5 -72.5z" />
    <glyph glyph-name="dagger" unicode="&#x2020;" horiz-adv-x="580" 
d="M274 -75q0 121 -10 214.5t-32 171.5q21 32 31 60.5t11 58.5q-23 -2 -37.5 -4.5t-35.5 -8.5q-19 -6 -30 -9t-18.5 -4.5t-13.5 -2t-15 -0.5q-31 0 -48.5 11.5t-17.5 32.5q0 46 69 46q10 0 17.5 -0.5t16 -2.5t20.5 -5.5t31 -9.5t31 -9t31 -5q0 15 -3.5 32.5t-13.5 48.5
q-5 16 -8.5 26t-5 17.5t-2 13t-0.5 12.5q0 32 13.5 51.5t35.5 19.5t35.5 -19.5t13.5 -51.5q0 -14 -3 -26t-13 -43q-9 -30 -12.5 -48t-3.5 -33q19 2 30.5 5t31.5 9q19 6 31 10t20.5 5.5t16 2t17.5 0.5q69 0 69 -47q0 -20 -17.5 -31.5t-49.5 -11.5q-8 0 -14 0.5t-13.5 2
t-19 4.5t-29.5 9q-22 6 -36 8.5t-37 4.5q1 -30 10.5 -58.5t31.5 -60.5q-23 -76 -33 -179.5t-9 -251.5h-33v45z" />
    <glyph glyph-name="daggerdbl" unicode="&#x2021;" horiz-adv-x="580" 
d="M307 459q19 2 30.5 5t31.5 9q19 6 31 10t20.5 5.5t16 2t17.5 0.5q69 0 69 -47q0 -20 -17.5 -31.5t-49.5 -11.5q-8 0 -14 0.5t-13.5 2t-19 4.5t-29.5 9q-22 6 -36 8.5t-37 4.5q0 -32 12 -71t34 -79q-24 -46 -34.5 -80.5t-11.5 -69.5q23 2 37.5 4.5t35.5 8.5q19 6 30 9
t18.5 4.5t13.5 2t15 0.5q31 0 48.5 -11.5t17.5 -31.5q0 -46 -70 -46q-10 0 -17 0.5t-15.5 2.5t-20.5 5.5t-31 9.5q-20 6 -31.5 9t-30.5 5q0 -15 3.5 -33.5t12.5 -48.5q5 -16 8.5 -26t5 -17t2 -13t0.5 -13q0 -32 -13.5 -51.5t-35.5 -19.5t-35.5 19.5t-13.5 51.5q0 7 0.5 13
t2 13.5t5 17.5t8.5 25q10 31 13.5 49t3.5 33q-19 -2 -30.5 -5t-31.5 -9q-19 -6 -31 -10t-20.5 -5.5t-16 -2t-17.5 -0.5q-69 0 -69 46q0 20 17.5 31.5t49.5 11.5q8 0 14 -0.5t13.5 -2t18.5 -4.5t30 -9q21 -6 35.5 -8.5t37.5 -4.5q-1 35 -11.5 69.5t-34.5 80.5q22 40 34 79
t12 71q-23 -2 -37.5 -4.5t-35.5 -8.5q-19 -6 -30 -9t-18.5 -4.5t-13.5 -2t-15 -0.5q-31 0 -48.5 11.5t-17.5 32.5q0 46 69 46q10 0 17.5 -0.5t16 -2.5t20.5 -5.5t31 -9.5t31 -9t31 -5q0 14 -3.5 31t-11.5 44q-6 19 -10 30.5t-5.5 19t-2 13t-0.5 12.5q0 32 13.5 51.5
t35.5 19.5t35.5 -19.5t13.5 -50.5q0 -8 -0.5 -13.5t-2 -13t-5 -17.5t-8.5 -26q-9 -30 -12.5 -48t-3.5 -33z" />
    <glyph glyph-name="bullet" unicode="&#x2022;" horiz-adv-x="667" 
d="M336 477q28 0 53 -11t43.5 -30t29.5 -44t11 -53q0 -29 -11 -54.5t-29.5 -44t-44 -29.5t-53.5 -11q-29 0 -54.5 11t-44 29.5t-29.5 43.5t-11 54t11 54.5t30 44t44.5 29.5t54.5 11z" />
    <glyph glyph-name="ellipsis" unicode="&#x2026;" horiz-adv-x="761" 
d="M634 110q26 0 43 -17t17 -43q0 -25 -17.5 -42.5t-42.5 -17.5t-42.5 17.5t-17.5 43.5q0 24 17.5 41.5t42.5 17.5zM381 110q26 0 43 -17t17 -43q0 -25 -17.5 -42.5t-42.5 -17.5t-42.5 17.5t-17.5 43.5q0 24 17.5 41.5t42.5 17.5zM127 110q26 0 43 -17t17 -43
q0 -25 -17.5 -42.5t-42.5 -17.5t-42.5 17.5t-17.5 43.5q0 24 17.5 41.5t42.5 17.5z" />
    <glyph glyph-name="perthousand" unicode="&#x2030;" horiz-adv-x="971" 
d="M473 322q29 0 54.5 -12.5t44 -35t29.5 -52.5t11 -65q0 -33 -11.5 -63t-31 -52t-45.5 -35t-55 -13q-30 0 -55.5 12.5t-44.5 34.5t-30 52t-11 64t11.5 64t31 52.5t46 35.5t56.5 13zM472 287q-75 0 -75 -139q0 -118 70 -118q38 0 57.5 33t19.5 96q0 128 -72 128zM160 672
q30 0 55 -12.5t44 -35t29.5 -52.5t10.5 -64q0 -62 -39 -112q-22 -27 -46 -39.5t-56 -12.5q-30 0 -56 12.5t-45 34.5t-30 51.5t-11 64.5q0 34 11.5 64t31 52.5t45.5 35.5t56 13zM159 637q-74 0 -74 -138q0 -120 71 -120q36 0 55.5 34t19.5 97q0 127 -72 127zM187 0h-50
l307 667h49zM798 322q29 0 54.5 -12.5t44 -35t29.5 -52.5t11 -65q0 -33 -11.5 -63t-31 -52t-45.5 -35t-55 -13t-54.5 12.5t-44.5 34.5t-30 52t-11 64t11.5 64t31 52.5t45.5 35.5t56 13zM797 287q-74 0 -74 -139q0 -118 70 -118q37 0 56.5 33t19.5 96q0 128 -72 128z" />
    <glyph glyph-name="guilsinglleft" unicode="&#x2039;" horiz-adv-x="284" 
d="M125 227l113 -197h-41l-160 197l160 190h41z" />
    <glyph glyph-name="guilsinglright" unicode="&#x203a;" horiz-adv-x="284" 
d="M160 220l-113 197h41l160 -197l-160 -190h-41z" />
    <glyph glyph-name="fraction" unicode="&#x2044;" horiz-adv-x="108" 
d="M-71 0h-49l299 649h49z" />
    <glyph glyph-name="Euro" unicode="&#x20ac;" 
d="M365 370l-16 -35h-205v-36h189l-16 -35h-173q5 -116 45 -175.5t112 -59.5q54 0 91 35t60 108l36 -12q-8 -26 -15.5 -44.5t-16 -33.5t-19 -27t-24.5 -24q-53 -45 -126 -45q-50 0 -93.5 20t-77 56.5t-55.5 88t-28 113.5h-49l16 35h31v23l1 10v3h-48l16 35h35q9 62 31.5 113
t54.5 88t72 57t85 20q43 0 76.5 -16t63.5 -51l31 60h29l8 -214l-41 -3q-5 22 -10 38t-10 29.5t-11 25.5t-14 24q-44 69 -110 69q-63 0 -99.5 -61t-44.5 -179h219z" />
    <glyph glyph-name="afii61289" unicode="&#x2113;" horiz-adv-x="434" 
d="M199 341q29 24 52.5 54.5t40 60.5t25.5 57t9 45q0 26 -11 26q-7 0 -15 -11q-9 -12 -22.5 -34.5t-28 -52.5t-28 -66.5t-22.5 -78.5zM44 138q-14 13 -25.5 34t-11.5 56q12 6 19.5 9t13 5t9.5 4l10 5q4 70 22.5 132.5t44.5 114.5t57.5 91t61.5 63q20 16 41 23.5t41 7.5
q40 0 68 -31t28 -94q0 -49 -21 -95t-53.5 -88t-73 -80.5t-79.5 -71.5q0 -5 -0.5 -9.5t-0.5 -9.5q0 -46 12 -71.5t30 -25.5q17 0 36.5 26t36.5 84q12 3 26 3q19 0 37.5 -7.5t30.5 -26.5q-7 -37 -22 -72t-37.5 -62t-52 -43.5t-64.5 -16.5q-22 0 -46.5 9.5t-47 29t-40.5 48
t-28 67.5z" />
    <glyph glyph-name="trademark" unicode="&#x2122;" horiz-adv-x="893" 
d="M847 667v-27l-18 -1q-23 -1 -30.5 -2.5t-9.5 -3.5q-1 -2 -1 -8v-297q0 -6 2 -7q2 -2 9.5 -3.5t29.5 -2.5h18v-28h-179v27l15 1q26 2 32 2.5t8 3.5q0 1 0.5 2.5t0.5 5.5v289l-113 -331h-25l-117 333v-230q0 -23 2 -37.5t8.5 -22.5t19 -11.5t32.5 -4.5v-27h-159v27
q21 2 33 6t19 12.5t9 24t2 40.5v229q0 4 -0.5 5t-1.5 2q-2 2 -10.5 3.5t-28.5 2.5l-22 1v27h143l99 -282l94 282h139zM355 521l-27 -3q-8 43 -15.5 64t-20.5 35q-23 23 -59 23q-10 0 -12 -3.5t-2 -19.5v-289q0 -6 2 -7q2 -2 10.5 -3.5t28.5 -2.5h22v-28h-189v28h22
q22 1 30 2.5t10 3.5q0 1 0.5 2.5t0.5 5.5v289q0 16 -2.5 19t-15.5 3q-48 0 -71 -44q-8 -14 -12 -29.5t-9 -48.5l-26 3l7 146h321z" />
    <glyph glyph-name="uni2126" unicode="&#x2126;" horiz-adv-x="667" 
d="M653 0h-280v50q25 15 43.5 26t32 21.5t24 21.5t21.5 25q72 90 72 218q0 63 -17 115.5t-47.5 90.5t-73 59t-93.5 21q-52 0 -95 -21.5t-74 -60.5t-48.5 -93t-17.5 -118q0 -103 46.5 -177t146.5 -128v-50h-280l-38 125h19q8 -21 17.5 -35t24 -22t35 -11.5t51.5 -4.5l109 -3
v6q-55 20 -90 41.5t-65 53.5q-40 42 -61 95t-21 113q0 69 25.5 128t70.5 101.5t107 66.5t136 24q75 0 137 -23t108 -68q45 -43 69.5 -102t24.5 -121q0 -69 -28.5 -131t-82.5 -107q-26 -23 -54.5 -39t-71.5 -32v-6l116 3q28 1 47.5 4.5t33 11.5t22.5 22t17 35h20z" />
    <glyph glyph-name="estimated" unicode="&#x212e;" horiz-adv-x="763" 
d="M539 386q5 0 9 6q2 3 3 6q0 49 -16 79.5t-42 51.5q-25 20 -54.5 27t-57.5 7q-27 0 -55 -8.5t-52 -27.5q-27 -21 -45 -55.5t-18 -85.5h328zM731 295h-520v-37q0 -42 12 -72.5t32 -51.5q26 -28 60 -40.5t66 -12.5q44 0 82 8.5t68 27.5t53 50t37 76q16 6 35 6q16 0 31 -5.5
t26 -16.5q-3 -35 -24 -76.5t-62.5 -77.5t-102.5 -60t-143 -24q-78 0 -142 29t-110 76t-71.5 106.5t-25.5 121.5q0 61 25.5 121t71.5 107t110 76t142 29t142 -29t110.5 -76.5t72 -107.5t25.5 -121v-26z" />
    <glyph glyph-name="partialdiff" unicode="&#x2202;" 
d="M153 689q45 -19 89.5 -48t78.5 -61q34 -33 61.5 -73t47 -85t29.5 -93.5t10 -97.5q0 -54 -16 -99.5t-45 -77.5t-69.5 -50t-89.5 -18q-48 0 -88 17t-69 48t-45.5 73.5t-16.5 92.5t16.5 93t45.5 74t68.5 48.5t86.5 17.5q44 0 75 -16.5t60 -54.5q-17 52 -38 94t-49.5 77
t-65.5 64.5t-85 56.5zM253 426q-53 0 -84 -36q-25 -28 -40 -75.5t-15 -95.5q0 -26 4.5 -52.5t12 -50t18 -43t23.5 -31.5q32 -32 76 -32q30 0 55 16t43.5 44.5t28.5 67.5t10 86q0 45 -9.5 82t-27 63.5t-42 41.5t-53.5 15z" />
    <glyph glyph-name="uni2206" unicode="&#x2206;" horiz-adv-x="667" 
d="M663 0h-659l306 682h45zM108 138q-9 -20 -12.5 -30.5t-3.5 -19.5q0 -17 12.5 -24t42.5 -7h390l-230 526z" />
    <glyph glyph-name="product" unicode="&#x220f;" horiz-adv-x="667" 
d="M658 667v-19h-20q-23 0 -36.5 -2.5t-21 -11t-9.5 -24t-2 -42.5v-703q0 -26 2.5 -41.5t9.5 -24t20 -11t34 -2.5h22v-19h-270v19h22q22 0 35 2.5t20 11t9 24t2 41.5v703q0 26 -2 42t-9.5 24.5t-21 11t-36.5 2.5h-144q-23 0 -37 -2.5t-21 -11t-9 -24t-2 -42.5v-703
q0 -26 2.5 -41.5t9 -23.5t19 -11t33.5 -3h24v-19h-270v19h22q22 0 35 2.5t20 11t9 24t2 41.5v703q0 26 -2 42t-9 24.5t-20 11t-35 2.5h-25v19h650z" />
    <glyph glyph-name="summation" unicode="&#x2211;" horiz-adv-x="667" 
d="M575 667v-162h-19q-5 38 -15 64t-29.5 41.5t-48.5 22.5t-71 7h-227l204 -381l-240 -439h261q47 0 81.5 8t59 26t40.5 47t26 72h19l-33 -206h-529l245 449l-245 451h521z" />
    <glyph glyph-name="minus" unicode="&#x2212;" 
d="M450 338v-43h-400v43h400z" />
    <glyph glyph-name="uni2215" unicode="&#x2215;" horiz-adv-x="456" 
d="M71 0h-51l365 667h51z" />
    <glyph glyph-name="uni2219" unicode="&#x2219;" horiz-adv-x="254" 
d="M127 280q26 0 43 -17t17 -43q0 -25 -17.5 -42.5t-42.5 -17.5t-42.5 17.5t-17.5 43.5q0 24 17.5 41.5t42.5 17.5z" />
    <glyph glyph-name="radical" unicode="&#x221a;" horiz-adv-x="667" 
d="M650 794h-117l-185 -794h-90l-86 358h-155v29h228l79 -337l182 773h144v-29z" />
    <glyph glyph-name="infinity" unicode="&#x221e;" horiz-adv-x="667" 
d="M311 282q-38 -62 -72.5 -88t-78.5 -26q-32 0 -60 12.5t-48 34t-31.5 51t-11.5 63.5q0 37 12.5 70t34.5 57t51.5 38t63.5 14q50 0 90.5 -29t79.5 -93q33 64 71 93.5t89 29.5q33 0 62 -13t50 -36t33 -54t12 -67q0 -38 -13 -71t-35.5 -57t-53.5 -38t-66 -14q-54 0 -96 29
t-83 94zM356 364q2 -3 3 -4t3 -6q38 -62 81 -94t88 -32q44 0 72.5 30.5t28.5 77.5q0 51 -36.5 79.5t-101.5 28.5q-22 0 -39.5 -4t-33 -13t-31.5 -24.5t-34 -38.5zM293 308q-23 36 -43 61t-39 40.5t-39 22t-43 6.5q-41 0 -67.5 -29t-26.5 -74q0 -48 33.5 -75.5t90.5 -27.5
q22 0 37.5 2.5t30 10.5t30 23t36.5 40z" />
    <glyph glyph-name="integral" unicode="&#x222b;" horiz-adv-x="501" 
d="M297 12q0 -42 -1.5 -72.5t-5 -53t-10 -39.5t-15.5 -33q-44 -76 -134 -76q-29 0 -53 8t-41.5 22t-27.5 34t-10 43q0 25 16.5 42t40.5 17q22 0 38 -15t16 -36q0 -11 -6 -21q-5 -8 -6.5 -11t-1.5 -8q0 -37 34 -37t53.5 43t19.5 118v492q0 43 1.5 73.5t5 53.5t10 40t16.5 33
q45 76 134 76q28 0 52 -8t41.5 -22.5t27.5 -34t10 -41.5q0 -26 -16.5 -43t-40.5 -17q-22 0 -38 15t-16 35q0 8 2 13.5t8 16.5q4 7 4 13q0 16 -9 25.5t-23 9.5q-35 0 -55 -45t-20 -126v-484z" />
    <glyph glyph-name="approxequal" unicode="&#x2248;" 
d="M474 473q-29 -46 -67.5 -72t-77.5 -26q-8 0 -14.5 0.5t-16.5 2.5t-25.5 7t-41.5 13q-36 11 -55 15t-38 4q-27 0 -46 -11t-48 -45l-18 10q35 53 70 76t77 23q9 0 17.5 -1t19 -3t24.5 -6.5t35 -10.5q34 -11 51.5 -15t33.5 -4q29 0 52.5 12t49.5 41zM474 316
q-29 -46 -67.5 -72t-77.5 -26q-8 0 -14.5 0.5t-16.5 2.5t-25.5 6.5t-41.5 12.5q-37 11 -55.5 15t-37.5 4q-14 0 -24.5 -2.5t-21 -8.5t-22 -16.5t-26.5 -27.5l-18 9q36 53 70 76t76 23q9 0 18 -1t19.5 -3t24.5 -6.5t35 -10.5q35 -11 52 -14.5t33 -3.5q30 0 53.5 12t48.5 41z
" />
    <glyph glyph-name="notequal" unicode="&#x2260;" 
d="M329 503l41 -24l-45 -78h125v-44h-150l-47 -81h197v-44h-222l-59 -102l-40 24l45 78h-124v44h149l47 81h-196v44h221z" />
    <glyph glyph-name="lessequal" unicode="&#x2264;" 
d="M457 38v-38h-415v38h415zM457 577l-303 -197l303 -203v-110l-415 279v6l415 266v-41z" />
    <glyph glyph-name="greaterequal" unicode="&#x2265;" 
d="M42 109l303 196l-303 203v110l415 -280v-7l-415 -264v42zM457 38v-38h-415v38h415z" />
    <glyph glyph-name="lozenge" unicode="&#x25ca;" horiz-adv-x="667" 
d="M593 333l-259 -359l-260 359l260 360zM137 333l197 -270l197 270l-197 271z" />
    <glyph glyph-name="uniFB01" unicode="&#xfb01;" horiz-adv-x="535" 
d="M445 135q0 -32 0.5 -49.5t1 -26.5t2 -11.5t3.5 -4.5q4 -4 19.5 -6t39.5 -2h13v-35h-229v35h5q24 0 39.5 2t19.5 6q2 2 3.5 4.5t2 11.5t1 26.5t0.5 49.5v148q0 30 -0.5 46t-1.5 24.5t-2.5 11.5t-4.5 7q-12 13 -55 13h-116v-250q0 -32 0.5 -49.5t1 -26.5t2 -11.5t3.5 -4.5
q4 -4 19.5 -6t38.5 -2h11v-35h-234v35h13q24 0 39.5 2t19.5 6q2 2 3.5 4.5t2 11.5t1 26.5t0.5 49.5v250h-88v40h88v15q0 56 9.5 92.5t32.5 68.5q54 75 153 75q33 0 61.5 -7t49 -19t32.5 -29t12 -36q0 -25 -16.5 -41.5t-40.5 -16.5q-21 0 -36 13.5t-15 32.5q0 11 3.5 18.5
t15.5 21.5q5 7 5 10q0 8 -19.5 13.5t-45.5 5.5q-30 0 -49.5 -7t-35.5 -24q-11 -12 -18 -25t-11.5 -31.5t-6 -44t-1.5 -62.5v-23h119q24 0 63 2t77 6v-298z" />
    <glyph glyph-name="uniFB02" unicode="&#xfb02;" horiz-adv-x="535" 
d="M445 674v-589q0 -17 1 -26t2 -11.5t4 -4.5q4 -4 19.5 -6t39.5 -2h14v-35h-230v35h6q50 0 58 8q2 2 3.5 4.5t2 11.5t1 26.5t0.5 49.5v396q-11 -4 -19 -4q-19 0 -32 13.5t-13 32.5q0 11 3.5 18.5t15.5 21.5q5 7 5 10q0 8 -13 13.5t-33 5.5q-31 0 -53 -19.5t-31 -54.5
q-6 -21 -8 -47t-2 -73v-23h105v-40h-105v-250q0 -32 0.5 -49.5t1 -26.5t2 -11.5t3.5 -4.5q4 -4 19.5 -6t38.5 -2h11v-35h-234v35h13q24 0 39.5 2t19.5 6q2 2 3.5 4.5t2 11.5t1 26.5t0.5 49.5v250h-88v40h88v15q0 56 8.5 92t28.5 68q49 76 135 76q14 0 26 -2t27 -7
q19 0 33 0.5t26 1.5l25 2q13 1 29 3z" />
  </font>
</defs>
</svg>
